<?xml version="1.0" encoding="UTF-8"?>
<svg xmlns="http://www.w3.org/2000/svg" xmlns:xlink="http://www.w3.org/1999/xlink" width="50px" height="50px" viewBox="0 0 50 50" version="1.1">
<g id="surface1">
<path style=" stroke:none;fill-rule:evenodd;fill:rgb(100%,67.843139%,0%);fill-opacity:0.101961;" d="M 24.75 12.5 C 17.75 12.5 12 18.199219 12 25.25 C 12 32.25 17.699219 38 24.75 38 C 31.75 38 37.5 32.300781 37.5 25.25 C 37.5 18.25 31.800781 12.5 24.75 12.5 Z M 24.75 12.5 "/>
<path style="fill:none;stroke-width:4;stroke-linecap:butt;stroke-linejoin:miter;stroke:rgb(100%,67.450982%,0%);stroke-opacity:1;stroke-miterlimit:4;" d="M 49.5 27 C 36.5 27 26 37.5 26 50.5 C 26 63.5 36.5 74 49.5 74 C 62.5 74 73 63.5 73 50.5 C 73 37.5 62.5 27 49.5 27 Z M 49.5 27 " transform="matrix(0.5,0,0,0.5,0,0)"/>
<path style="fill:none;stroke-width:4;stroke-linecap:round;stroke-linejoin:miter;stroke:rgb(100%,67.450982%,0%);stroke-opacity:1;stroke-miterlimit:4;" d="M 50.5 18 L 50.5 9 M 82 50.5 L 91 50.5 M 9 51 L 18 51 M 20 80 L 27 73 M 72 28 L 79 21 M 28 28 L 20 20 M 80 80 L 72 72 M 50.5 91 L 50.5 82 " transform="matrix(0.5,0,0,0.5,0,0)"/>
</g>
</svg>
