<?xml version="1.0" encoding="UTF-8"?>
<svg xmlns="http://www.w3.org/2000/svg" xmlns:xlink="http://www.w3.org/1999/xlink" width="50px" height="50px" viewBox="0 0 50 50" version="1.1">
<g id="surface1">
<path style="fill-rule:evenodd;fill:rgb(100%,67.843139%,0%);fill-opacity:0.101961;stroke-width:3;stroke-linecap:butt;stroke-linejoin:miter;stroke:rgb(100%,67.450982%,0%);stroke-opacity:1;stroke-miterlimit:4;" d="M 44 28 C 44 19.164062 36.835938 12 28 12 C 19.164062 12 12 19.164062 12 28 C 12 36.835938 19.164062 44 28 44 C 36.835938 44 44 36.835938 44 28 Z M 44 28 " transform="matrix(0.5,0,0,0.5,3.5,9.5)"/>
<path style="fill:none;stroke-width:3;stroke-linecap:round;stroke-linejoin:miter;stroke:rgb(100%,67.450982%,0%);stroke-opacity:1;stroke-miterlimit:4;" d="M 28.5 6 L 28.5 0 M 44 12 L 48.5 7.5 M 12 12 L 7.203125 7.203125 M 7.5 28.5 L 0.5 28.5 M 12.5 44.5 L 7.5 49.5 " transform="matrix(0.5,0,0,0.5,3.5,9.5)"/>
<path style=" stroke:none;fill-rule:evenodd;fill:rgb(96.078432%,96.470588%,96.470588%);fill-opacity:1;" d="M 20.648438 41.5 C 15.898438 41.5 12 37.5 12 32.800781 C 12 31.949219 12.148438 31.101562 12.351562 30.300781 C 13.351562 26.800781 16.5 24.300781 20.25 24.101562 C 22.148438 20.398438 26 18 30.101562 18 C 35.351562 18 39.898438 21.75 41 26.851562 C 44.648438 27.351562 47.5 30.351562 47.5 34.25 C 47.5 38.25 44.300781 41.5 40.25 41.5 Z M 20.648438 41.5 "/>
<path style="fill:none;stroke-width:3;stroke-linecap:butt;stroke-linejoin:miter;stroke:rgb(73.333335%,75.294119%,76.862746%);stroke-opacity:1;stroke-miterlimit:4;" d="M 17.296875 45.5 L 56.5 45.5 C 63.703125 45.5 69.5 39.703125 69.5 32.5 C 69.5 25.703125 64.5 20.101562 57.703125 19.203125 L 56.703125 19.203125 L 56.398438 18 C 54.398438 8.5 46 1.5 36.203125 1.5 C 28.5 1.5 21.398438 6 17.796875 13 L 17.398438 13.703125 L 16.398438 13.703125 C 10 14 4.203125 18.703125 2.398438 25 C 1.796875 26.5 1.601562 28 1.601562 29.601562 C 1.601562 38.296875 8.601562 45.601562 17.398438 45.601562 Z M 17.296875 45.5 " transform="matrix(0.5,0,0,0.5,12,18)"/>
</g>
</svg>
