<?xml version="1.0" encoding="UTF-8"?>
<svg xmlns="http://www.w3.org/2000/svg" xmlns:xlink="http://www.w3.org/1999/xlink" width="50px" height="50px" viewBox="0 0 50 50" version="1.1">
<g id="surface1">
<path style="fill-rule:evenodd;fill:rgb(100%,82.352942%,45.882353%);fill-opacity:0.101961;stroke-width:3;stroke-linecap:butt;stroke-linejoin:miter;stroke:rgb(100%,82.352942%,45.882353%);stroke-opacity:1;stroke-miterlimit:4;" d="M 36.601562 24 C 44 30.703125 44.601562 42 37.898438 49.398438 C 31.101562 56.796875 19.898438 57.398438 12.398438 50.796875 C 10.5 49 11 49 11 49 C 9.398438 46.796875 10.5 44.796875 13.203125 44.601562 C 13.203125 44.601562 15 44.898438 19.398438 43.398438 C 22 42.601562 24.398438 41 26.203125 39 C 28.203125 36.796875 29.703125 34 30.203125 31.203125 C 31.203125 26.703125 30.601562 25.398438 30.601562 25.398438 C 30.398438 22.601562 32.296875 21.398438 34.601562 22.703125 C 34.601562 22.703125 34.601562 22.398438 36.601562 24.101562 Z M 36.601562 24 " transform="matrix(0.5,0,0,0.5,0,0)"/>
<path style=" stroke:none;fill-rule:evenodd;fill:rgb(96.078432%,96.470588%,96.470588%);fill-opacity:1;" d="M 19.148438 40 C 14.398438 40 10.5 36 10.5 31.300781 C 10.5 30.449219 10.648438 29.601562 10.851562 28.800781 C 11.851562 25.300781 15 22.800781 18.75 22.601562 C 20.648438 18.898438 24.5 16.5 28.601562 16.5 C 33.851562 16.5 38.398438 20.25 39.449219 25.351562 C 43.101562 25.851562 45.949219 28.851562 45.949219 32.75 C 45.949219 36.75 42.75 40 38.699219 40 Z M 19.148438 40 "/>
<path style="fill:none;stroke-width:3;stroke-linecap:butt;stroke-linejoin:miter;stroke:rgb(73.333335%,75.294119%,76.862746%);stroke-opacity:1;stroke-miterlimit:4;" d="M 30.296875 58.5 L 69.5 58.5 C 76.703125 58.5 82.5 52.703125 82.5 45.5 C 82.5 38.703125 77.5 33.101562 70.703125 32.203125 L 69.703125 32.203125 L 69.398438 31 C 67.398438 21.5 59 14.5 49.203125 14.5 C 41.5 14.5 34.398438 18.898438 30.796875 25.898438 L 30.398438 26.601562 L 29.398438 26.601562 C 22.796875 26.898438 17.101562 31.601562 15.203125 37.898438 C 14.703125 39.398438 14.5 40.898438 14.5 42.5 C 14.5 51.203125 21.5 58.5 30.296875 58.5 Z M 30.296875 58.5 " transform="matrix(0.5,0,0,0.5,4,10)"/>
</g>
</svg>
