<?xml version="1.0" encoding="UTF-8"?>
<svg xmlns="http://www.w3.org/2000/svg" xmlns:xlink="http://www.w3.org/1999/xlink" width="50px" height="50px" viewBox="0 0 50 50" version="1.1">
<g id="surface1">
<path style=" stroke:none;fill-rule:evenodd;fill:rgb(96.078432%,96.470588%,96.470588%);fill-opacity:1;" d="M 16.148438 35.5 C 11.398438 35.5 7.5 31.5 7.5 26.800781 C 7.5 25.949219 7.648438 25.101562 7.851562 24.300781 C 8.851562 20.800781 12 18.300781 15.75 18.101562 C 17.648438 14.398438 21.5 12 25.601562 12 C 30.851562 12 35.398438 15.75 36.5 20.851562 C 40.148438 21.351562 43 24.351562 43 28.25 C 43 32.25 39.800781 35.5 35.75 35.5 Z M 16.148438 35.5 "/>
<path style="fill:none;stroke-width:3;stroke-linecap:butt;stroke-linejoin:miter;stroke:rgb(73.333335%,75.294119%,76.862746%);stroke-opacity:1;stroke-miterlimit:4;" d="M 17.296875 45.5 L 56.5 45.5 C 63.703125 45.5 69.5 39.703125 69.5 32.5 C 69.5 25.703125 64.5 20.101562 57.703125 19.203125 L 56.703125 19.203125 L 56.398438 18 C 54.398438 8.5 46 1.5 36.203125 1.5 C 28.5 1.5 21.398438 6 17.796875 13 L 17.398438 13.703125 L 16.398438 13.703125 C 10 14 4.203125 18.703125 2.296875 25 C 1.796875 26.5 1.601562 28 1.601562 29.601562 C 1.601562 38.296875 8.601562 45.601562 17.398438 45.601562 Z M 17.296875 45.5 " transform="matrix(0.5,0,0,0.5,7.5,12)"/>
<path style="fill-rule:evenodd;fill:rgb(96.078432%,96.470588%,96.470588%);fill-opacity:1;stroke-width:3;stroke-linecap:butt;stroke-linejoin:miter;stroke:rgb(73.333335%,75.294119%,76.862746%);stroke-opacity:1;stroke-miterlimit:4;" d="M 48.5 54.601562 C 42.703125 54.601562 38 59.398438 38 65.296875 C 38 71 42.5 75.796875 48 76 L 76.203125 76 C 80.5 75.796875 84 72 84 67.703125 C 84 63.101562 80.296875 59.296875 75.796875 59.296875 L 75.296875 59.296875 C 74.296875 53.703125 69.796875 49.296875 64.101562 49 L 63.398438 49 C 58.898438 49 54.898438 51.601562 52.796875 55.398438 C 51.5 54.898438 50.101562 54.601562 48.601562 54.601562 Z M 48.5 54.601562 " transform="matrix(0.5,0,0,0.5,0,0)"/>
</g>
</svg>
