<?xml version="1.0" encoding="UTF-8"?>
<svg xmlns="http://www.w3.org/2000/svg" xmlns:xlink="http://www.w3.org/1999/xlink" width="50px" height="50px" viewBox="0 0 50 50" version="1.1">
<g id="surface1">
<path style=" stroke:none;fill-rule:nonzero;fill:rgb(95.686275%,79.215688%,51.372552%);fill-opacity:1;" d="M 33.730469 7.574219 C 38.566406 10.722656 42.222656 14.691406 43.75 20.3125 C 44.386719 26.074219 44.203125 31.523438 40.632812 36.273438 C 37.457031 40.019531 33.71875 43.304688 28.640625 43.867188 C 22.183594 44.207031 17.417969 43.761719 12.335938 39.453125 C 8.847656 36.117188 6.335938 32.464844 6.074219 27.515625 C 5.9375 20.582031 6.847656 16.207031 11.785156 11.042969 C 17.421875 5.8125 26.648438 4.113281 33.730469 7.574219 Z M 33.730469 7.574219 "/>
<path style=" stroke:none;fill-rule:nonzero;fill:rgb(41.176471%,40.784314%,44.705883%);fill-opacity:1;" d="M 25 6.25 C 25 18.625 25 31 25 43.75 C 18.722656 43.75 15.554688 42.53125 11.042969 38.214844 C 6.691406 33.523438 5.941406 28.800781 6.09375 22.617188 C 6.375 17.117188 9.054688 13.574219 13.019531 9.894531 C 16.949219 6.851562 19.933594 6.25 25 6.25 Z M 25 6.25 "/>
<path style=" stroke:none;fill-rule:nonzero;fill:rgb(49.019608%,48.627451%,53.725493%);fill-opacity:1;" d="M 22.917969 8.855469 C 23.433594 8.855469 23.949219 8.855469 24.480469 8.855469 C 24.308594 9.542969 24.136719 10.230469 23.957031 10.9375 C 24.300781 10.9375 24.644531 10.9375 25 10.9375 C 25.027344 14.035156 25.042969 17.128906 25.058594 20.226562 C 25.0625 21.28125 25.070312 22.335938 25.078125 23.386719 C 25.089844 24.902344 25.097656 26.414062 25.101562 27.925781 C 25.105469 28.398438 25.113281 28.871094 25.117188 29.359375 C 25.117188 30.015625 25.117188 30.015625 25.117188 30.6875 C 25.121094 31.074219 25.121094 31.457031 25.125 31.855469 C 25 32.8125 25 32.8125 23.957031 33.855469 C 22.851562 33.660156 22.851562 33.660156 21.875 33.332031 C 21.878906 32.957031 21.882812 32.578125 21.890625 32.191406 C 21.828125 29.195312 21.828125 29.195312 20.617188 26.527344 C 19.15625 25.191406 18.015625 24.554688 16.082031 24.089844 C 13.871094 24.664062 13.152344 25.6875 11.980469 27.605469 C 12.046875 29.359375 12.46875 30.632812 13.019531 32.292969 C 12.847656 32.636719 12.675781 32.980469 12.5 33.332031 C 13.359375 33.503906 14.21875 33.675781 15.105469 33.855469 C 15.277344 34.371094 15.449219 34.886719 15.625 35.417969 C 13.710938 36.027344 11.890625 35.976562 9.894531 35.9375 C 9.46875 35.039062 9.046875 34.136719 8.625 33.234375 C 8.390625 32.734375 8.15625 32.234375 7.914062 31.714844 C 6.757812 28.910156 6.765625 26.945312 7.292969 23.957031 C 7.808594 23.785156 8.324219 23.613281 8.855469 23.4375 C 8.726562 23.082031 8.597656 22.730469 8.464844 22.363281 C 8.257812 19.933594 9.632812 18.121094 11.148438 16.316406 C 11.9375 15.476562 12.746094 14.667969 13.574219 13.867188 C 13.851562 13.589844 14.125 13.3125 14.410156 13.027344 C 16.300781 11.164062 17.433594 10.515625 20.085938 10.1875 C 21.902344 10.070312 21.902344 10.070312 22.917969 8.855469 Z M 22.917969 8.855469 "/>
<path style=" stroke:none;fill-rule:nonzero;fill:rgb(99.607843%,92.941177%,72.549021%);fill-opacity:1;" d="M 34.375 11.457031 C 35.675781 12.238281 35.675781 12.238281 36.457031 13.019531 C 36.457031 13.363281 36.457031 13.707031 36.457031 14.0625 C 37.144531 13.890625 37.832031 13.71875 38.542969 13.542969 C 39.1875 16.3125 39.742188 19.054688 40.105469 21.875 C 40.277344 21.875 40.449219 21.875 40.625 21.875 C 40.625 23.25 40.625 24.625 40.625 26.042969 C 40.96875 26.042969 41.3125 26.042969 41.667969 26.042969 C 41.667969 26.386719 41.667969 26.730469 41.667969 27.082031 C 41.324219 27.082031 40.980469 27.082031 40.625 27.082031 C 40.59375 27.375 40.5625 27.664062 40.527344 27.960938 C 39.929688 29.667969 38.8125 30.554688 37.5 31.769531 C 37.15625 32.113281 36.8125 32.457031 36.457031 32.8125 C 35.941406 32.8125 35.425781 32.8125 34.894531 32.8125 C 35.523438 31.515625 36.175781 30.375 36.980469 29.167969 C 36.636719 29.167969 36.292969 29.167969 35.9375 29.167969 C 35.765625 28.652344 35.59375 28.136719 35.417969 27.605469 C 35.019531 27.625 34.621094 27.648438 34.210938 27.667969 C 32.8125 27.605469 32.8125 27.605469 31.25 26.5625 C 30.992188 27.335938 30.992188 27.335938 30.730469 28.125 C 29.394531 29.003906 29.394531 29.003906 28.125 29.6875 C 28.125 29 28.125 28.3125 28.125 27.605469 C 27.78125 27.605469 27.4375 27.605469 27.082031 27.605469 C 27.253906 26.574219 27.425781 25.542969 27.605469 24.480469 C 27.261719 24.480469 26.917969 24.480469 26.5625 24.480469 C 26.390625 24.996094 26.21875 25.511719 26.042969 26.042969 C 25.699219 26.042969 25.355469 26.042969 25 26.042969 C 25 21.058594 25 16.074219 25 10.9375 C 26.546875 11.195312 26.546875 11.195312 28.125 11.457031 C 28.445312 11.277344 28.769531 11.09375 29.101562 10.90625 C 30.925781 10.101562 32.566406 10.785156 34.375 11.457031 Z M 34.375 11.457031 "/>
<path style=" stroke:none;fill-rule:nonzero;fill:rgb(98.039216%,85.882354%,59.215689%);fill-opacity:1;" d="M 27.605469 24.480469 C 27.433594 25.511719 27.261719 26.542969 27.082031 27.605469 C 27.425781 27.605469 27.769531 27.605469 28.125 27.605469 C 28.296875 28.121094 28.46875 28.636719 28.644531 29.167969 C 28.988281 28.726562 29.332031 28.285156 29.6875 27.832031 C 31.25 26.5625 31.25 26.5625 32.351562 26.503906 C 33.382812 26.644531 34.402344 26.859375 35.417969 27.082031 C 35.589844 27.769531 35.761719 28.457031 35.9375 29.167969 C 36.28125 29.167969 36.625 29.167969 36.980469 29.167969 C 36.351562 30.464844 35.699219 31.605469 34.894531 32.8125 C 37.964844 31.335938 39.148438 30.152344 40.625 27.082031 C 40.96875 27.082031 41.3125 27.082031 41.667969 27.082031 C 41.496094 28.285156 41.324219 29.488281 41.144531 30.730469 C 40.800781 30.730469 40.457031 30.730469 40.105469 30.730469 C 40.0625 31.03125 40.019531 31.332031 39.972656 31.640625 C 39.464844 33.164062 38.730469 33.882812 37.5 34.894531 C 36.984375 34.894531 36.46875 34.894531 35.9375 34.894531 C 34.859375 36.101562 34.371094 36.996094 33.855469 38.542969 C 31.140625 39.722656 31.140625 39.722656 29.167969 39.0625 C 28.652344 40.351562 28.652344 40.351562 28.125 41.667969 C 27.609375 41.496094 27.09375 41.324219 26.5625 41.144531 C 26.5625 41.488281 26.5625 41.832031 26.5625 42.1875 C 26.046875 42.1875 25.53125 42.1875 25 42.1875 C 24.960938 39.917969 24.933594 37.644531 24.914062 35.375 C 24.90625 34.601562 24.894531 33.832031 24.882812 33.058594 C 24.863281 31.945312 24.855469 30.835938 24.847656 29.726562 C 24.839844 29.058594 24.832031 28.390625 24.824219 27.703125 C 25 26.042969 25 26.042969 25.726562 25.03125 C 26.5625 24.480469 26.5625 24.480469 27.605469 24.480469 Z M 27.605469 24.480469 "/>
<path style=" stroke:none;fill-rule:nonzero;fill:rgb(41.568628%,38.82353%,40.784314%);fill-opacity:1;" d="M 25 6.25 C 25 7.796875 25 9.34375 25 10.9375 C 24.65625 10.9375 24.3125 10.9375 23.957031 10.9375 C 24.128906 10.25 24.300781 9.5625 24.480469 8.855469 C 23.941406 9.199219 23.40625 9.542969 22.851562 9.894531 C 21.4375 10.71875 20.984375 10.945312 19.304688 10.839844 C 16.675781 11 15.328125 12.773438 13.542969 14.582031 C 13.152344 14.960938 12.765625 15.335938 12.367188 15.722656 C 9.863281 18.300781 8.980469 19.851562 8.855469 23.4375 C 8.339844 23.695312 8.339844 23.695312 7.8125 23.957031 C 6.640625 27.585938 7.707031 30.585938 9.375 33.855469 C 10.226562 35.527344 10.226562 35.527344 11.65625 35.683594 C 12.128906 35.714844 12.601562 35.742188 13.085938 35.773438 C 13.921875 35.828125 14.761719 35.882812 15.625 35.9375 C 15.796875 37.65625 15.96875 39.375 16.144531 41.144531 C 12.914062 40.734375 11.359375 38.917969 9.375 36.457031 C 6.050781 30.921875 5.355469 25.050781 6.550781 18.71875 C 8.308594 13.726562 12.480469 9.59375 17.1875 7.292969 C 19.847656 6.105469 22.132812 6.164062 25 6.25 Z M 25 6.25 "/>
<path style=" stroke:none;fill-rule:nonzero;fill:rgb(94.509804%,74.117649%,43.529412%);fill-opacity:1;" d="M 25 6.25 C 30.160156 5.917969 33.71875 7.160156 37.664062 10.546875 C 41.152344 13.882812 43.664062 17.535156 43.925781 22.484375 C 44.0625 29.417969 43.152344 33.792969 38.214844 38.957031 C 34.554688 42.351562 30.910156 43.902344 25.914062 43.785156 C 25.613281 43.773438 25.3125 43.761719 25 43.75 C 25 43.234375 25 42.71875 25 42.1875 C 25.316406 42.222656 25.632812 42.261719 25.957031 42.296875 C 29.894531 42.550781 32.304688 41.421875 35.417969 39.0625 C 36.335938 38.230469 37.171875 37.363281 38.019531 36.457031 C 38.363281 36.457031 38.707031 36.457031 39.0625 36.457031 C 39.121094 36.164062 39.179688 35.871094 39.238281 35.570312 C 39.628906 34.21875 40.242188 33.164062 40.917969 31.933594 C 42.917969 27.625 43.0625 21.960938 41.632812 17.414062 C 39.800781 14.160156 37.675781 11.695312 34.375 9.894531 C 34.375 9.550781 34.375 9.207031 34.375 8.855469 C 34.089844 8.792969 33.808594 8.726562 33.515625 8.664062 C 30.675781 8.03125 27.839844 7.402344 25 6.769531 C 25 6.597656 25 6.425781 25 6.25 Z M 26.5625 41.144531 C 27.078125 41.402344 27.078125 41.402344 27.605469 41.667969 C 27.089844 41.925781 27.089844 41.925781 26.5625 42.1875 C 26.5625 41.84375 26.5625 41.5 26.5625 41.144531 Z M 26.5625 41.144531 "/>
<path style=" stroke:none;fill-rule:nonzero;fill:rgb(50.980395%,50.588238%,55.29412%);fill-opacity:1;" d="M 22.917969 11.980469 C 23.605469 12.152344 24.292969 12.324219 25 12.5 C 25 14.734375 25 16.96875 25 19.269531 C 22.394531 18.75 22.394531 18.75 21.355469 18.230469 C 21.386719 18.710938 21.417969 19.195312 21.453125 19.695312 C 21.355469 21.355469 21.355469 21.355469 20.800781 22.363281 C 19.191406 23.246094 17.878906 22.78125 16.144531 22.394531 C 15.625 21.875 15.625 21.875 15.574219 20.796875 C 15.582031 20.371094 15.585938 19.941406 15.59375 19.5 C 15.597656 19.066406 15.601562 18.636719 15.605469 18.195312 C 15.613281 17.863281 15.617188 17.53125 15.625 17.1875 C 17.921875 16.101562 17.921875 16.101562 19.367188 16.308594 C 20.3125 16.667969 20.3125 16.667969 21.355469 17.1875 C 21.183594 15.984375 21.011719 14.78125 20.832031 13.542969 C 21.746094 12.726562 21.746094 12.726562 22.917969 11.980469 Z M 22.917969 11.980469 "/>
<path style=" stroke:none;fill-rule:nonzero;fill:rgb(41.568628%,38.431373%,40.000001%);fill-opacity:1;" d="M 8.855469 17.1875 C 9.199219 17.703125 9.542969 18.21875 9.894531 18.75 C 9.441406 20.3125 9.441406 20.3125 8.855469 21.875 C 8.855469 22.390625 8.855469 22.90625 8.855469 23.4375 C 8.339844 23.695312 8.339844 23.695312 7.8125 23.957031 C 6.640625 27.585938 7.707031 30.585938 9.375 33.855469 C 10.226562 35.527344 10.226562 35.527344 11.65625 35.683594 C 12.128906 35.714844 12.601562 35.742188 13.085938 35.773438 C 13.921875 35.828125 14.761719 35.882812 15.625 35.9375 C 15.796875 37.65625 15.96875 39.375 16.144531 41.144531 C 12.914062 40.734375 11.359375 38.917969 9.375 36.457031 C 7.058594 32.601562 6.15625 29.476562 6.152344 25.03125 C 6.144531 24.609375 6.140625 24.1875 6.132812 23.75 C 6.132812 23.34375 6.132812 22.933594 6.128906 22.511719 C 6.128906 22.140625 6.125 21.769531 6.125 21.386719 C 6.273438 20.113281 6.609375 19.308594 7.292969 18.230469 C 7.808594 17.886719 8.324219 17.542969 8.855469 17.1875 Z M 8.855469 17.1875 "/>
<path style=" stroke:none;fill-rule:nonzero;fill:rgb(96.078432%,80.784315%,53.333336%);fill-opacity:1;" d="M 25 6.769531 C 28.472656 6.460938 31.183594 7.5625 34.375 8.855469 C 34.375 9.199219 34.375 9.542969 34.375 9.894531 C 34.890625 10.066406 35.40625 10.238281 35.9375 10.417969 C 37.109375 11.914062 37.109375 11.914062 38.019531 13.542969 C 37.847656 14.058594 37.675781 14.574219 37.5 15.105469 C 37.5 14.761719 37.5 14.417969 37.5 14.0625 C 37.15625 14.0625 36.8125 14.0625 36.457031 14.0625 C 36.179688 13.742188 35.898438 13.417969 35.613281 13.085938 C 33.972656 11.621094 32.386719 11.132812 30.207031 10.9375 C 29.078125 11.394531 29.078125 11.394531 28.125 11.980469 C 25.765625 11.703125 25.765625 11.703125 25 10.9375 C 24.925781 9.546875 24.976562 8.164062 25 6.769531 Z M 25 6.769531 "/>
<path style=" stroke:none;fill-rule:nonzero;fill:rgb(53.333336%,52.941179%,57.647061%);fill-opacity:1;" d="M 25 12.5 C 25 14.734375 25 16.96875 25 19.269531 C 22.394531 18.75 22.394531 18.75 20.832031 18.230469 C 20.507812 13.933594 20.507812 13.933594 21.746094 12.433594 C 22.917969 11.980469 22.917969 11.980469 25 12.5 Z M 25 12.5 "/>
<path style=" stroke:none;fill-rule:nonzero;fill:rgb(30.980393%,29.411766%,32.549021%);fill-opacity:1;" d="M 10.417969 35.417969 C 12.136719 35.589844 13.855469 35.761719 15.625 35.9375 C 15.796875 37.65625 15.96875 39.375 16.144531 41.144531 C 13.75 41.003906 12.644531 39.972656 11.007812 38.367188 C 10.417969 37.5 10.417969 37.5 10.417969 35.417969 Z M 10.417969 35.417969 "/>
<path style=" stroke:none;fill-rule:nonzero;fill:rgb(42.352942%,41.960785%,47.450981%);fill-opacity:1;" d="M 16.667969 8.855469 C 17.183594 8.855469 17.699219 8.855469 18.230469 8.855469 C 17.941406 10.769531 17.265625 11.511719 15.789062 12.726562 C 15.230469 13.195312 15.230469 13.195312 14.660156 13.671875 C 14.289062 13.972656 13.921875 14.273438 13.542969 14.582031 C 12.933594 15.09375 12.324219 15.601562 11.71875 16.113281 C 11.289062 16.46875 10.859375 16.820312 10.417969 17.1875 C 11.226562 14.597656 12.757812 12.402344 14.582031 10.417969 C 15.097656 10.246094 15.613281 10.074219 16.144531 9.894531 C 16.316406 9.550781 16.488281 9.207031 16.667969 8.855469 Z M 16.667969 8.855469 "/>
<path style=" stroke:none;fill-rule:nonzero;fill:rgb(97.254902%,84.313726%,59.215689%);fill-opacity:1;" d="M 39.0625 15.105469 C 40.625 16.144531 40.625 16.144531 41.003906 17.488281 C 41.429688 20.367188 41.800781 23.128906 41.667969 26.042969 C 41.152344 26.042969 40.636719 26.042969 40.105469 26.042969 C 40.105469 25.011719 40.105469 23.980469 40.105469 22.917969 C 39.933594 22.917969 39.761719 22.917969 39.582031 22.917969 C 39.410156 20.339844 39.238281 17.761719 39.0625 15.105469 Z M 39.0625 15.105469 "/>
<path style=" stroke:none;fill-rule:nonzero;fill:rgb(98.823529%,86.274511%,60.392159%);fill-opacity:1;" d="M 25 7.292969 C 25.859375 7.292969 26.71875 7.292969 27.605469 7.292969 C 27.089844 7.808594 26.574219 8.324219 26.042969 8.855469 C 27.761719 9.199219 29.480469 9.542969 31.25 9.894531 C 30.035156 11.394531 29.492188 11.941406 27.539062 12.175781 C 26.042969 11.980469 26.042969 11.980469 25 10.9375 C 24.933594 9.050781 24.933594 9.050781 25 7.292969 Z M 25 7.292969 "/>
<path style=" stroke:none;fill-rule:nonzero;fill:rgb(94.901961%,77.254903%,48.235294%);fill-opacity:1;" d="M 29.167969 39.0625 C 31.640625 39.519531 31.640625 39.519531 32.8125 40.105469 C 32.8125 40.449219 32.8125 40.792969 32.8125 41.144531 C 30.742188 42.777344 29.144531 42.859375 26.5625 42.707031 C 26.734375 42.363281 26.90625 42.019531 27.082031 41.667969 C 27.425781 41.667969 27.769531 41.667969 28.125 41.667969 C 28.46875 40.808594 28.8125 39.949219 29.167969 39.0625 Z M 29.167969 39.0625 "/>
<path style=" stroke:none;fill-rule:nonzero;fill:rgb(41.960785%,41.568628%,46.27451%);fill-opacity:1;" d="M 21.875 7.8125 C 22.90625 7.8125 23.9375 7.8125 25 7.8125 C 25 8.84375 25 9.875 25 10.9375 C 24.65625 10.9375 24.3125 10.9375 23.957031 10.9375 C 24.128906 10.25 24.300781 9.5625 24.480469 8.855469 C 23.65625 9.371094 23.65625 9.371094 22.820312 9.894531 C 21.214844 10.820312 20.113281 11.164062 18.230469 10.9375 C 18.574219 10.765625 18.917969 10.59375 19.269531 10.417969 C 19.441406 9.902344 19.613281 9.386719 19.792969 8.855469 C 20.480469 8.855469 21.167969 8.855469 21.875 8.855469 C 21.875 8.511719 21.875 8.167969 21.875 7.8125 Z M 21.875 7.8125 "/>
<path style=" stroke:none;fill-rule:nonzero;fill:rgb(97.254902%,88.627452%,62.7451%);fill-opacity:1;" d="M 25 12.5 C 25.34375 12.5 25.6875 12.5 26.042969 12.5 C 26.042969 13.1875 26.042969 13.875 26.042969 14.582031 C 26.730469 14.753906 27.417969 14.925781 28.125 15.105469 C 27.324219 17.039062 26.835938 17.375 25 18.75 C 25 16.6875 25 14.625 25 12.5 Z M 25 12.5 "/>
<path style=" stroke:none;fill-rule:nonzero;fill:rgb(97.254902%,84.313726%,59.215689%);fill-opacity:1;" d="M 33.757812 9.601562 C 35.632812 9.933594 35.847656 10.164062 36.945312 11.621094 C 37.613281 12.589844 37.613281 12.589844 38.019531 13.542969 C 37.847656 14.058594 37.675781 14.574219 37.5 15.105469 C 37.5 14.761719 37.5 14.417969 37.5 14.0625 C 37.15625 14.0625 36.8125 14.0625 36.457031 14.0625 C 36.15625 13.742188 35.855469 13.417969 35.546875 13.085938 C 34.1875 11.800781 33.035156 11.425781 31.25 10.9375 C 32.292969 9.894531 32.292969 9.894531 33.757812 9.601562 Z M 33.757812 9.601562 "/>
<path style=" stroke:none;fill-rule:nonzero;fill:rgb(94.901961%,78.431374%,49.411765%);fill-opacity:1;" d="M 36.457031 33.855469 C 36.800781 34.027344 37.144531 34.199219 37.5 34.375 C 36.523438 36.394531 36.523438 36.394531 35.9375 36.980469 C 35.070312 37 34.199219 37 33.332031 36.980469 C 34.375 35.9375 35.417969 34.894531 36.457031 33.855469 Z M 36.457031 33.855469 "/>
<path style=" stroke:none;fill-rule:nonzero;fill:rgb(35.294119%,34.901962%,39.607844%);fill-opacity:1;" d="M 21.875 8.332031 C 21.375 8.558594 21.375 8.558594 20.867188 8.789062 C 19.710938 9.285156 19.710938 9.285156 19.269531 10.417969 C 18.925781 10.417969 18.582031 10.417969 18.230469 10.417969 C 18.058594 9.730469 17.886719 9.042969 17.707031 8.332031 C 19.199219 7.589844 20.277344 8.019531 21.875 8.332031 Z M 21.875 8.332031 "/>
</g>
</svg>
