<?xml version="1.0" encoding="UTF-8"?>
<svg xmlns="http://www.w3.org/2000/svg" xmlns:xlink="http://www.w3.org/1999/xlink" width="50px" height="50px" viewBox="0 0 50 50" version="1.1">
<g id="surface1">
<path style=" stroke:none;fill-rule:evenodd;fill:rgb(96.078432%,96.470588%,96.470588%);fill-opacity:1;" d="M 18.648438 37 C 13.898438 37 10 33 10 28.300781 C 10 27.449219 10.148438 26.601562 10.351562 25.800781 C 11.351562 22.300781 14.5 19.800781 18.25 19.601562 C 20.148438 15.898438 24 13.5 28.101562 13.5 C 33.351562 13.5 37.898438 17.25 39 22.351562 C 42.648438 22.851562 45.5 25.851562 45.5 29.75 C 45.5 33.75 42.300781 37 38.25 37 Z M 18.648438 37 "/>
<path style="fill:none;stroke-width:3;stroke-linecap:butt;stroke-linejoin:miter;stroke:rgb(73.333335%,75.294119%,76.862746%);stroke-opacity:1;stroke-miterlimit:4;" d="M 17.296875 45.5 L 56.5 45.5 C 63.703125 45.5 69.5 39.703125 69.5 32.5 C 69.5 25.703125 64.5 20.101562 57.703125 19.203125 L 56.703125 19.203125 L 56.398438 18 C 54.398438 8.5 46 1.5 36.203125 1.5 C 28.5 1.5 21.398438 6 17.796875 13 L 17.398438 13.703125 L 16.398438 13.703125 C 10 14 4.203125 18.703125 2.398438 25 C 1.796875 26.5 1.601562 28 1.601562 29.601562 C 1.601562 38.296875 8.601562 45.601562 17.398438 45.601562 Z M 17.296875 45.5 " transform="matrix(0.5,0,0,0.5,10,13.5)"/>
<path style="fill:none;stroke-width:3;stroke-linecap:round;stroke-linejoin:round;stroke:rgb(37.64706%,69.01961%,92.941177%);stroke-opacity:1;stroke-miterlimit:4;" d="M 56 36.5 L 15 36.5 M 51 46.5 L 10 46.5 M 57 56.5 L 16 56.5 " transform="matrix(0.5,0,0,0.5,0,0)"/>
</g>
</svg>
