<?xml version="1.0" encoding="UTF-8"?>
<svg xmlns="http://www.w3.org/2000/svg" xmlns:xlink="http://www.w3.org/1999/xlink" width="50px" height="50px" viewBox="0 0 50 50" version="1.1">
<g id="surface1">
<path style=" stroke:none;fill-rule:nonzero;fill:rgb(97.254902%,83.92157%,56.078434%);fill-opacity:1;" d="M 33.730469 7.574219 C 38.566406 10.722656 42.222656 14.691406 43.75 20.3125 C 44.386719 26.074219 44.203125 31.523438 40.632812 36.273438 C 37.457031 40.019531 33.71875 43.304688 28.640625 43.867188 C 22.183594 44.207031 17.417969 43.761719 12.335938 39.453125 C 8.847656 36.117188 6.335938 32.464844 6.074219 27.515625 C 5.9375 20.582031 6.847656 16.207031 11.785156 11.042969 C 17.421875 5.8125 26.648438 4.113281 33.730469 7.574219 Z M 33.730469 7.574219 "/>
<path style=" stroke:none;fill-rule:nonzero;fill:rgb(99.215686%,92.54902%,71.764708%);fill-opacity:1;" d="M 22.394531 8.332031 C 23.253906 8.332031 24.113281 8.332031 25 8.332031 C 24.65625 9.191406 24.3125 10.050781 23.957031 10.9375 C 24.78125 11.054688 25.605469 11.160156 26.433594 11.261719 C 26.890625 11.324219 27.351562 11.382812 27.824219 11.445312 C 29.167969 11.5625 29.167969 11.5625 30.246094 10.914062 C 31.25 10.417969 31.25 10.417969 32.328125 10.582031 C 35.242188 11.726562 35.242188 11.726562 36.199219 13.117188 C 36.328125 13.585938 36.328125 13.585938 36.457031 14.0625 C 37.144531 13.890625 37.832031 13.71875 38.542969 13.542969 C 39.1875 16.3125 39.742188 19.054688 40.105469 21.875 C 40.277344 21.875 40.449219 21.875 40.625 21.875 C 40.625 23.25 40.625 24.625 40.625 26.042969 C 40.96875 26.042969 41.3125 26.042969 41.667969 26.042969 C 41.667969 26.386719 41.667969 26.730469 41.667969 27.082031 C 41.324219 27.082031 40.980469 27.082031 40.625 27.082031 C 40.59375 27.375 40.5625 27.664062 40.527344 27.960938 C 39.625 30.53125 37.039062 32.289062 34.894531 33.855469 C 34.550781 33.855469 34.207031 33.855469 33.855469 33.855469 C 34.539062 31.804688 35.375 30.609375 36.980469 29.167969 C 36.636719 29.167969 36.292969 29.167969 35.9375 29.167969 C 35.765625 28.652344 35.59375 28.136719 35.417969 27.605469 C 32.15625 27.378906 30.683594 27.640625 28.125 29.6875 C 28.125 29 28.125 28.3125 28.125 27.605469 C 27.78125 27.605469 27.4375 27.605469 27.082031 27.605469 C 26.910156 27.089844 26.738281 26.574219 26.5625 26.042969 C 25.53125 26.386719 24.5 26.730469 23.4375 27.082031 C 23.707031 27.4375 23.976562 27.792969 24.25 28.15625 C 25.203125 30.105469 24.929688 31.253906 24.480469 33.332031 C 23.449219 33.589844 23.449219 33.589844 22.394531 33.855469 C 21.320312 32.238281 21.25 31.84375 21.191406 30.011719 C 21.019531 28.058594 20.871094 27.652344 19.5625 26.042969 C 17.625 24.53125 16.535156 24.183594 14.0625 24.480469 C 12.660156 25.371094 12.660156 25.371094 11.980469 27.082031 C 11.914062 29.035156 12.046875 30.910156 12.5 32.8125 C 12.84375 32.984375 13.1875 33.15625 13.542969 33.332031 C 13.542969 34.019531 13.542969 34.707031 13.542969 35.417969 C 12.511719 35.417969 11.480469 35.417969 10.417969 35.417969 C 10.246094 35.761719 10.074219 36.105469 9.894531 36.457031 C 9.777344 34.648438 9.671875 32.835938 9.570312 31.023438 C 9.519531 30.261719 9.519531 30.261719 9.46875 29.484375 C 9.144531 23.449219 10.488281 18.449219 14.0625 13.542969 C 16.210938 11.292969 17.914062 10.597656 20.910156 10.183594 C 21.226562 10.089844 21.546875 9.992188 21.875 9.894531 C 22.046875 9.378906 22.21875 8.863281 22.394531 8.332031 Z M 22.394531 8.332031 "/>
<path style=" stroke:none;fill-rule:nonzero;fill:rgb(95.294118%,77.254903%,47.843137%);fill-opacity:1;" d="M 33.730469 7.574219 C 38.566406 10.722656 42.222656 14.691406 43.75 20.3125 C 44.386719 26.074219 44.203125 31.523438 40.632812 36.273438 C 37.546875 39.910156 34.339844 42.523438 29.6875 43.75 C 28.058594 43.867188 26.4375 43.847656 24.804688 43.816406 C 24.371094 43.808594 23.9375 43.804688 23.492188 43.800781 C 22.433594 43.789062 21.371094 43.769531 20.3125 43.75 C 20.570312 42.976562 20.570312 42.976562 20.832031 42.1875 C 20.832031 41.671875 20.832031 41.15625 20.832031 40.625 C 21.691406 40.796875 22.550781 40.96875 23.4375 41.144531 C 23.4375 41.488281 23.4375 41.832031 23.4375 42.1875 C 24.46875 42.1875 25.5 42.1875 26.5625 42.1875 C 26.5625 41.84375 26.5625 41.5 26.5625 41.144531 C 26.894531 40.996094 27.226562 40.84375 27.570312 40.691406 C 28.726562 40.195312 28.726562 40.195312 29.167969 39.0625 C 30.378906 38.863281 31.59375 38.691406 32.8125 38.542969 C 33.15625 38.371094 33.5 38.199219 33.855469 38.019531 C 33.90625 37.710938 33.960938 37.398438 34.015625 37.078125 C 34.535156 35.433594 35.613281 34.835938 36.980469 33.855469 C 37.496094 34.113281 37.496094 34.113281 38.019531 34.375 C 38.707031 33.171875 39.394531 31.96875 40.105469 30.730469 C 40.449219 30.730469 40.792969 30.730469 41.144531 30.730469 C 41.144531 29.355469 41.144531 27.980469 41.144531 26.5625 C 40.800781 26.390625 40.457031 26.21875 40.105469 26.042969 C 40.105469 25.011719 40.105469 23.980469 40.105469 22.917969 C 39.933594 22.917969 39.761719 22.917969 39.582031 22.917969 C 39.238281 20.167969 38.894531 17.417969 38.542969 14.582031 C 38.027344 14.839844 38.027344 14.839844 37.5 15.105469 C 37.5 14.761719 37.5 14.417969 37.5 14.0625 C 37.15625 14.0625 36.8125 14.0625 36.457031 14.0625 C 36.179688 13.742188 35.898438 13.417969 35.613281 13.085938 C 33.972656 11.621094 32.386719 11.132812 30.207031 10.9375 C 29.078125 11.394531 29.078125 11.394531 28.125 11.980469 C 26.636719 11.796875 25.378906 11.410156 23.957031 10.9375 C 24.300781 10.078125 24.644531 9.21875 25 8.332031 C 24.140625 8.332031 23.28125 8.332031 22.394531 8.332031 C 22.222656 9.019531 22.050781 9.707031 21.875 10.417969 C 21.554688 10.484375 21.234375 10.554688 20.90625 10.625 C 20.273438 10.765625 20.273438 10.765625 19.628906 10.90625 C 19.210938 10.996094 18.796875 11.085938 18.367188 11.179688 C 17.113281 11.457031 17.113281 11.457031 15.625 11.980469 C 15.453125 12.496094 15.28125 13.011719 15.105469 13.542969 C 14.589844 13.886719 14.074219 14.230469 13.542969 14.582031 C 10.175781 19.792969 9.804688 25.753906 9.863281 31.769531 C 9.867188 32.222656 9.867188 32.675781 9.871094 33.144531 C 9.875 34.25 9.886719 35.355469 9.894531 36.457031 C 6.808594 33.050781 5.960938 29.5625 6.023438 25.066406 C 6.027344 24.652344 6.03125 24.242188 6.039062 23.816406 C 6.203125 18.34375 8.007812 14.996094 11.785156 11.042969 C 17.421875 5.8125 26.648438 4.113281 33.730469 7.574219 Z M 33.730469 7.574219 "/>
<path style=" stroke:none;fill-rule:nonzero;fill:rgb(97.254902%,83.529413%,56.862748%);fill-opacity:1;" d="M 22.429688 7.242188 C 23.074219 7.25 23.074219 7.25 23.730469 7.257812 C 24.160156 7.265625 24.589844 7.269531 25.035156 7.273438 C 25.367188 7.28125 25.699219 7.285156 26.042969 7.292969 C 26.042969 7.636719 26.042969 7.980469 26.042969 8.332031 C 27.847656 8.074219 27.847656 8.074219 29.6875 7.8125 C 29.6875 8.328125 29.6875 8.84375 29.6875 9.375 C 30.203125 9.71875 30.71875 10.0625 31.25 10.417969 C 30 11.570312 29.324219 11.960938 27.605469 12.140625 C 26.109375 11.984375 25.226562 11.71875 23.957031 10.9375 C 24.300781 10.078125 24.644531 9.21875 25 8.332031 C 24.140625 8.332031 23.28125 8.332031 22.394531 8.332031 C 22.222656 9.019531 22.050781 9.707031 21.875 10.417969 C 21.554688 10.484375 21.234375 10.554688 20.90625 10.625 C 20.273438 10.765625 20.273438 10.765625 19.628906 10.90625 C 19.210938 10.996094 18.796875 11.085938 18.367188 11.179688 C 17.113281 11.457031 17.113281 11.457031 15.625 11.980469 C 15.453125 12.496094 15.28125 13.011719 15.105469 13.542969 C 14.589844 13.886719 14.074219 14.230469 13.542969 14.582031 C 10.175781 19.792969 9.804688 25.753906 9.863281 31.769531 C 9.867188 32.222656 9.867188 32.675781 9.871094 33.144531 C 9.875 34.25 9.886719 35.355469 9.894531 36.457031 C 9.722656 36.457031 9.550781 36.457031 9.375 36.457031 C 9.375 34.222656 9.375 31.988281 9.375 29.6875 C 9.03125 29.6875 8.6875 29.6875 8.332031 29.6875 C 7.34375 25.328125 7.144531 20.65625 9.375 16.667969 C 11.238281 13.773438 13.730469 9.949219 17.121094 8.917969 C 17.671875 8.886719 17.671875 8.886719 18.230469 8.855469 C 18.230469 9.371094 18.230469 9.886719 18.230469 10.417969 C 18.648438 9.996094 19.066406 9.578125 19.5 9.148438 C 21.355469 7.292969 21.355469 7.292969 22.429688 7.242188 Z M 22.429688 7.242188 "/>
<path style=" stroke:none;fill-rule:nonzero;fill:rgb(94.509804%,74.117649%,43.529412%);fill-opacity:1;" d="M 32.8125 7.8125 C 36.992188 8.988281 39.78125 12.5 42.070312 15.984375 C 44.503906 20.566406 44.40625 26.257812 43.445312 31.273438 C 41.820312 35.933594 38.054688 39.738281 33.863281 42.21875 C 30.761719 43.660156 28.171875 43.886719 24.804688 43.816406 C 24.371094 43.808594 23.9375 43.804688 23.492188 43.800781 C 22.433594 43.789062 21.371094 43.769531 20.3125 43.75 C 20.484375 43.234375 20.65625 42.71875 20.832031 42.1875 C 20.832031 41.671875 20.832031 41.15625 20.832031 40.625 C 21.691406 40.796875 22.550781 40.96875 23.4375 41.144531 C 23.4375 41.488281 23.4375 41.832031 23.4375 42.1875 C 28.328125 42.601562 31.53125 42.15625 35.417969 39.0625 C 36.332031 38.226562 37.171875 37.363281 38.019531 36.457031 C 38.363281 36.457031 38.707031 36.457031 39.0625 36.457031 C 39.121094 36.164062 39.179688 35.871094 39.238281 35.570312 C 39.628906 34.21875 40.242188 33.164062 40.917969 31.933594 C 42.917969 27.625 43.0625 21.960938 41.632812 17.414062 C 39.800781 14.160156 37.675781 11.695312 34.375 9.894531 C 34.375 9.550781 34.375 9.207031 34.375 8.855469 C 33.859375 8.855469 33.34375 8.855469 32.8125 8.855469 C 32.8125 8.511719 32.8125 8.167969 32.8125 7.8125 Z M 26.5625 41.144531 C 27.078125 41.402344 27.078125 41.402344 27.605469 41.667969 C 27.089844 41.925781 27.089844 41.925781 26.5625 42.1875 C 26.5625 41.84375 26.5625 41.5 26.5625 41.144531 Z M 26.5625 41.144531 "/>
<path style=" stroke:none;fill-rule:nonzero;fill:rgb(97.647059%,88.627452%,62.7451%);fill-opacity:1;" d="M 24.347656 12.402344 C 25.1875 12.707031 25.1875 12.707031 26.042969 13.019531 C 26.042969 13.535156 26.042969 14.050781 26.042969 14.582031 C 26.730469 14.753906 27.417969 14.925781 28.125 15.105469 C 27.375 16.855469 26.519531 18.097656 25 19.269531 C 23.699219 19.402344 23.699219 19.402344 22.394531 18.75 C 21.335938 17.175781 20.3125 15.46875 20.3125 13.542969 C 21.746094 11.9375 22.199219 11.9375 24.347656 12.402344 Z M 24.347656 12.402344 "/>
<path style=" stroke:none;fill-rule:nonzero;fill:rgb(95.294118%,78.431374%,49.803922%);fill-opacity:1;" d="M 39.582031 33.332031 C 39.582031 35.054688 39.453125 36.039062 38.265625 37.316406 C 31.949219 42.855469 31.949219 42.855469 28.09375 42.871094 C 27.585938 42.816406 27.082031 42.765625 26.5625 42.707031 C 26.734375 42.363281 26.90625 42.019531 27.082031 41.667969 C 27.425781 41.667969 27.769531 41.667969 28.125 41.667969 C 28.46875 40.808594 28.8125 39.949219 29.167969 39.0625 C 30.035156 38.949219 30.035156 38.949219 30.925781 38.835938 C 32.71875 38.65625 32.71875 38.65625 33.855469 38.019531 C 33.90625 37.710938 33.960938 37.398438 34.015625 37.078125 C 34.546875 35.390625 35.523438 34.800781 36.980469 33.855469 C 37.667969 33.855469 38.355469 33.855469 39.0625 33.855469 C 39.234375 33.683594 39.40625 33.511719 39.582031 33.332031 Z M 39.582031 33.332031 "/>
<path style=" stroke:none;fill-rule:nonzero;fill:rgb(98.431373%,88.627452%,62.7451%);fill-opacity:1;" d="M 20.3125 16.667969 C 21.355469 18.230469 21.355469 18.230469 21.191406 20.117188 C 20.832031 21.875 20.832031 21.875 20.3125 22.394531 C 19.367188 22.464844 19.367188 22.464844 18.230469 22.460938 C 17.851562 22.460938 17.476562 22.464844 17.089844 22.464844 C 16.144531 22.394531 16.144531 22.394531 15.625 21.875 C 15.363281 19.164062 15.363281 19.164062 15.625 17.707031 C 17.167969 16.292969 18.363281 15.726562 20.3125 16.667969 Z M 20.3125 16.667969 "/>
<path style=" stroke:none;fill-rule:nonzero;fill:rgb(96.470588%,81.960785%,55.686277%);fill-opacity:1;" d="M 17.707031 8.855469 C 17.878906 9.371094 18.050781 9.886719 18.230469 10.417969 C 17.390625 10.722656 17.390625 10.722656 16.535156 11.035156 C 14.617188 11.859375 13.699219 12.847656 12.5 14.582031 C 12.136719 15.011719 11.769531 15.441406 11.394531 15.886719 C 9.722656 18.113281 9.234375 19.984375 9.277344 22.753906 C 9.28125 23.25 9.285156 23.746094 9.289062 24.257812 C 9.292969 25.527344 9.292969 25.527344 9.894531 26.5625 C 9.9375 27.316406 9.953125 28.074219 9.945312 28.828125 C 9.945312 29.273438 9.941406 29.714844 9.941406 30.171875 C 9.9375 30.636719 9.933594 31.097656 9.929688 31.574219 C 9.925781 32.042969 9.921875 32.511719 9.921875 32.992188 C 9.914062 34.148438 9.90625 35.304688 9.894531 36.457031 C 9.722656 36.457031 9.550781 36.457031 9.375 36.457031 C 9.375 34.222656 9.375 31.988281 9.375 29.6875 C 9.03125 29.6875 8.6875 29.6875 8.332031 29.6875 C 7.34375 25.328125 7.144531 20.65625 9.375 16.667969 C 13.699219 9.957031 13.699219 9.957031 16.761719 9.03125 C 17.074219 8.972656 17.386719 8.914062 17.707031 8.855469 Z M 17.707031 8.855469 "/>
<path style=" stroke:none;fill-rule:nonzero;fill:rgb(98.039216%,87.058824%,63.529414%);fill-opacity:1;" d="M 18.75 10.9375 C 18.246094 11.078125 17.742188 11.21875 17.21875 11.359375 C 16.695312 11.566406 16.167969 11.769531 15.625 11.980469 C 15.453125 12.496094 15.28125 13.011719 15.105469 13.542969 C 14.589844 13.886719 14.074219 14.230469 13.542969 14.582031 C 11.984375 16.992188 11.132812 19.632812 10.417969 22.394531 C 10.074219 23.4375 9.730469 24.480469 9.375 25.519531 C 9.203125 25.519531 9.03125 25.519531 8.855469 25.519531 C 8.570312 19.605469 10.152344 16.390625 14.0625 11.980469 C 15.777344 10.621094 16.671875 10.089844 18.75 10.9375 Z M 18.75 10.9375 "/>
<path style=" stroke:none;fill-rule:nonzero;fill:rgb(97.254902%,84.313726%,59.215689%);fill-opacity:1;" d="M 39.0625 15.105469 C 40.625 16.144531 40.625 16.144531 41.003906 17.488281 C 41.429688 20.367188 41.800781 23.128906 41.667969 26.042969 C 41.152344 26.042969 40.636719 26.042969 40.105469 26.042969 C 40.105469 25.011719 40.105469 23.980469 40.105469 22.917969 C 39.933594 22.917969 39.761719 22.917969 39.582031 22.917969 C 39.410156 20.339844 39.238281 17.761719 39.0625 15.105469 Z M 39.0625 15.105469 "/>
<path style=" stroke:none;fill-rule:nonzero;fill:rgb(95.294118%,77.254903%,48.627451%);fill-opacity:1;" d="M 7.8125 18.75 C 8.222656 20.195312 8.394531 21.472656 8.382812 22.972656 C 8.382812 23.367188 8.378906 23.757812 8.378906 24.164062 C 8.375 24.570312 8.371094 24.972656 8.367188 25.390625 C 8.363281 25.804688 8.359375 26.214844 8.359375 26.640625 C 8.351562 27.65625 8.34375 28.671875 8.332031 29.6875 C 8.675781 29.6875 9.019531 29.6875 9.375 29.6875 C 9.375 31.578125 9.375 33.46875 9.375 35.417969 C 8.332031 34.894531 8.332031 34.894531 8.007812 34 C 7.347656 30.988281 7.148438 28.144531 7.195312 25.066406 C 7.195312 24.628906 7.195312 24.191406 7.195312 23.738281 C 7.207031 21.90625 7.226562 20.503906 7.8125 18.75 Z M 7.8125 18.75 "/>
<path style=" stroke:none;fill-rule:nonzero;fill:rgb(93.333334%,75.294119%,45.490196%);fill-opacity:1;" d="M 10.417969 35.417969 C 12.308594 35.589844 14.199219 35.761719 16.144531 35.9375 C 16.316406 37.140625 16.488281 38.34375 16.667969 39.582031 C 16.496094 39.238281 16.324219 38.894531 16.144531 38.542969 C 15.582031 38.605469 15.582031 38.605469 15.007812 38.671875 C 13.085938 38.5 12.316406 37.761719 10.9375 36.457031 C 10.765625 36.113281 10.59375 35.769531 10.417969 35.417969 Z M 10.417969 35.417969 "/>
<path style=" stroke:none;fill-rule:nonzero;fill:rgb(99.215686%,87.058824%,60.784316%);fill-opacity:1;" d="M 24.480469 9.375 C 26.714844 9.546875 28.949219 9.71875 31.25 9.894531 C 29.167969 11.980469 29.167969 11.980469 27.605469 12.175781 C 26.128906 11.988281 25.214844 11.710938 23.957031 10.9375 C 24.128906 10.421875 24.300781 9.90625 24.480469 9.375 Z M 24.480469 9.375 "/>
<path style=" stroke:none;fill-rule:nonzero;fill:rgb(97.647059%,85.490197%,61.176473%);fill-opacity:1;" d="M 31.25 35.417969 C 32.8125 35.417969 32.8125 35.417969 33.691406 36.199219 C 33.917969 36.457031 34.140625 36.714844 34.375 36.980469 C 34.203125 37.496094 34.03125 38.011719 33.855469 38.542969 C 32.257812 39.160156 32.257812 39.160156 30.730469 39.582031 C 30.207031 39.0625 30.207031 39.0625 30.109375 37.792969 C 30.207031 36.457031 30.207031 36.457031 31.25 35.417969 Z M 31.25 35.417969 "/>
<path style=" stroke:none;fill-rule:nonzero;fill:rgb(97.254902%,84.313726%,59.215689%);fill-opacity:1;" d="M 33.757812 9.601562 C 35.632812 9.933594 35.847656 10.164062 36.945312 11.621094 C 37.613281 12.589844 37.613281 12.589844 38.019531 13.542969 C 37.847656 14.058594 37.675781 14.574219 37.5 15.105469 C 37.5 14.761719 37.5 14.417969 37.5 14.0625 C 37.15625 14.0625 36.8125 14.0625 36.457031 14.0625 C 36.15625 13.742188 35.855469 13.417969 35.546875 13.085938 C 34.1875 11.800781 33.035156 11.425781 31.25 10.9375 C 32.292969 9.894531 32.292969 9.894531 33.757812 9.601562 Z M 33.757812 9.601562 "/>
<path style=" stroke:none;fill-rule:nonzero;fill:rgb(92.941177%,72.156864%,41.176471%);fill-opacity:1;" d="M 20.3125 40.625 C 21.859375 40.882812 21.859375 40.882812 23.4375 41.144531 C 23.609375 41.660156 23.78125 42.175781 23.957031 42.707031 C 24.472656 43.050781 24.988281 43.394531 25.519531 43.75 C 23.800781 43.75 22.082031 43.75 20.3125 43.75 C 20.484375 43.234375 20.65625 42.71875 20.832031 42.1875 C 20.660156 41.671875 20.488281 41.15625 20.3125 40.625 Z M 20.3125 40.625 "/>
<path style=" stroke:none;fill-rule:nonzero;fill:rgb(94.901961%,78.431374%,49.019608%);fill-opacity:1;" d="M 36.457031 33.855469 C 36.800781 34.027344 37.144531 34.199219 37.5 34.375 C 37.140625 35.382812 37.140625 35.382812 36.457031 36.457031 C 35.089844 36.847656 35.089844 36.847656 33.855469 36.980469 C 34.714844 35.949219 35.574219 34.917969 36.457031 33.855469 Z M 36.457031 33.855469 "/>
<path style=" stroke:none;fill-rule:nonzero;fill:rgb(93.725491%,74.509805%,43.137255%);fill-opacity:1;" d="M 20.3125 7.292969 C 18.402344 8.3125 16.734375 9.058594 14.582031 9.375 C 16.226562 7.472656 17.847656 6.46875 20.3125 7.292969 Z M 20.3125 7.292969 "/>
<path style=" stroke:none;fill-rule:nonzero;fill:rgb(91.37255%,71.372551%,39.607844%);fill-opacity:1;" d="M 10.417969 35.417969 C 12.890625 35.808594 12.890625 35.808594 14.0625 36.980469 C 13.890625 37.496094 13.71875 38.011719 13.542969 38.542969 C 11.003906 36.589844 11.003906 36.589844 10.417969 35.417969 Z M 10.417969 35.417969 "/>
<path style=" stroke:none;fill-rule:nonzero;fill:rgb(97.647059%,85.882354%,61.56863%);fill-opacity:1;" d="M 13.542969 33.332031 C 14.574219 33.847656 14.574219 33.847656 15.625 34.375 C 15.625 34.890625 15.625 35.40625 15.625 35.9375 C 14.9375 35.9375 14.25 35.9375 13.542969 35.9375 C 13.542969 35.078125 13.542969 34.21875 13.542969 33.332031 Z M 13.542969 33.332031 "/>
<path style=" stroke:none;fill-rule:nonzero;fill:rgb(97.647059%,85.882354%,61.960787%);fill-opacity:1;" d="M 39.0625 29.6875 C 39.578125 29.945312 39.578125 29.945312 40.105469 30.207031 C 39.589844 30.464844 39.589844 30.464844 39.0625 30.730469 C 39.0625 30.386719 39.0625 30.042969 39.0625 29.6875 Z M 37.5 31.25 C 37.84375 31.25 38.1875 31.25 38.542969 31.25 C 38.199219 32.109375 37.855469 32.96875 37.5 33.855469 C 37.15625 33.855469 36.8125 33.855469 36.457031 33.855469 C 36.914062 31.835938 36.914062 31.835938 37.5 31.25 Z M 37.5 31.25 "/>
</g>
</svg>
