<?xml version="1.0" encoding="UTF-8"?>
<svg xmlns="http://www.w3.org/2000/svg" xmlns:xlink="http://www.w3.org/1999/xlink" width="50px" height="50px" viewBox="0 0 50 50" version="1.1">
<g id="surface1">
<path style=" stroke:none;fill-rule:evenodd;fill:rgb(96.078432%,96.470588%,96.470588%);fill-opacity:1;" d="M 16.148438 30 C 11.398438 30 7.5 26 7.5 21.300781 C 7.5 20.449219 7.648438 19.601562 7.851562 18.800781 C 8.851562 15.300781 12 12.800781 15.75 12.601562 C 17.648438 8.898438 21.5 6.5 25.601562 6.5 C 30.851562 6.5 35.398438 10.25 36.5 15.351562 C 40.148438 15.851562 43 18.851562 43 22.75 C 43 26.75 39.800781 30 35.75 30 Z M 16.148438 30 "/>
<path style="fill:none;stroke-width:3;stroke-linecap:butt;stroke-linejoin:miter;stroke:rgb(73.333335%,75.294119%,76.862746%);stroke-opacity:1;stroke-miterlimit:4;" d="M 17.296875 45.5 L 56.5 45.5 C 63.703125 45.5 69.5 39.703125 69.5 32.5 C 69.5 25.703125 64.5 20.101562 57.703125 19.203125 L 56.703125 19.203125 L 56.398438 18 C 54.398438 8.5 46 1.5 36.203125 1.5 C 28.5 1.5 21.398438 6 17.796875 13 L 17.398438 13.703125 L 16.398438 13.703125 C 10 14 4.203125 18.703125 2.398438 25 C 1.796875 26.5 1.601562 28 1.601562 29.601562 C 1.601562 38.296875 8.601562 45.601562 17.398438 45.601562 Z M 17.296875 45.5 " transform="matrix(0.5,0,0,0.5,7.5,6.5)"/>
<path style="fill-rule:evenodd;fill:rgb(84.705883%,84.705883%,84.705883%);fill-opacity:1;stroke-width:2;stroke-linecap:round;stroke-linejoin:miter;stroke:rgb(37.64706%,69.01961%,92.941177%);stroke-opacity:1;stroke-miterlimit:4;" d="M 59 79 L 67 85 M 58.5 84.296875 L 67.101562 79.296875 " transform="matrix(0.5,0,0,0.5,0,0)"/>
<path style="fill:none;stroke-width:2;stroke-linecap:round;stroke-linejoin:miter;stroke:rgb(37.64706%,69.01961%,92.941177%);stroke-opacity:1;stroke-miterlimit:4;" d="M 63 77 L 63 87 " transform="matrix(0.5,0,0,0.5,0,0)"/>
<path style="fill-rule:evenodd;fill:rgb(84.705883%,84.705883%,84.705883%);fill-opacity:1;stroke-width:2;stroke-linecap:round;stroke-linejoin:miter;stroke:rgb(37.64706%,69.01961%,92.941177%);stroke-opacity:1;stroke-miterlimit:4;" d="M 37 79 L 45 85 M 36.5 84.296875 L 45.101562 79.296875 " transform="matrix(0.5,0,0,0.5,0,0)"/>
<path style="fill:none;stroke-width:2;stroke-linecap:round;stroke-linejoin:miter;stroke:rgb(37.64706%,69.01961%,92.941177%);stroke-opacity:1;stroke-miterlimit:4;" d="M 41 77 L 41 87 " transform="matrix(0.5,0,0,0.5,0,0)"/>
<path style="fill-rule:evenodd;fill:rgb(84.705883%,84.705883%,84.705883%);fill-opacity:1;stroke-width:2;stroke-linecap:round;stroke-linejoin:miter;stroke:rgb(37.64706%,69.01961%,92.941177%);stroke-opacity:1;stroke-miterlimit:4;" d="M 71 66 L 79 72 M 70.5 71.296875 L 79.101562 66.296875 " transform="matrix(0.5,0,0,0.5,0,0)"/>
<path style="fill:none;stroke-width:2;stroke-linecap:round;stroke-linejoin:miter;stroke:rgb(37.64706%,69.01961%,92.941177%);stroke-opacity:1;stroke-miterlimit:4;" d="M 75 64 L 75 74 " transform="matrix(0.5,0,0,0.5,0,0)"/>
<path style="fill-rule:evenodd;fill:rgb(84.705883%,84.705883%,84.705883%);fill-opacity:1;stroke-width:2;stroke-linecap:round;stroke-linejoin:miter;stroke:rgb(37.64706%,69.01961%,92.941177%);stroke-opacity:1;stroke-miterlimit:4;" d="M 49 66 L 57 72 M 48.5 71.296875 L 57.101562 66.296875 " transform="matrix(0.5,0,0,0.5,0,0)"/>
<path style="fill:none;stroke-width:2;stroke-linecap:round;stroke-linejoin:miter;stroke:rgb(37.64706%,69.01961%,92.941177%);stroke-opacity:1;stroke-miterlimit:4;" d="M 53 64 L 53 74 " transform="matrix(0.5,0,0,0.5,0,0)"/>
<path style="fill-rule:evenodd;fill:rgb(84.705883%,84.705883%,84.705883%);fill-opacity:1;stroke-width:2;stroke-linecap:round;stroke-linejoin:miter;stroke:rgb(37.64706%,69.01961%,92.941177%);stroke-opacity:1;stroke-miterlimit:4;" d="M 26 66 L 34 72 M 25.5 71.296875 L 34.101562 66.296875 " transform="matrix(0.5,0,0,0.5,0,0)"/>
<path style="fill:none;stroke-width:2;stroke-linecap:round;stroke-linejoin:miter;stroke:rgb(37.64706%,69.01961%,92.941177%);stroke-opacity:1;stroke-miterlimit:4;" d="M 30 64 L 30 74 " transform="matrix(0.5,0,0,0.5,0,0)"/>
</g>
</svg>
