<?xml version="1.0" encoding="UTF-8"?>
<svg xmlns="http://www.w3.org/2000/svg" xmlns:xlink="http://www.w3.org/1999/xlink" width="50px" height="50px" viewBox="0 0 50 50" version="1.1">
<g id="surface1">
<path style=" stroke:none;fill-rule:nonzero;fill:rgb(99.215686%,91.37255%,70.19608%);fill-opacity:1;" d="M 33.730469 7.574219 C 38.566406 10.722656 42.222656 14.691406 43.75 20.3125 C 44.386719 26.074219 44.203125 31.523438 40.632812 36.273438 C 37.457031 40.019531 33.71875 43.304688 28.640625 43.867188 C 22.183594 44.207031 17.417969 43.761719 12.335938 39.453125 C 8.847656 36.117188 6.335938 32.464844 6.074219 27.515625 C 5.9375 20.582031 6.847656 16.207031 11.785156 11.042969 C 17.421875 5.8125 26.648438 4.113281 33.730469 7.574219 Z M 33.730469 7.574219 "/>
<path style=" stroke:none;fill-rule:nonzero;fill:rgb(48.235294%,47.450981%,52.156866%);fill-opacity:1;" d="M 25 6.25 C 31.277344 6.25 34.445312 7.46875 38.957031 11.785156 C 43.308594 16.476562 44.058594 21.199219 43.90625 27.382812 C 43.625 32.882812 40.945312 36.425781 36.980469 40.105469 C 33.050781 43.148438 30.066406 43.75 25 43.75 C 25 31.375 25 19 25 6.25 Z M 25 6.25 "/>
<path style=" stroke:none;fill-rule:nonzero;fill:rgb(41.960785%,41.568628%,45.882353%);fill-opacity:1;" d="M 34.246094 23.535156 C 35.9375 23.957031 35.9375 23.957031 37.175781 25.066406 C 38.5 27.410156 38.664062 28.957031 38.214844 31.609375 C 37.402344 33.566406 36.796875 34.046875 34.894531 34.894531 C 36.085938 35.492188 36.765625 35.46875 38.085938 35.449219 C 39.085938 35.433594 39.085938 35.433594 40.105469 35.417969 C 39.734375 37.960938 38.128906 39.074219 36.25 40.671875 C 32.457031 43.457031 29.769531 43.75 25 43.75 C 25 40.3125 25 36.875 25 33.332031 C 25.859375 33.332031 26.71875 33.332031 27.605469 33.332031 C 27.910156 31.988281 28.136719 30.859375 28.023438 29.476562 C 28.191406 27.25 29.5625 26.269531 31.128906 24.804688 C 32.292969 23.957031 32.292969 23.957031 34.246094 23.535156 Z M 34.246094 23.535156 "/>
<path style=" stroke:none;fill-rule:nonzero;fill:rgb(98.039216%,85.490197%,58.431375%);fill-opacity:1;" d="M 22.917969 25 C 23.261719 25.171875 23.605469 25.34375 23.957031 25.519531 C 23.957031 25.863281 23.957031 26.207031 23.957031 26.5625 C 24.300781 26.5625 24.644531 26.5625 25 26.5625 C 25 32.234375 25 37.90625 25 43.75 C 18.699219 43.75 15.363281 42.421875 10.9375 38.019531 C 11.195312 37.246094 11.195312 37.246094 11.457031 36.457031 C 11.800781 36.972656 12.144531 37.488281 12.5 38.019531 C 13.828125 38.648438 13.828125 38.648438 15.105469 39.0625 C 15.105469 39.40625 15.105469 39.75 15.105469 40.105469 C 15.597656 40.265625 16.09375 40.425781 16.601562 40.59375 C 18.230469 41.144531 18.230469 41.144531 19.269531 41.667969 C 18.839844 41.34375 18.410156 41.023438 17.96875 40.691406 C 17.539062 40.324219 17.109375 39.960938 16.667969 39.582031 C 16.667969 39.238281 16.667969 38.894531 16.667969 38.542969 C 16.324219 38.542969 15.980469 38.542969 15.625 38.542969 C 15.625 38.199219 15.625 37.855469 15.625 37.5 C 15.109375 37.5 14.59375 37.5 14.0625 37.5 C 13.117188 36.621094 13.117188 36.621094 12.5 35.417969 C 12.921875 33.984375 12.921875 33.984375 13.542969 32.8125 C 14.832031 33.328125 14.832031 33.328125 16.144531 33.855469 C 15.207031 32.152344 14.667969 31.308594 13.019531 30.207031 C 13.019531 29.863281 13.019531 29.519531 13.019531 29.167969 C 13.363281 29.167969 13.707031 29.167969 14.0625 29.167969 C 14.234375 28.480469 14.40625 27.792969 14.582031 27.082031 C 17.289062 26.488281 17.289062 26.488281 18.75 26.5625 C 20.3125 27.832031 20.3125 27.832031 21.355469 29.167969 C 21.527344 28.652344 21.699219 28.136719 21.875 27.605469 C 22.21875 27.605469 22.5625 27.605469 22.917969 27.605469 C 22.917969 26.746094 22.917969 25.886719 22.917969 25 Z M 22.917969 25 "/>
<path style=" stroke:none;fill-rule:nonzero;fill:rgb(96.470588%,81.960785%,55.29412%);fill-opacity:1;" d="M 25 6.25 C 25.027344 7.007812 25.046875 7.769531 25.066406 8.527344 C 25.078125 8.953125 25.089844 9.375 25.101562 9.808594 C 25 10.9375 25 10.9375 23.957031 11.980469 C 22.332031 12.042969 22.332031 12.042969 20.832031 11.980469 C 20.832031 11.636719 20.832031 11.292969 20.832031 10.9375 C 18.417969 10.9375 17.019531 11.65625 15.105469 13.019531 C 13.941406 14.148438 13.941406 14.148438 13.019531 15.625 C 12.789062 15.964844 12.554688 16.300781 12.316406 16.648438 C 10.664062 19.273438 10.152344 21.199219 10.375 24.292969 C 10.421875 25.65625 10.171875 26.789062 9.894531 28.125 C 9.78125 29.394531 9.6875 30.664062 9.601562 31.933594 C 9.558594 32.585938 9.515625 33.238281 9.46875 33.914062 C 9.4375 34.410156 9.40625 34.90625 9.375 35.417969 C 7.035156 33.285156 6.210938 30.5 6.023438 27.414062 C 6.011719 26.628906 6.011719 25.847656 6.023438 25.066406 C 6.027344 24.652344 6.03125 24.242188 6.039062 23.816406 C 6.203125 18.34375 8.007812 14.996094 11.785156 11.042969 C 15.757812 7.359375 19.628906 6.035156 25 6.25 Z M 25 6.25 "/>
<path style=" stroke:none;fill-rule:nonzero;fill:rgb(94.509804%,75.294119%,45.09804%);fill-opacity:1;" d="M 25 6.25 C 25 6.59375 25 6.9375 25 7.292969 C 24.710938 7.347656 24.421875 7.40625 24.121094 7.464844 C 22.84375 7.730469 21.578125 8.023438 20.3125 8.332031 C 19.789062 8.457031 19.789062 8.457031 19.257812 8.585938 C 15.511719 9.71875 12.320312 12.515625 10.164062 15.742188 C 8.667969 18.648438 8.253906 21.050781 8.234375 24.285156 C 8.226562 24.882812 8.222656 25.480469 8.214844 26.09375 C 8.175781 27.671875 8.175781 27.671875 9.375 28.644531 C 9.476562 30.230469 9.476562 30.230469 9.441406 32.097656 C 9.429688 32.714844 9.421875 33.335938 9.410156 33.972656 C 9.394531 34.6875 9.394531 34.6875 9.375 35.417969 C 7.035156 33.285156 6.210938 30.5 6.023438 27.414062 C 6.011719 26.628906 6.011719 25.847656 6.023438 25.066406 C 6.027344 24.652344 6.03125 24.242188 6.039062 23.816406 C 6.203125 18.34375 8.007812 14.996094 11.785156 11.042969 C 15.757812 7.359375 19.628906 6.035156 25 6.25 Z M 25 6.25 "/>
<path style=" stroke:none;fill-rule:nonzero;fill:rgb(50.980395%,50.196081%,54.901963%);fill-opacity:1;" d="M 26.5625 11.980469 C 27.605469 12.5 28.644531 13.019531 29.6875 13.542969 C 29.34375 14.574219 29 15.605469 28.644531 16.667969 C 29.097656 16.546875 29.546875 16.429688 30.011719 16.308594 C 32.125 16.113281 33.101562 16.640625 34.894531 17.707031 C 34.640625 21.636719 34.640625 21.636719 33.464844 22.6875 C 32.011719 22.972656 31.089844 22.875 29.6875 22.394531 C 28.675781 20.875 28.410156 19.988281 28.125 18.230469 C 27.707031 18.488281 27.289062 18.746094 26.855469 19.011719 C 25.519531 19.792969 25.519531 19.792969 25 19.792969 C 24.957031 18.683594 24.925781 17.578125 24.902344 16.472656 C 24.882812 15.855469 24.867188 15.238281 24.847656 14.605469 C 24.898438 14.082031 24.949219 13.558594 25 13.019531 C 25.515625 12.675781 26.03125 12.332031 26.5625 11.980469 Z M 26.5625 11.980469 "/>
<path style=" stroke:none;fill-rule:nonzero;fill:rgb(38.82353%,37.254903%,41.176471%);fill-opacity:1;" d="M 25 6.25 C 29.398438 5.964844 32.777344 6.921875 36.457031 9.375 C 36.285156 9.890625 36.113281 10.40625 35.9375 10.9375 C 34.839844 10.964844 33.746094 10.984375 32.648438 11.003906 C 31.734375 11.019531 31.734375 11.019531 30.800781 11.039062 C 29.167969 10.9375 29.167969 10.9375 27.605469 9.894531 C 27.605469 9.378906 27.605469 8.863281 27.605469 8.332031 C 26.746094 8.332031 25.886719 8.332031 25 8.332031 C 25 7.644531 25 6.957031 25 6.25 Z M 25 6.25 "/>
<path style=" stroke:none;fill-rule:nonzero;fill:rgb(94.509804%,74.117649%,43.529412%);fill-opacity:1;" d="M 10.9375 36.457031 C 11.140625 36.695312 11.34375 36.929688 11.554688 37.175781 C 12.660156 38.164062 13.714844 38.574219 15.105469 39.0625 C 15.105469 39.40625 15.105469 39.75 15.105469 40.105469 C 15.597656 40.265625 16.09375 40.425781 16.601562 40.59375 C 18.230469 41.144531 18.230469 41.144531 19.269531 41.667969 C 18.925781 41.289062 18.582031 40.914062 18.230469 40.527344 C 17.109375 38.949219 16.972656 38.335938 17.1875 36.457031 C 18.230469 38.019531 18.230469 38.019531 18.75 39.0625 C 19.4375 39.0625 20.125 39.0625 20.832031 39.0625 C 21.722656 39.910156 22.589844 40.777344 23.4375 41.667969 C 23.953125 41.839844 24.46875 42.011719 25 42.1875 C 25 42.703125 25 43.21875 25 43.75 C 20.125 44.0625 16.480469 42.960938 12.695312 39.8125 C 11.664062 38.898438 11.664062 38.898438 10.9375 38.019531 C 10.9375 37.503906 10.9375 36.988281 10.9375 36.457031 Z M 10.9375 36.457031 "/>
<path style=" stroke:none;fill-rule:nonzero;fill:rgb(32.156864%,30.19608%,31.764707%);fill-opacity:1;" d="M 36.457031 35.417969 C 37.660156 35.417969 38.863281 35.417969 40.105469 35.417969 C 39.691406 38.394531 37.15625 39.945312 34.894531 41.667969 C 32.878906 42.875 31.015625 43.445312 28.644531 43.230469 C 28.472656 42.886719 28.300781 42.542969 28.125 42.1875 C 28.640625 42.015625 29.15625 41.84375 29.6875 41.667969 C 32.4375 40.503906 35.117188 38.101562 36.457031 35.417969 Z M 36.457031 35.417969 "/>
<path style=" stroke:none;fill-rule:nonzero;fill:rgb(53.333336%,52.941179%,57.647061%);fill-opacity:1;" d="M 26.5625 11.980469 C 27.605469 12.5 28.644531 13.019531 29.6875 13.542969 C 29.34375 14.574219 29 15.605469 28.644531 16.667969 C 28.988281 16.839844 29.332031 17.011719 29.6875 17.1875 C 29.171875 17.960938 29.171875 17.960938 28.644531 18.75 C 28.300781 18.75 27.957031 18.75 27.605469 18.75 C 26.730469 19.082031 25.863281 19.429688 25 19.792969 C 24.957031 18.683594 24.925781 17.578125 24.902344 16.472656 C 24.882812 15.855469 24.867188 15.238281 24.847656 14.605469 C 24.898438 14.082031 24.949219 13.558594 25 13.019531 C 25.515625 12.675781 26.03125 12.332031 26.5625 11.980469 Z M 26.5625 11.980469 "/>
<path style=" stroke:none;fill-rule:nonzero;fill:rgb(97.647059%,86.666667%,62.7451%);fill-opacity:1;" d="M 18.75 10.417969 C 16.144531 12.5 16.144531 12.5 14.875 13.3125 C 12.53125 15.542969 10.625 18.46875 10.257812 21.734375 C 10.277344 22.609375 10.316406 23.484375 10.375 24.355469 C 10.429688 25.9375 9.984375 27.199219 9.375 28.644531 C 7.769531 26.203125 8.53125 23.855469 8.980469 21.117188 C 9.914062 16.738281 11.640625 13.804688 15.105469 10.9375 C 16.386719 10.296875 17.332031 10.378906 18.75 10.417969 Z M 18.75 10.417969 "/>
<path style=" stroke:none;fill-rule:nonzero;fill:rgb(39.607844%,37.64706%,40.392157%);fill-opacity:1;" d="M 41.144531 16.144531 C 41.488281 16.144531 41.832031 16.144531 42.1875 16.144531 C 43.917969 19.824219 43.914062 23.058594 43.75 27.082031 C 42.890625 27.253906 42.03125 27.425781 41.144531 27.605469 C 41.316406 27.3125 41.488281 27.023438 41.667969 26.726562 C 42.253906 25.363281 42.269531 24.386719 42.1875 22.917969 C 41.84375 22.917969 41.5 22.917969 41.144531 22.917969 C 41.144531 20.683594 41.144531 18.449219 41.144531 16.144531 Z M 41.144531 16.144531 "/>
<path style=" stroke:none;fill-rule:nonzero;fill:rgb(41.960785%,40.000001%,42.352942%);fill-opacity:1;" d="M 31.25 7.292969 C 33.3125 7.585938 34.722656 8.234375 36.457031 9.375 C 36.285156 9.890625 36.113281 10.40625 35.9375 10.9375 C 34.84375 10.980469 33.746094 11.011719 32.648438 11.035156 C 32.039062 11.054688 31.429688 11.070312 30.800781 11.089844 C 29.167969 10.9375 29.167969 10.9375 28.167969 10.148438 C 27.980469 9.894531 27.796875 9.636719 27.605469 9.375 C 28.636719 9.375 29.667969 9.375 30.730469 9.375 C 30.902344 8.6875 31.074219 8 31.25 7.292969 Z M 31.25 7.292969 "/>
<path style=" stroke:none;fill-rule:nonzero;fill:rgb(95.294118%,78.431374%,50.588238%);fill-opacity:1;" d="M 17.1875 36.457031 C 18.230469 38.019531 18.230469 38.019531 18.75 39.0625 C 19.4375 39.0625 20.125 39.0625 20.832031 39.0625 C 21.875 40.625 21.875 40.625 21.679688 41.765625 C 21.570312 42.074219 21.464844 42.386719 21.355469 42.707031 C 19.371094 41.929688 18.34375 40.839844 17.1875 39.0625 C 17.058594 37.597656 17.058594 37.597656 17.1875 36.457031 Z M 17.1875 36.457031 "/>
<path style=" stroke:none;fill-rule:nonzero;fill:rgb(95.294118%,77.64706%,48.627451%);fill-opacity:1;" d="M 17.1875 8.332031 C 17.53125 8.503906 17.875 8.675781 18.230469 8.855469 C 17.933594 9.03125 17.636719 9.207031 17.332031 9.390625 C 13.699219 11.671875 10.066406 14.4375 8.855469 18.75 C 8.339844 17.144531 8.273438 16.171875 8.855469 14.582031 C 9.726562 13.65625 9.726562 13.65625 10.808594 12.761719 C 11.183594 12.449219 11.558594 12.132812 11.945312 11.8125 C 12.300781 11.523438 12.65625 11.234375 13.019531 10.9375 C 13.503906 10.53125 13.988281 10.121094 14.484375 9.699219 C 15.625 8.855469 15.625 8.855469 17.1875 8.332031 Z M 17.1875 8.332031 "/>
<path style=" stroke:none;fill-rule:nonzero;fill:rgb(97.254902%,88.627452%,62.7451%);fill-opacity:1;" d="M 24.480469 12.5 C 24.652344 12.5 24.824219 12.5 25 12.5 C 25 14.5625 25 16.625 25 18.75 C 23.9375 17.910156 22.894531 17.039062 21.875 16.144531 C 21.875 15.800781 21.875 15.457031 21.875 15.105469 C 22.5625 14.933594 23.25 14.761719 23.957031 14.582031 C 24.128906 13.894531 24.300781 13.207031 24.480469 12.5 Z M 24.480469 12.5 "/>
<path style=" stroke:none;fill-rule:nonzero;fill:rgb(99.215686%,87.058824%,60.784316%);fill-opacity:1;" d="M 24.480469 7.8125 C 24.652344 7.8125 24.824219 7.8125 25 7.8125 C 25.066406 9.308594 25.066406 9.308594 25 10.9375 C 23.957031 11.980469 23.957031 11.980469 22.332031 12.042969 C 21.835938 12.023438 21.34375 12 20.832031 11.980469 C 20.832031 11.636719 20.832031 11.292969 20.832031 10.9375 C 20.488281 10.765625 20.144531 10.59375 19.792969 10.417969 C 21.339844 10.074219 22.886719 9.730469 24.480469 9.375 C 24.480469 8.859375 24.480469 8.34375 24.480469 7.8125 Z M 24.480469 7.8125 "/>
<path style=" stroke:none;fill-rule:nonzero;fill:rgb(27.058825%,26.666668%,30.980393%);fill-opacity:1;" d="M 38.542969 35.9375 C 37.765625 37.914062 36.585938 38.859375 34.894531 40.105469 C 34.550781 39.933594 34.207031 39.761719 33.855469 39.582031 C 34.4375 38.972656 35.023438 38.367188 35.613281 37.761719 C 36.101562 37.253906 36.101562 37.253906 36.601562 36.734375 C 37.5 35.9375 37.5 35.9375 38.542969 35.9375 Z M 32.8125 40.105469 C 33.15625 40.105469 33.5 40.105469 33.855469 40.105469 C 33.855469 40.621094 33.855469 41.136719 33.855469 41.667969 C 33.339844 41.496094 32.824219 41.324219 32.292969 41.144531 C 32.464844 40.800781 32.636719 40.457031 32.8125 40.105469 Z M 32.8125 40.105469 "/>
<path style=" stroke:none;fill-rule:nonzero;fill:rgb(50.980395%,50.588238%,55.29412%);fill-opacity:1;" d="M 25 26.042969 C 25.859375 26.042969 26.71875 26.042969 27.605469 26.042969 C 26.953125 27.84375 26.210938 29.242188 25 30.730469 C 25 29.183594 25 27.636719 25 26.042969 Z M 25 26.042969 "/>
<path style=" stroke:none;fill-rule:nonzero;fill:rgb(39.215687%,36.078432%,38.431373%);fill-opacity:1;" d="M 25 42.1875 C 28.515625 42.578125 28.515625 42.578125 29.6875 43.75 C 28.140625 43.75 26.59375 43.75 25 43.75 C 25 43.234375 25 42.71875 25 42.1875 Z M 25 42.1875 "/>
</g>
</svg>
