<?xml version="1.0" encoding="UTF-8"?>
<svg xmlns="http://www.w3.org/2000/svg" xmlns:xlink="http://www.w3.org/1999/xlink" width="50px" height="50px" viewBox="0 0 50 50" version="1.1">
<g id="surface1">
<path style=" stroke:none;fill-rule:nonzero;fill:rgb(45.09804%,44.705883%,49.803922%);fill-opacity:1;" d="M 33.730469 7.574219 C 38.566406 10.722656 42.222656 14.691406 43.75 20.3125 C 44.386719 26.074219 44.203125 31.523438 40.632812 36.273438 C 37.457031 40.019531 33.71875 43.304688 28.640625 43.867188 C 22.183594 44.207031 17.417969 43.761719 12.335938 39.453125 C 8.847656 36.117188 6.335938 32.464844 6.074219 27.515625 C 5.9375 20.582031 6.847656 16.207031 11.785156 11.042969 C 17.421875 5.8125 26.648438 4.113281 33.730469 7.574219 Z M 33.730469 7.574219 "/>
<path style=" stroke:none;fill-rule:nonzero;fill:rgb(38.431373%,38.431373%,43.529412%);fill-opacity:1;" d="M 33.824219 7.660156 C 35.582031 8.761719 37.042969 10.023438 38.542969 11.457031 C 38.199219 11.800781 37.855469 12.144531 37.5 12.5 C 37.136719 12.242188 36.769531 11.984375 36.394531 11.71875 C 34.695312 10.832031 33.652344 10.851562 31.769531 10.9375 C 31.511719 10.679688 31.511719 10.679688 31.25 10.417969 C 30.203125 10.210938 29.148438 10.03125 28.09375 9.863281 C 27.230469 9.726562 27.230469 9.726562 26.347656 9.585938 C 25.902344 9.515625 25.457031 9.445312 25 9.375 C 25.171875 8.859375 25.34375 8.34375 25.519531 7.8125 C 24.488281 7.8125 23.457031 7.8125 22.394531 7.8125 C 22.394531 8.5 22.394531 9.1875 22.394531 9.894531 C 20.832031 10.9375 20.832031 10.9375 19.171875 10.773438 C 16.28125 11.011719 14.996094 12.582031 13.019531 14.582031 C 12.574219 14.964844 12.128906 15.347656 11.667969 15.738281 C 10.074219 17.582031 9.695312 19.171875 9.210938 21.515625 C 9.125 21.902344 9.035156 22.289062 8.945312 22.6875 C 8.734375 23.628906 8.53125 24.574219 8.332031 25.519531 C 8.160156 25.519531 7.988281 25.519531 7.8125 25.519531 C 7.640625 24.660156 7.46875 23.800781 7.292969 22.917969 C 7.121094 24.808594 6.949219 26.699219 6.769531 28.644531 C 6.597656 28.644531 6.425781 28.644531 6.25 28.644531 C 5.960938 22.140625 6.148438 17.511719 10.546875 12.335938 C 16.480469 6.132812 25.824219 3.808594 33.824219 7.660156 Z M 33.824219 7.660156 "/>
<path style=" stroke:none;fill-rule:nonzero;fill:rgb(53.333336%,52.941179%,58.039218%);fill-opacity:1;" d="M 26.042969 12.5 C 26.042969 13.1875 26.042969 13.875 26.042969 14.582031 C 26.730469 14.753906 27.417969 14.925781 28.125 15.105469 C 27.476562 17.105469 26.910156 18.289062 25 19.269531 C 23.59375 19.136719 22.613281 18.859375 21.355469 18.230469 C 21.386719 18.710938 21.417969 19.195312 21.453125 19.695312 C 21.355469 21.355469 21.355469 21.355469 20.800781 22.363281 C 19.207031 23.238281 17.867188 22.753906 16.144531 22.394531 C 15.105469 18.878906 15.105469 18.878906 15.105469 17.707031 C 17.914062 16.109375 17.914062 16.109375 19.402344 16.277344 C 20.0625 16.558594 20.710938 16.867188 21.355469 17.1875 C 21.011719 15.984375 20.667969 14.78125 20.3125 13.542969 C 22.410156 12 23.527344 11.855469 26.042969 12.5 Z M 26.042969 12.5 "/>
<path style=" stroke:none;fill-rule:nonzero;fill:rgb(31.37255%,31.37255%,37.254903%);fill-opacity:1;" d="M 33.824219 7.660156 C 35.582031 8.761719 37.042969 10.023438 38.542969 11.457031 C 38.199219 11.800781 37.855469 12.144531 37.5 12.5 C 37.136719 12.242188 36.769531 11.984375 36.394531 11.71875 C 34.945312 10.8125 34.945312 10.8125 33.332031 10.96875 C 31.320312 10.929688 30.601562 10.203125 29.167969 8.855469 C 29.339844 8.683594 29.511719 8.511719 29.6875 8.332031 C 27.90625 7.738281 26.515625 7.761719 24.640625 7.78125 C 24.027344 7.785156 23.414062 7.789062 22.78125 7.792969 C 22.308594 7.800781 21.839844 7.804688 21.355469 7.8125 C 21.355469 8.328125 21.355469 8.84375 21.355469 9.375 C 20.324219 9.546875 19.292969 9.71875 18.230469 9.894531 C 18.230469 9.550781 18.230469 9.207031 18.230469 8.855469 C 17.371094 8.855469 16.511719 8.855469 15.625 8.855469 C 19.28125 4.382812 29.164062 5.417969 33.824219 7.660156 Z M 33.824219 7.660156 "/>
<path style=" stroke:none;fill-rule:nonzero;fill:rgb(50.588238%,50.196081%,54.901963%);fill-opacity:1;" d="M 19.402344 16.210938 C 20.3125 16.667969 20.3125 16.667969 21.355469 18.230469 C 21.523438 19.851562 21.59375 20.917969 20.800781 22.363281 C 19.207031 23.238281 17.867188 22.753906 16.144531 22.394531 C 15.105469 18.878906 15.105469 18.878906 15.105469 17.707031 C 17.886719 16.125 17.886719 16.125 19.402344 16.210938 Z M 19.402344 16.210938 "/>
<path style=" stroke:none;fill-rule:nonzero;fill:rgb(30.980393%,30.588236%,37.254903%);fill-opacity:1;" d="M 14.582031 8.855469 C 14.582031 9.371094 14.582031 9.886719 14.582031 10.417969 C 14.101562 10.59375 14.101562 10.59375 13.605469 10.773438 C 12.128906 11.6875 12.027344 12.429688 11.457031 14.0625 C 11.140625 14.730469 10.816406 15.390625 10.480469 16.046875 C 10.300781 16.410156 10.125 16.769531 9.9375 17.140625 C 9.578125 17.839844 9.195312 18.527344 8.796875 19.203125 C 7.058594 22.238281 6.886719 25.191406 6.769531 28.644531 C 6.597656 28.644531 6.425781 28.644531 6.25 28.644531 C 5.953125 22.03125 6.160156 17.441406 10.710938 12.238281 C 11.96875 10.898438 13.050781 9.875 14.582031 8.855469 Z M 14.582031 8.855469 "/>
<path style=" stroke:none;fill-rule:nonzero;fill:rgb(28.627452%,28.235295%,32.941177%);fill-opacity:1;" d="M 10.417969 35.417969 C 12.136719 35.589844 13.855469 35.761719 15.625 35.9375 C 15.796875 37.828125 15.96875 39.71875 16.144531 41.667969 C 13.867188 40.753906 13.125 40.398438 11.554688 38.738281 C 11.242188 38.40625 10.925781 38.078125 10.601562 37.738281 C 10.367188 37.488281 10.136719 37.238281 9.894531 36.980469 C 10.066406 36.464844 10.238281 35.949219 10.417969 35.417969 Z M 10.417969 35.417969 "/>
<path style=" stroke:none;fill-rule:nonzero;fill:rgb(35.686275%,35.294119%,41.176471%);fill-opacity:1;" d="M 21.875 6.769531 C 22.9375 6.742188 24 6.722656 25.066406 6.707031 C 25.953125 6.6875 25.953125 6.6875 26.859375 6.667969 C 28.675781 6.773438 30.082031 7.160156 31.769531 7.8125 C 31.769531 8.15625 31.769531 8.5 31.769531 8.855469 C 32.210938 8.703125 32.652344 8.554688 33.105469 8.398438 C 35.164062 8.324219 35.421875 8.566406 36.914062 9.863281 C 37.464844 10.386719 38.011719 10.914062 38.542969 11.457031 C 38.199219 11.800781 37.855469 12.144531 37.5 12.5 C 37.132812 12.242188 36.769531 11.984375 36.394531 11.71875 C 34.945312 10.8125 34.945312 10.8125 33.332031 10.96875 C 31.320312 10.929688 30.601562 10.203125 29.167969 8.855469 C 29.339844 8.683594 29.511719 8.511719 29.6875 8.332031 C 28.039062 7.785156 26.628906 7.648438 24.902344 7.519531 C 24.335938 7.476562 23.769531 7.433594 23.1875 7.386719 C 22.753906 7.355469 22.320312 7.324219 21.875 7.292969 C 21.875 7.121094 21.875 6.949219 21.875 6.769531 Z M 21.875 6.769531 "/>
<path style=" stroke:none;fill-rule:nonzero;fill:rgb(33.333334%,32.941177%,39.215687%);fill-opacity:1;" d="M 10.9375 13.019531 C 11.28125 13.191406 11.625 13.363281 11.980469 13.542969 C 11.292969 14.230469 10.605469 14.917969 9.894531 15.625 C 10.351562 13.605469 10.351562 13.605469 10.9375 13.019531 Z M 8.332031 16.667969 C 8.675781 16.667969 9.019531 16.667969 9.375 16.667969 C 9.148438 18.195312 8.859375 19.257812 8.074219 20.605469 C 6.933594 23.214844 6.902344 25.828125 6.769531 28.644531 C 6.597656 28.644531 6.425781 28.644531 6.25 28.644531 C 6.25 25.894531 6.25 23.144531 6.25 20.3125 C 6.59375 20.3125 6.9375 20.3125 7.292969 20.3125 C 7.636719 19.109375 7.980469 17.90625 8.332031 16.667969 Z M 8.332031 16.667969 "/>
<path style=" stroke:none;fill-rule:nonzero;fill:rgb(34.901962%,34.509805%,40.000001%);fill-opacity:1;" d="M 21.355469 7.8125 C 21.355469 8.328125 21.355469 8.84375 21.355469 9.375 C 20.324219 9.546875 19.292969 9.71875 18.230469 9.894531 C 18.230469 9.550781 18.230469 9.207031 18.230469 8.855469 C 17.714844 8.683594 17.199219 8.511719 16.667969 8.332031 C 18.453125 7.492188 19.46875 7.113281 21.355469 7.8125 Z M 21.355469 7.8125 "/>
<path style=" stroke:none;fill-rule:nonzero;fill:rgb(25.490198%,25.490198%,29.803923%);fill-opacity:1;" d="M 10.417969 35.9375 C 11.277344 35.9375 12.136719 35.9375 13.019531 35.9375 C 13.019531 37.140625 13.019531 38.34375 13.019531 39.582031 C 11.988281 38.722656 10.957031 37.863281 9.894531 36.980469 C 10.066406 36.636719 10.238281 36.292969 10.417969 35.9375 Z M 10.417969 35.9375 "/>
<path style=" stroke:none;fill-rule:nonzero;fill:rgb(42.352942%,41.960785%,47.450981%);fill-opacity:1;" d="M 16.667969 9.894531 C 17.011719 10.066406 17.355469 10.238281 17.707031 10.417969 C 16.863281 11.1875 16.015625 11.957031 15.167969 12.726562 C 14.699219 13.15625 14.226562 13.585938 13.742188 14.027344 C 12.5 15.105469 12.5 15.105469 11.457031 15.625 C 12.332031 13.558594 13.605469 12.0625 15.105469 10.417969 C 15.621094 10.246094 16.136719 10.074219 16.667969 9.894531 Z M 16.667969 9.894531 "/>
</g>
</svg>
