<?xml version="1.0" encoding="UTF-8"?>
<svg xmlns="http://www.w3.org/2000/svg" xmlns:xlink="http://www.w3.org/1999/xlink" width="50px" height="50px" viewBox="0 0 50 50" version="1.1">
<g id="surface1">
<path style="fill-rule:evenodd;fill:rgb(100%,82.352942%,45.882353%);fill-opacity:0.145098;stroke-width:3;stroke-linecap:butt;stroke-linejoin:miter;stroke:rgb(100%,82.352942%,45.882353%);stroke-opacity:1;stroke-miterlimit:4;" d="M 67.273438 70.523438 C 54.984375 77.617188 39.242188 73.359375 32.117188 61.015625 C 24.984375 48.664062 29.171875 32.898438 41.460938 25.804688 C 44.625 23.976562 46.609375 23.796875 46.609375 23.796875 C 49.28125 23.117188 50.820312 24.703125 50.117188 27.375 C 50.117188 27.375 48.460938 31.78125 48.484375 38.445312 C 48.492188 42.375 49.601562 46.382812 51.5625 49.78125 C 53.609375 53.328125 56.882812 56.671875 60.4375 58.671875 C 66.070312 61.859375 70.242188 62.390625 70.242188 62.390625 C 72.929688 63.015625 73.570312 65.148438 71.601562 67.085938 C 71.601562 67.085938 70.445312 68.695312 67.273438 70.523438 Z M 67.273438 70.523438 " transform="matrix(0.5,0,0,0.5,0,0)"/>
</g>
</svg>
