<?xml version="1.0" encoding="UTF-8"?>
<svg xmlns="http://www.w3.org/2000/svg" xmlns:xlink="http://www.w3.org/1999/xlink" width="50px" height="50px" viewBox="0 0 50 50" version="1.1">
<g id="surface1">
<path style=" stroke:none;fill-rule:evenodd;fill:rgb(96.078432%,96.470588%,96.470588%);fill-opacity:1;" d="M 16.148438 32 C 11.398438 32 7.5 28 7.5 23.300781 C 7.5 22.449219 7.648438 21.601562 7.851562 20.800781 C 8.851562 17.300781 12 14.800781 15.75 14.601562 C 17.648438 10.898438 21.5 8.5 25.601562 8.5 C 30.851562 8.5 35.398438 12.25 36.5 17.351562 C 40.148438 17.851562 43 20.851562 43 24.75 C 43 28.75 39.800781 32 35.75 32 Z M 16.148438 32 "/>
<path style="fill:none;stroke-width:3;stroke-linecap:butt;stroke-linejoin:miter;stroke:rgb(73.333335%,75.294119%,76.862746%);stroke-opacity:1;stroke-miterlimit:4;" d="M 17.296875 45.5 L 56.5 45.5 C 63.703125 45.5 69.5 39.703125 69.5 32.5 C 69.5 25.703125 64.5 20.101562 57.703125 19.203125 L 56.703125 19.203125 L 56.398438 18 C 54.398438 8.5 46 1.5 36.203125 1.5 C 28.5 1.5 21.398438 6 17.796875 13 L 17.398438 13.703125 L 16.398438 13.703125 C 10 14 4.203125 18.703125 2.398438 25 C 1.796875 26.5 1.601562 28 1.601562 29.601562 C 1.601562 38.296875 8.601562 45.601562 17.398438 45.601562 Z M 17.296875 45.5 " transform="matrix(0.5,0,0,0.5,7.5,8.5)"/>
<path style="fill:none;stroke-width:2.4;stroke-linecap:round;stroke-linejoin:miter;stroke:rgb(37.64706%,69.01961%,92.941177%);stroke-opacity:1;stroke-miterlimit:4;" d="M 30 72 L 27.5 78.5 M 45 69 L 41.5 78.5 M 59 72 L 55.5 81.5 M 74 69 L 71 77 M 38 68 L 33.5 81.5 M 53 68 L 48 83 M 67 69 L 62 84 " transform="matrix(0.5,0,0,0.5,0,0)"/>
</g>
</svg>
