<?xml version="1.0" encoding="UTF-8"?>
<svg xmlns="http://www.w3.org/2000/svg" xmlns:xlink="http://www.w3.org/1999/xlink" width="50px" height="50px" viewBox="0 0 50 50" version="1.1">
<g id="surface1">
<path style="fill-rule:evenodd;fill:rgb(100%,67.843139%,0%);fill-opacity:0.101961;stroke-width:2;stroke-linecap:round;stroke-linejoin:miter;stroke:rgb(100%,67.450982%,0%);stroke-opacity:1;stroke-miterlimit:4;" d="M 58 60 C 58.398438 59.398438 59 59 59.601562 59 L 65.398438 59 C 65.898438 59 66.203125 59.5 65.898438 60 L 59.898438 69.601562 L 59.898438 70 L 63.898438 70 C 64.101562 70 64.203125 70.398438 63.898438 70.796875 L 49.898438 86.796875 C 49.398438 87.101562 49.296875 87.101562 49.5 86.601562 L 55.101562 73.203125 C 55.101562 72.898438 55.101562 72.703125 54.796875 72.703125 L 51.796875 72.703125 L 51.796875 71.703125 Z M 58 60 " transform="matrix(0.5,0,0,0.5,0,0)"/>
<path style=" stroke:none;fill-rule:evenodd;fill:rgb(96.078432%,96.470588%,96.470588%);fill-opacity:1;" d="M 16.148438 30.5 C 11.398438 30.5 7.5 26.5 7.5 21.800781 C 7.5 20.949219 7.648438 20.101562 7.851562 19.300781 C 8.851562 15.800781 12 13.300781 15.75 13.101562 C 17.648438 9.398438 21.5 7 25.601562 7 C 30.851562 7 35.398438 10.75 36.5 15.851562 C 40.148438 16.351562 43 19.351562 43 23.25 C 43 27.25 39.800781 30.5 35.75 30.5 Z M 16.148438 30.5 "/>
<path style="fill:none;stroke-width:3;stroke-linecap:butt;stroke-linejoin:miter;stroke:rgb(73.333335%,75.294119%,76.862746%);stroke-opacity:1;stroke-miterlimit:4;" d="M 17.296875 45.5 L 56.5 45.5 C 63.703125 45.5 69.5 39.703125 69.5 32.5 C 69.5 25.703125 64.5 20.101562 57.703125 19.203125 L 56.703125 19.203125 L 56.398438 18 C 54.398438 8.5 46 1.5 36.203125 1.5 C 28.5 1.5 21.398438 6 17.796875 13 L 17.398438 13.703125 L 16.398438 13.703125 C 10 14 4.203125 18.703125 2.398438 25 C 1.796875 26.5 1.601562 28 1.601562 29.601562 C 1.601562 38.296875 8.601562 45.601562 17.398438 45.601562 Z M 17.296875 45.5 " transform="matrix(0.5,0,0,0.5,7.5,7)"/>
<path style="fill-rule:evenodd;fill:rgb(96.078432%,96.470588%,96.470588%);fill-opacity:1;stroke-width:3;stroke-linecap:butt;stroke-linejoin:miter;stroke:rgb(73.333335%,75.294119%,76.862746%);stroke-opacity:1;stroke-miterlimit:4;" d="M 48.5 44.601562 C 42.703125 44.601562 38 49.398438 38 55.296875 C 38 61 42.5 65.796875 48 66 L 76.203125 66 C 80.5 65.796875 84 62 84 57.703125 C 84 53.101562 80.296875 49.296875 75.796875 49.296875 L 75.296875 49.296875 C 74.296875 43.703125 69.796875 39.296875 64.101562 39 C 59.101562 39 55.101562 41.601562 53.101562 45.398438 C 52.101562 44.898438 50.703125 44.601562 49.101562 44.601562 Z M 48.5 44.601562 " transform="matrix(0.5,0,0,0.5,0,0)"/>
<path style="fill:none;stroke-width:2.4;stroke-linecap:round;stroke-linejoin:miter;stroke:rgb(37.64706%,69.01961%,92.941177%);stroke-opacity:1;stroke-miterlimit:4;" d="M 32 75 L 29.5 81.5 M 47 72 L 43.5 81.5 M 77 72 L 74 80 M 40 71 L 35.5 84.5 M 70 72 L 65 87 " transform="matrix(0.5,0,0,0.5,0,0)"/>
</g>
</svg>
