<?xml version="1.0" encoding="UTF-8"?>
<svg xmlns="http://www.w3.org/2000/svg" xmlns:xlink="http://www.w3.org/1999/xlink" width="50px" height="500px" viewBox="0 0 50 50" version="1.1">
<g id="surface1">
<path style=" stroke:none;fill-rule:nonzero;fill:rgb(99.607843%,63.529414%,0%);fill-opacity:1;" d="M 34.277344 22.65625 C 34.359375 22.722656 34.4375 22.792969 34.523438 22.863281 C 36.425781 24.5 37.742188 26.691406 38.511719 29.066406 C 38.546875 29.164062 38.546875 29.164062 38.582031 29.269531 C 38.816406 30.042969 38.929688 30.84375 39.0625 31.640625 C 39.15625 31.640625 39.15625 31.640625 39.253906 31.640625 C 39.914062 31.644531 40.574219 31.652344 41.234375 31.660156 C 41.484375 31.664062 41.730469 31.664062 41.976562 31.667969 C 42.328125 31.667969 42.683594 31.671875 43.039062 31.679688 C 43.203125 31.679688 43.203125 31.679688 43.371094 31.679688 C 44.148438 31.695312 44.605469 31.804688 45.160156 32.375 C 45.386719 32.878906 45.386719 33.34375 45.3125 33.886719 C 45.101562 34.324219 44.832031 34.59375 44.433594 34.863281 C 44.089844 34.980469 43.761719 34.972656 43.402344 34.972656 C 43.335938 34.972656 43.273438 34.972656 43.207031 34.972656 C 42.988281 34.976562 42.773438 34.976562 42.554688 34.976562 C 42.398438 34.976562 42.242188 34.976562 42.082031 34.976562 C 41.652344 34.976562 41.21875 34.976562 40.789062 34.976562 C 40.320312 34.976562 39.855469 34.976562 39.390625 34.976562 C 38.371094 34.980469 37.355469 34.980469 36.335938 34.980469 C 35.699219 34.980469 35.0625 34.980469 34.429688 34.980469 C 32.667969 34.984375 30.910156 34.984375 29.148438 34.984375 C 28.980469 34.984375 28.980469 34.984375 28.808594 34.984375 C 28.695312 34.984375 28.582031 34.984375 28.464844 34.984375 C 28.238281 34.984375 28.007812 34.984375 27.777344 34.984375 C 27.609375 34.984375 27.609375 34.984375 27.433594 34.984375 C 25.59375 34.984375 23.753906 34.988281 21.914062 34.988281 C 20.027344 34.992188 18.140625 34.992188 16.25 34.992188 C 15.191406 34.992188 14.132812 34.992188 13.070312 34.996094 C 12.167969 34.996094 11.265625 34.996094 10.363281 34.996094 C 9.902344 34.996094 9.441406 34.996094 8.980469 34.996094 C 8.558594 35 8.136719 35 7.714844 34.996094 C 7.5625 34.996094 7.410156 34.996094 7.257812 35 C 7.050781 35 6.84375 35 6.636719 34.996094 C 6.460938 34.996094 6.460938 34.996094 6.285156 34.996094 C 5.839844 34.949219 5.445312 34.820312 5.101562 34.519531 C 4.652344 33.910156 4.601562 33.46875 4.6875 32.714844 C 4.84375 32.324219 5.058594 32.109375 5.40625 31.878906 C 5.917969 31.675781 6.402344 31.691406 6.949219 31.6875 C 7.066406 31.6875 7.179688 31.683594 7.296875 31.683594 C 7.660156 31.675781 8.023438 31.675781 8.386719 31.671875 C 8.632812 31.667969 8.878906 31.664062 9.125 31.660156 C 9.730469 31.652344 10.332031 31.644531 10.9375 31.640625 C 10.953125 31.554688 10.953125 31.554688 10.96875 31.46875 C 11.015625 31.203125 11.066406 30.941406 11.113281 30.675781 C 11.136719 30.542969 11.136719 30.542969 11.164062 30.40625 C 11.59375 28.09375 12.664062 26.019531 14.160156 24.21875 C 14.230469 24.132812 14.230469 24.132812 14.304688 24.046875 C 16.355469 21.621094 19.183594 20.105469 22.265625 19.433594 C 22.371094 19.410156 22.480469 19.386719 22.589844 19.359375 C 26.753906 18.605469 31.121094 19.886719 34.277344 22.65625 Z M 34.277344 22.65625 "/>
<path style=" stroke:none;fill-rule:nonzero;fill:rgb(100%,73.333335%,0%);fill-opacity:1;" d="M 13.0625 37.949219 C 13.167969 37.949219 13.277344 37.949219 13.386719 37.949219 C 13.742188 37.949219 14.097656 37.949219 14.453125 37.949219 C 14.707031 37.949219 14.960938 37.949219 15.214844 37.945312 C 15.835938 37.945312 16.457031 37.945312 17.078125 37.945312 C 17.582031 37.945312 18.085938 37.945312 18.589844 37.945312 C 18.699219 37.945312 18.699219 37.945312 18.808594 37.945312 C 18.953125 37.945312 19.101562 37.945312 19.246094 37.945312 C 20.613281 37.941406 21.984375 37.945312 23.351562 37.945312 C 24.601562 37.945312 25.851562 37.945312 27.105469 37.941406 C 28.390625 37.941406 29.675781 37.9375 30.960938 37.941406 C 31.679688 37.941406 32.402344 37.941406 33.125 37.9375 C 33.800781 37.9375 34.480469 37.9375 35.15625 37.9375 C 35.40625 37.9375 35.65625 37.9375 35.90625 37.9375 C 36.246094 37.9375 36.585938 37.9375 36.925781 37.9375 C 37.023438 37.9375 37.121094 37.9375 37.222656 37.9375 C 37.824219 37.941406 38.179688 38.027344 38.671875 38.378906 C 39.03125 38.75 39.09375 39.050781 39.109375 39.550781 C 39.09375 40.050781 39.019531 40.347656 38.671875 40.722656 C 38.238281 41.121094 37.925781 41.222656 37.347656 41.222656 C 37.257812 41.222656 37.167969 41.222656 37.074219 41.226562 C 36.929688 41.226562 36.929688 41.226562 36.777344 41.226562 C 36.675781 41.226562 36.570312 41.226562 36.464844 41.226562 C 36.113281 41.226562 35.761719 41.226562 35.410156 41.226562 C 35.160156 41.226562 34.910156 41.226562 34.65625 41.226562 C 33.976562 41.230469 33.292969 41.230469 32.609375 41.230469 C 32.183594 41.230469 31.757812 41.230469 31.332031 41.230469 C 30.148438 41.234375 28.96875 41.234375 27.789062 41.234375 C 27.710938 41.234375 27.636719 41.234375 27.558594 41.234375 C 27.445312 41.234375 27.445312 41.234375 27.328125 41.234375 C 27.175781 41.234375 27.023438 41.234375 26.871094 41.234375 C 26.753906 41.234375 26.753906 41.234375 26.640625 41.234375 C 25.40625 41.234375 24.171875 41.238281 22.9375 41.238281 C 21.671875 41.242188 20.40625 41.242188 19.140625 41.242188 C 18.429688 41.242188 17.71875 41.242188 17.003906 41.246094 C 16.335938 41.246094 15.667969 41.246094 15 41.246094 C 14.753906 41.246094 14.507812 41.246094 14.261719 41.246094 C 13.929688 41.25 13.59375 41.246094 13.257812 41.246094 C 13.160156 41.246094 13.0625 41.25 12.964844 41.25 C 12.347656 41.246094 11.832031 41.191406 11.351562 40.769531 C 10.902344 40.160156 10.851562 39.71875 10.9375 38.964844 C 11.097656 38.570312 11.308594 38.355469 11.664062 38.128906 C 12.136719 37.9375 12.554688 37.949219 13.0625 37.949219 Z M 13.0625 37.949219 "/>
<path style=" stroke:none;fill-rule:nonzero;fill:rgb(99.215686%,45.09804%,0%);fill-opacity:1;" d="M 27.214844 4.128906 C 27.574219 4.398438 27.886719 4.703125 28.203125 5.023438 C 28.304688 5.125 28.304688 5.125 28.410156 5.230469 C 28.550781 5.371094 28.691406 5.511719 28.832031 5.65625 C 29.046875 5.871094 29.265625 6.089844 29.480469 6.304688 C 29.621094 6.445312 29.757812 6.582031 29.894531 6.722656 C 29.960938 6.785156 30.023438 6.851562 30.089844 6.917969 C 30.148438 6.976562 30.210938 7.039062 30.269531 7.101562 C 30.351562 7.179688 30.351562 7.179688 30.429688 7.261719 C 30.773438 7.667969 30.796875 8.027344 30.785156 8.546875 C 30.738281 9.007812 30.566406 9.28125 30.238281 9.59375 C 29.757812 9.914062 29.390625 10.019531 28.808594 9.960938 C 28.175781 9.738281 27.75 9.339844 27.292969 8.863281 C 27.234375 8.800781 27.171875 8.734375 27.109375 8.671875 C 26.957031 8.515625 26.808594 8.359375 26.660156 8.203125 C 26.660156 8.289062 26.660156 8.375 26.660156 8.460938 C 26.65625 9.269531 26.648438 10.078125 26.640625 10.886719 C 26.636719 11.300781 26.636719 11.714844 26.632812 12.128906 C 26.632812 12.53125 26.628906 12.933594 26.625 13.332031 C 26.621094 13.484375 26.621094 13.636719 26.621094 13.789062 C 26.621094 14.003906 26.617188 14.21875 26.617188 14.433594 C 26.613281 14.617188 26.613281 14.617188 26.613281 14.804688 C 26.535156 15.308594 26.296875 15.609375 25.925781 15.949219 C 25.496094 16.238281 25.125 16.246094 24.609375 16.210938 C 24.054688 16.011719 23.703125 15.664062 23.4375 15.136719 C 23.425781 14.917969 23.421875 14.699219 23.417969 14.476562 C 23.417969 14.410156 23.414062 14.34375 23.414062 14.273438 C 23.410156 14.050781 23.410156 13.824219 23.40625 13.601562 C 23.40625 13.445312 23.402344 13.289062 23.402344 13.136719 C 23.394531 12.726562 23.390625 12.316406 23.386719 11.910156 C 23.378906 11.492188 23.375 11.074219 23.371094 10.660156 C 23.359375 9.839844 23.347656 9.023438 23.339844 8.203125 C 23.300781 8.242188 23.265625 8.28125 23.226562 8.324219 C 23.054688 8.503906 22.878906 8.683594 22.703125 8.863281 C 22.617188 8.957031 22.617188 8.957031 22.527344 9.050781 C 22.039062 9.550781 21.554688 9.910156 20.847656 10.011719 C 20.289062 9.929688 19.878906 9.730469 19.488281 9.320312 C 19.273438 8.984375 19.21875 8.710938 19.207031 8.320312 C 19.203125 8.238281 19.199219 8.15625 19.195312 8.074219 C 19.300781 7.429688 19.871094 6.949219 20.308594 6.507812 C 20.375 6.4375 20.441406 6.371094 20.507812 6.304688 C 20.648438 6.160156 20.789062 6.019531 20.929688 5.878906 C 21.140625 5.667969 21.351562 5.449219 21.558594 5.234375 C 23.171875 3.597656 25.105469 2.6875 27.214844 4.128906 Z M 27.214844 4.128906 "/>
<path style=" stroke:none;fill-rule:nonzero;fill:rgb(100%,79.215688%,0%);fill-opacity:1;" d="M 19.554688 44.199219 C 19.6875 44.199219 19.816406 44.199219 19.949219 44.195312 C 20.304688 44.195312 20.664062 44.195312 21.019531 44.195312 C 21.316406 44.195312 21.617188 44.195312 21.914062 44.195312 C 22.617188 44.195312 23.324219 44.195312 24.027344 44.195312 C 24.75 44.195312 25.476562 44.195312 26.203125 44.191406 C 26.824219 44.191406 27.449219 44.1875 28.070312 44.191406 C 28.445312 44.191406 28.816406 44.191406 29.1875 44.1875 C 29.539062 44.1875 29.886719 44.1875 30.238281 44.1875 C 30.425781 44.1875 30.617188 44.1875 30.804688 44.1875 C 31.464844 44.191406 31.890625 44.226562 32.421875 44.628906 C 32.78125 45 32.84375 45.300781 32.859375 45.800781 C 32.84375 46.300781 32.769531 46.597656 32.421875 46.972656 C 31.957031 47.402344 31.625 47.472656 31.003906 47.476562 C 30.894531 47.476562 30.785156 47.476562 30.671875 47.476562 C 30.492188 47.476562 30.492188 47.476562 30.308594 47.476562 C 30.117188 47.476562 30.117188 47.476562 29.925781 47.476562 C 29.578125 47.480469 29.230469 47.480469 28.882812 47.480469 C 28.667969 47.480469 28.449219 47.480469 28.234375 47.480469 C 27.554688 47.484375 26.875 47.484375 26.195312 47.484375 C 25.410156 47.484375 24.628906 47.488281 23.84375 47.488281 C 23.238281 47.492188 22.632812 47.492188 22.027344 47.492188 C 21.664062 47.492188 21.300781 47.492188 20.941406 47.496094 C 20.535156 47.496094 20.132812 47.496094 19.730469 47.496094 C 19.550781 47.496094 19.550781 47.496094 19.367188 47.5 C 18.695312 47.496094 18.128906 47.484375 17.601562 47.019531 C 17.152344 46.410156 17.101562 45.96875 17.1875 45.214844 C 17.34375 44.828125 17.554688 44.613281 17.898438 44.378906 C 18.445312 44.167969 18.972656 44.195312 19.554688 44.199219 Z M 19.554688 44.199219 "/>
<path style=" stroke:none;fill-rule:nonzero;fill:rgb(99.607843%,54.11765%,0%);fill-opacity:1;" d="M 41.925781 15.617188 C 42.363281 15.867188 42.625 16.105469 42.773438 16.601562 C 42.855469 17.285156 42.808594 17.710938 42.382812 18.261719 C 42.148438 18.523438 41.90625 18.769531 41.65625 19.015625 C 41.585938 19.085938 41.515625 19.15625 41.445312 19.230469 C 41.296875 19.378906 41.152344 19.523438 41.003906 19.671875 C 40.777344 19.898438 40.554688 20.125 40.328125 20.351562 C 40.1875 20.492188 40.042969 20.636719 39.898438 20.78125 C 39.832031 20.847656 39.765625 20.917969 39.695312 20.984375 C 39.253906 21.425781 38.890625 21.703125 38.246094 21.714844 C 37.761719 21.703125 37.5 21.578125 37.109375 21.289062 C 36.714844 20.84375 36.597656 20.410156 36.621094 19.824219 C 36.914062 18.78125 37.957031 17.980469 38.703125 17.230469 C 38.875 17.058594 39.046875 16.882812 39.214844 16.710938 C 39.328125 16.597656 39.4375 16.488281 39.546875 16.375 C 39.597656 16.324219 39.648438 16.273438 39.699219 16.21875 C 40.328125 15.59375 41.0625 15.277344 41.925781 15.617188 Z M 41.925781 15.617188 "/>
<path style=" stroke:none;fill-rule:nonzero;fill:rgb(99.607843%,54.11765%,0%);fill-opacity:1;" d="M 9.277344 15.527344 C 9.855469 15.828125 10.3125 16.226562 10.765625 16.6875 C 10.828125 16.75 10.890625 16.8125 10.957031 16.878906 C 11.089844 17.011719 11.222656 17.144531 11.351562 17.277344 C 11.554688 17.480469 11.757812 17.683594 11.960938 17.886719 C 12.089844 18.015625 12.21875 18.144531 12.347656 18.273438 C 12.4375 18.363281 12.4375 18.363281 12.527344 18.457031 C 13.019531 18.953125 13.328125 19.371094 13.386719 20.082031 C 13.371094 20.597656 13.214844 20.96875 12.847656 21.324219 C 12.484375 21.558594 12.21875 21.707031 11.78125 21.710938 C 11.707031 21.710938 11.636719 21.714844 11.5625 21.714844 C 10.867188 21.609375 10.4375 21.121094 9.964844 20.644531 C 9.855469 20.535156 9.855469 20.535156 9.746094 20.425781 C 9.59375 20.273438 9.441406 20.121094 9.289062 19.96875 C 9.058594 19.734375 8.824219 19.5 8.589844 19.265625 C 8.441406 19.117188 8.292969 18.96875 8.148438 18.820312 C 8.078125 18.75 8.007812 18.679688 7.933594 18.609375 C 7.871094 18.542969 7.804688 18.476562 7.738281 18.410156 C 7.683594 18.355469 7.625 18.296875 7.566406 18.238281 C 7.199219 17.808594 7.183594 17.421875 7.195312 16.871094 C 7.242188 16.449219 7.351562 16.253906 7.617188 15.917969 C 8.121094 15.523438 8.640625 15.378906 9.277344 15.527344 Z M 9.277344 15.527344 "/>
</g>
</svg>
