<?xml version="1.0" encoding="UTF-8"?>
<svg xmlns="http://www.w3.org/2000/svg" xmlns:xlink="http://www.w3.org/1999/xlink" width="50px" height="500px" viewBox="0 0 50 50" version="1.1">
<g id="surface1">
<path style=" stroke:none;fill-rule:nonzero;fill:rgb(99.607843%,63.921571%,0%);fill-opacity:1;" d="M 27.636719 19.53125 C 27.707031 19.546875 27.773438 19.566406 27.847656 19.582031 C 31.308594 20.453125 34.539062 22.613281 36.425781 25.683594 C 37.199219 26.992188 37.8125 28.3125 38.183594 29.785156 C 38.199219 29.851562 38.21875 29.917969 38.234375 29.988281 C 38.382812 30.582031 38.484375 31.125 38.476562 31.738281 C 38.542969 31.738281 38.605469 31.738281 38.671875 31.734375 C 39.347656 31.726562 40.023438 31.722656 40.699219 31.71875 C 40.949219 31.714844 41.199219 31.710938 41.453125 31.707031 C 41.816406 31.703125 42.175781 31.703125 42.539062 31.699219 C 42.652344 31.699219 42.765625 31.695312 42.878906 31.695312 C 43.496094 31.695312 43.871094 31.710938 44.335938 32.128906 C 44.769531 32.621094 44.855469 32.898438 44.84375 33.542969 C 44.804688 34.007812 44.632812 34.277344 44.300781 34.59375 C 43.828125 34.90625 43.464844 34.984375 42.902344 34.984375 C 42.835938 34.988281 42.769531 34.988281 42.703125 34.988281 C 42.488281 34.988281 42.269531 34.988281 42.050781 34.988281 C 41.894531 34.988281 41.738281 34.988281 41.578125 34.988281 C 41.148438 34.988281 40.714844 34.988281 40.28125 34.988281 C 39.816406 34.988281 39.347656 34.992188 38.882812 34.992188 C 37.96875 34.992188 37.054688 34.992188 36.140625 34.992188 C 35.394531 34.992188 34.652344 34.992188 33.910156 34.996094 C 31.804688 34.996094 29.699219 34.996094 27.589844 34.996094 C 27.476562 34.996094 27.363281 34.996094 27.246094 34.996094 C 27.132812 34.996094 27.019531 34.996094 26.902344 34.996094 C 25.058594 34.996094 23.214844 35 21.375 35 C 19.480469 35.003906 17.589844 35.003906 15.699219 35.003906 C 14.636719 35.003906 13.574219 35.007812 12.511719 35.007812 C 11.605469 35.011719 10.703125 35.011719 9.796875 35.007812 C 9.335938 35.007812 8.875 35.007812 8.414062 35.011719 C 7.988281 35.011719 7.566406 35.011719 7.144531 35.007812 C 6.992188 35.007812 6.839844 35.007812 6.6875 35.011719 C 5.25 35.019531 5.25 35.019531 4.589844 34.570312 C 4.183594 34.058594 4.046875 33.660156 4.101562 33.007812 C 4.277344 32.492188 4.515625 32.132812 4.980469 31.835938 C 5.277344 31.738281 5.472656 31.726562 5.78125 31.726562 C 5.886719 31.726562 5.988281 31.726562 6.097656 31.726562 C 6.207031 31.726562 6.320312 31.726562 6.433594 31.730469 C 6.605469 31.730469 6.605469 31.730469 6.78125 31.730469 C 7.148438 31.730469 7.511719 31.730469 7.878906 31.730469 C 8.128906 31.734375 8.375 31.734375 8.625 31.734375 C 9.230469 31.734375 9.839844 31.734375 10.449219 31.738281 C 10.464844 31.597656 10.464844 31.597656 10.484375 31.453125 C 10.574219 30.722656 10.679688 30.019531 10.902344 29.316406 C 10.925781 29.234375 10.953125 29.152344 10.976562 29.066406 C 11.691406 26.84375 12.867188 25.042969 14.453125 23.339844 C 14.507812 23.28125 14.5625 23.222656 14.617188 23.160156 C 17.816406 19.789062 23.183594 18.445312 27.636719 19.53125 Z M 27.636719 19.53125 "/>
<path style=" stroke:none;fill-rule:nonzero;fill:rgb(100%,73.725492%,0%);fill-opacity:1;" d="M 11.964844 37.976562 C 12.054688 37.976562 12.144531 37.972656 12.238281 37.972656 C 12.386719 37.972656 12.386719 37.972656 12.539062 37.972656 C 12.648438 37.972656 12.753906 37.972656 12.863281 37.972656 C 13.21875 37.972656 13.574219 37.972656 13.933594 37.972656 C 14.1875 37.96875 14.441406 37.96875 14.695312 37.96875 C 15.464844 37.96875 16.230469 37.964844 16.996094 37.964844 C 17.359375 37.964844 17.71875 37.964844 18.078125 37.964844 C 19.277344 37.960938 20.476562 37.960938 21.679688 37.960938 C 21.988281 37.960938 22.300781 37.960938 22.613281 37.960938 C 22.726562 37.960938 22.726562 37.960938 22.847656 37.960938 C 24.101562 37.957031 25.355469 37.957031 26.605469 37.953125 C 27.894531 37.949219 29.179688 37.949219 30.46875 37.949219 C 31.191406 37.949219 31.914062 37.945312 32.636719 37.945312 C 33.316406 37.941406 33.996094 37.941406 34.675781 37.941406 C 34.925781 37.941406 35.175781 37.941406 35.425781 37.941406 C 35.765625 37.9375 36.105469 37.9375 36.445312 37.941406 C 36.59375 37.9375 36.59375 37.9375 36.746094 37.9375 C 37.308594 37.941406 37.644531 37.996094 38.085938 38.378906 C 38.519531 38.871094 38.605469 39.148438 38.59375 39.792969 C 38.554688 40.257812 38.382812 40.527344 38.050781 40.84375 C 37.460938 41.238281 36.964844 41.238281 36.277344 41.238281 C 36.171875 41.238281 36.066406 41.238281 35.957031 41.238281 C 35.605469 41.238281 35.253906 41.238281 34.902344 41.238281 C 34.652344 41.238281 34.398438 41.242188 34.148438 41.242188 C 33.535156 41.242188 32.921875 41.242188 32.308594 41.242188 C 31.808594 41.242188 31.3125 41.242188 30.8125 41.246094 C 29.398438 41.246094 27.984375 41.246094 26.570312 41.246094 C 26.492188 41.246094 26.417969 41.246094 26.335938 41.246094 C 26.222656 41.246094 26.222656 41.246094 26.105469 41.246094 C 24.871094 41.246094 23.632812 41.25 22.394531 41.25 C 21.125 41.253906 19.855469 41.253906 18.585938 41.253906 C 17.871094 41.253906 17.160156 41.257812 16.445312 41.257812 C 15.773438 41.261719 15.105469 41.261719 14.433594 41.257812 C 14.1875 41.257812 13.941406 41.257812 13.695312 41.261719 C 13.359375 41.261719 13.023438 41.261719 12.6875 41.257812 C 12.589844 41.261719 12.492188 41.261719 12.390625 41.261719 C 11.800781 41.257812 11.328125 41.171875 10.839844 40.820312 C 10.433594 40.308594 10.296875 39.910156 10.351562 39.257812 C 10.527344 38.742188 10.765625 38.382812 11.230469 38.085938 C 11.507812 37.992188 11.675781 37.976562 11.964844 37.976562 Z M 11.964844 37.976562 "/>
<path style=" stroke:none;fill-rule:nonzero;fill:rgb(99.215686%,47.450981%,0%);fill-opacity:1;" d="M 25.703125 2.648438 C 26.082031 2.902344 26.355469 3.199219 26.5625 3.613281 C 26.574219 3.867188 26.582031 4.117188 26.582031 4.371094 C 26.582031 4.449219 26.585938 4.527344 26.585938 4.605469 C 26.589844 4.867188 26.589844 5.125 26.59375 5.382812 C 26.59375 5.5625 26.597656 5.742188 26.597656 5.921875 C 26.605469 6.394531 26.609375 6.867188 26.613281 7.339844 C 26.621094 7.820312 26.625 8.300781 26.628906 8.785156 C 26.640625 9.730469 26.652344 10.675781 26.660156 11.621094 C 26.703125 11.574219 26.75 11.527344 26.796875 11.480469 C 27 11.269531 27.207031 11.0625 27.410156 10.851562 C 27.480469 10.777344 27.550781 10.707031 27.625 10.632812 C 27.691406 10.5625 27.761719 10.492188 27.832031 10.417969 C 27.894531 10.355469 27.957031 10.289062 28.023438 10.222656 C 28.460938 9.859375 28.902344 9.820312 29.449219 9.832031 C 29.929688 9.894531 30.191406 10.160156 30.5 10.511719 C 30.730469 10.832031 30.777344 11.007812 30.785156 11.402344 C 30.789062 11.484375 30.792969 11.566406 30.792969 11.648438 C 30.710938 12.335938 30.253906 12.761719 29.789062 13.222656 C 29.71875 13.292969 29.652344 13.359375 29.585938 13.429688 C 29.445312 13.570312 29.300781 13.710938 29.160156 13.851562 C 28.945312 14.066406 28.730469 14.285156 28.515625 14.5 C 28.378906 14.636719 28.242188 14.777344 28.101562 14.914062 C 28.007812 15.011719 28.007812 15.011719 27.914062 15.109375 C 27.105469 15.902344 26.136719 16.378906 24.992188 16.414062 C 23.566406 16.339844 22.628906 15.628906 21.652344 14.652344 C 21.589844 14.589844 21.527344 14.523438 21.460938 14.460938 C 21.328125 14.328125 21.195312 14.195312 21.0625 14.0625 C 20.859375 13.859375 20.65625 13.660156 20.453125 13.457031 C 20.324219 13.328125 20.195312 13.199219 20.066406 13.070312 C 20.003906 13.011719 19.945312 12.949219 19.882812 12.890625 C 19.441406 12.441406 19.210938 12.078125 19.203125 11.433594 C 19.210938 10.964844 19.316406 10.707031 19.628906 10.351562 C 20.023438 10.003906 20.253906 9.847656 20.777344 9.839844 C 20.859375 9.835938 20.941406 9.832031 21.023438 9.832031 C 21.742188 9.917969 22.167969 10.414062 22.644531 10.90625 C 22.710938 10.976562 22.777344 11.042969 22.847656 11.113281 C 23.011719 11.28125 23.175781 11.453125 23.339844 11.621094 C 23.339844 11.523438 23.339844 11.421875 23.339844 11.320312 C 23.34375 10.386719 23.351562 9.453125 23.359375 8.519531 C 23.363281 8.039062 23.363281 7.558594 23.367188 7.078125 C 23.367188 6.617188 23.371094 6.152344 23.375 5.6875 C 23.378906 5.511719 23.378906 5.335938 23.378906 5.160156 C 23.378906 4.910156 23.382812 4.664062 23.382812 4.414062 C 23.382812 4.304688 23.382812 4.304688 23.382812 4.195312 C 23.394531 3.695312 23.515625 3.414062 23.828125 3.027344 C 24.394531 2.515625 24.980469 2.394531 25.703125 2.648438 Z M 25.703125 2.648438 "/>
<path style=" stroke:none;fill-rule:nonzero;fill:rgb(100%,79.215688%,0%);fill-opacity:1;" d="M 18.316406 44.222656 C 18.429688 44.222656 18.542969 44.222656 18.660156 44.222656 C 18.78125 44.222656 18.90625 44.222656 19.035156 44.222656 C 19.167969 44.21875 19.296875 44.21875 19.429688 44.21875 C 19.863281 44.21875 20.296875 44.214844 20.730469 44.214844 C 20.878906 44.214844 21.027344 44.214844 21.175781 44.214844 C 21.878906 44.210938 22.578125 44.210938 23.28125 44.210938 C 24.089844 44.207031 24.898438 44.207031 25.707031 44.203125 C 26.332031 44.199219 26.957031 44.199219 27.582031 44.199219 C 27.953125 44.199219 28.328125 44.195312 28.703125 44.195312 C 29.050781 44.191406 29.402344 44.191406 29.753906 44.191406 C 29.945312 44.191406 30.136719 44.191406 30.324219 44.1875 C 31.367188 44.195312 31.367188 44.195312 31.835938 44.628906 C 32.269531 45.121094 32.355469 45.398438 32.34375 46.042969 C 32.304688 46.507812 32.132812 46.777344 31.800781 47.09375 C 31.367188 47.382812 31.019531 47.484375 30.5 47.488281 C 30.390625 47.488281 30.28125 47.488281 30.164062 47.488281 C 30.046875 47.488281 29.925781 47.488281 29.800781 47.488281 C 29.609375 47.492188 29.609375 47.492188 29.414062 47.492188 C 29.066406 47.492188 28.71875 47.492188 28.367188 47.492188 C 28.152344 47.492188 27.933594 47.496094 27.714844 47.496094 C 26.953125 47.496094 26.191406 47.496094 25.429688 47.496094 C 24.71875 47.496094 24.011719 47.5 23.300781 47.503906 C 22.691406 47.503906 22.082031 47.503906 21.472656 47.503906 C 21.109375 47.503906 20.742188 47.507812 20.378906 47.507812 C 19.972656 47.511719 19.566406 47.507812 19.164062 47.507812 C 19.042969 47.507812 18.921875 47.511719 18.800781 47.511719 C 18.117188 47.507812 17.664062 47.445312 17.089844 47.070312 C 16.683594 46.558594 16.546875 46.160156 16.601562 45.507812 C 16.777344 44.992188 17.015625 44.632812 17.480469 44.335938 C 17.785156 44.234375 17.996094 44.226562 18.316406 44.222656 Z M 18.316406 44.222656 "/>
<path style=" stroke:none;fill-rule:nonzero;fill:rgb(99.607843%,54.509807%,0%);fill-opacity:1;" d="M 41.429688 15.636719 C 41.839844 15.914062 42.125 16.222656 42.285156 16.699219 C 42.304688 16.898438 42.304688 16.898438 42.308594 17.121094 C 42.3125 17.191406 42.316406 17.265625 42.316406 17.339844 C 42.222656 18.035156 41.726562 18.472656 41.253906 18.941406 C 41.183594 19.011719 41.109375 19.085938 41.035156 19.160156 C 40.882812 19.3125 40.730469 19.464844 40.578125 19.617188 C 40.34375 19.847656 40.113281 20.082031 39.878906 20.316406 C 39.734375 20.464844 39.585938 20.613281 39.4375 20.757812 C 39.332031 20.863281 39.332031 20.863281 39.226562 20.972656 C 39.160156 21.035156 39.09375 21.101562 39.027344 21.167969 C 38.96875 21.222656 38.914062 21.28125 38.855469 21.339844 C 38.386719 21.710938 37.878906 21.742188 37.304688 21.679688 C 36.789062 21.5 36.542969 21.230469 36.230469 20.800781 C 36.140625 20.535156 36.113281 20.359375 36.109375 20.085938 C 36.105469 19.976562 36.105469 19.976562 36.101562 19.867188 C 36.195312 19.171875 36.691406 18.734375 37.164062 18.265625 C 37.273438 18.15625 37.273438 18.15625 37.382812 18.046875 C 37.535156 17.894531 37.6875 17.742188 37.839844 17.589844 C 38.074219 17.359375 38.304688 17.125 38.539062 16.890625 C 38.683594 16.742188 38.832031 16.59375 38.980469 16.449219 C 39.050781 16.378906 39.121094 16.308594 39.191406 16.234375 C 39.257812 16.171875 39.324219 16.105469 39.390625 16.039062 C 39.449219 15.984375 39.503906 15.925781 39.5625 15.867188 C 40.113281 15.429688 40.785156 15.414062 41.429688 15.636719 Z M 41.429688 15.636719 "/>
<path style=" stroke:none;fill-rule:nonzero;fill:rgb(99.607843%,54.509807%,0%);fill-opacity:1;" d="M 8.234375 15.503906 C 8.34375 15.5 8.34375 15.5 8.453125 15.496094 C 9.148438 15.589844 9.585938 16.085938 10.054688 16.5625 C 10.125 16.632812 10.199219 16.707031 10.273438 16.78125 C 10.425781 16.933594 10.578125 17.085938 10.730469 17.238281 C 10.960938 17.472656 11.195312 17.707031 11.429688 17.941406 C 11.578125 18.089844 11.726562 18.238281 11.871094 18.386719 C 11.941406 18.457031 12.011719 18.527344 12.085938 18.597656 C 12.148438 18.664062 12.214844 18.730469 12.28125 18.796875 C 12.335938 18.851562 12.394531 18.910156 12.453125 18.96875 C 12.820312 19.398438 12.835938 19.785156 12.824219 20.335938 C 12.777344 20.761719 12.675781 20.953125 12.402344 21.289062 C 11.972656 21.617188 11.511719 21.757812 10.972656 21.722656 C 10.28125 21.597656 9.734375 21.007812 9.257812 20.53125 C 9.195312 20.46875 9.132812 20.40625 9.066406 20.339844 C 8.933594 20.210938 8.804688 20.078125 8.671875 19.945312 C 8.472656 19.746094 8.269531 19.546875 8.070312 19.347656 C 7.941406 19.21875 7.8125 19.089844 7.683594 18.960938 C 7.625 18.902344 7.5625 18.84375 7.503906 18.785156 C 7.03125 18.304688 6.6875 17.816406 6.59375 17.140625 C 6.671875 16.578125 6.871094 16.167969 7.28125 15.777344 C 7.601562 15.570312 7.859375 15.511719 8.234375 15.503906 Z M 8.234375 15.503906 "/>
</g>
</svg>
