<?xml version="1.0" encoding="UTF-8"?>
<svg xmlns="http://www.w3.org/2000/svg" xmlns:xlink="http://www.w3.org/1999/xlink" width="50px" height="50px" viewBox="0 0 50 50" version="1.1">
<g id="surface1">
<path style=" stroke:none;fill-rule:nonzero;fill:rgb(46.27451%,45.882353%,50.980395%);fill-opacity:1;" d="M 33.730469 7.574219 C 38.566406 10.722656 42.222656 14.691406 43.75 20.3125 C 44.386719 26.074219 44.203125 31.523438 40.632812 36.273438 C 37.457031 40.019531 33.71875 43.304688 28.640625 43.867188 C 22.183594 44.207031 17.417969 43.761719 12.335938 39.453125 C 8.847656 36.117188 6.335938 32.464844 6.074219 27.515625 C 5.9375 20.582031 6.847656 16.207031 11.785156 11.042969 C 17.421875 5.8125 26.648438 4.113281 33.730469 7.574219 Z M 33.730469 7.574219 "/>
<path style=" stroke:none;fill-rule:nonzero;fill:rgb(98.431373%,89.803922%,67.450982%);fill-opacity:1;" d="M 24.480469 6.25 C 24.285156 6.464844 24.089844 6.679688 23.886719 6.902344 C 18.835938 12.601562 16.835938 18.335938 17.070312 26.070312 C 17.597656 33.003906 19.382812 38.816406 24.480469 43.75 C 19.582031 44.113281 16.054688 42.652344 12.335938 39.453125 C 8.847656 36.117188 6.335938 32.464844 6.074219 27.515625 C 5.9375 20.582031 6.847656 16.207031 11.785156 11.042969 C 15.589844 7.515625 19.316406 6.070312 24.480469 6.25 Z M 24.480469 6.25 "/>
<path style=" stroke:none;fill-rule:nonzero;fill:rgb(96.470588%,81.568629%,54.901963%);fill-opacity:1;" d="M 24.480469 6.25 C 23.992188 6.824219 23.503906 7.402344 23.015625 7.976562 C 22.742188 8.296875 22.46875 8.617188 22.191406 8.945312 C 21.914062 9.257812 21.636719 9.574219 21.355469 9.894531 C 21.089844 10.203125 20.828125 10.507812 20.554688 10.820312 C 20.304688 11.03125 20.050781 11.242188 19.792969 11.457031 C 19.328125 11.328125 18.867188 11.199219 18.390625 11.066406 C 16.367188 10.914062 16.054688 11.171875 14.519531 12.402344 C 12.316406 14.507812 11.136719 16.84375 10.417969 19.792969 C 10.40625 20.660156 10.40625 21.527344 10.417969 22.394531 C 10.160156 23.105469 10.160156 23.105469 9.894531 23.828125 C 8.816406 27.328125 9.25 31.320312 9.894531 34.894531 C 10.800781 35.800781 12.078125 35.609375 13.3125 35.710938 C 13.839844 35.753906 14.367188 35.796875 14.910156 35.84375 C 15.523438 35.890625 15.523438 35.890625 16.144531 35.9375 C 16.242188 36.496094 16.339844 37.054688 16.4375 37.628906 C 16.90625 39.296875 17.449219 39.953125 18.945312 40.820312 C 20.683594 41.664062 20.683594 41.664062 22.003906 41.960938 C 23.1875 42.253906 23.691406 42.847656 24.480469 43.75 C 19.582031 44.113281 16.054688 42.652344 12.335938 39.453125 C 8.847656 36.117188 6.335938 32.464844 6.074219 27.515625 C 5.9375 20.582031 6.847656 16.207031 11.785156 11.042969 C 15.589844 7.515625 19.316406 6.070312 24.480469 6.25 Z M 24.480469 6.25 "/>
<path style=" stroke:none;fill-rule:nonzero;fill:rgb(96.470588%,83.137256%,56.078434%);fill-opacity:1;" d="M 16.667969 23.957031 C 16.800781 24.949219 16.800781 24.949219 16.933594 25.957031 C 17.75 31.714844 18.847656 36.148438 21.875 41.144531 C 21.875 41.488281 21.875 41.832031 21.875 42.1875 C 18.035156 41.054688 18.035156 41.054688 16.667969 39.582031 C 16.277344 37.664062 16.277344 37.664062 16.144531 35.9375 C 15.285156 35.9375 14.425781 35.9375 13.542969 35.9375 C 13.542969 35.078125 13.542969 34.21875 13.542969 33.332031 C 13.027344 33.160156 12.511719 32.988281 11.980469 32.8125 C 11.019531 28.472656 11.019531 28.472656 12.046875 26.445312 C 14.085938 23.957031 14.085938 23.957031 16.667969 23.957031 Z M 16.667969 23.957031 "/>
<path style=" stroke:none;fill-rule:nonzero;fill:rgb(84.705883%,65.098041%,36.078432%);fill-opacity:1;" d="M 7.8125 16.144531 C 7.984375 16.144531 8.15625 16.144531 8.332031 16.144531 C 8.332031 20.785156 8.332031 25.425781 8.332031 30.207031 C 8.675781 30.207031 9.019531 30.207031 9.375 30.207031 C 9.421875 30.707031 9.421875 30.707031 9.46875 31.214844 C 9.515625 31.644531 9.558594 32.074219 9.601562 32.519531 C 9.644531 32.949219 9.6875 33.378906 9.730469 33.820312 C 9.785156 34.890625 9.785156 34.890625 10.417969 35.417969 C 11.378906 35.539062 12.347656 35.632812 13.3125 35.710938 C 13.839844 35.753906 14.367188 35.796875 14.910156 35.84375 C 15.523438 35.890625 15.523438 35.890625 16.144531 35.9375 C 16.242188 36.496094 16.339844 37.054688 16.4375 37.628906 C 16.90625 39.296875 17.449219 39.953125 18.945312 40.820312 C 20.683594 41.664062 20.683594 41.664062 22.003906 41.960938 C 23.1875 42.253906 23.691406 42.847656 24.480469 43.75 C 19.582031 44.113281 16.054688 42.652344 12.335938 39.453125 C 8.84375 36.113281 6.308594 32.445312 6.09375 27.476562 C 6.085938 26.671875 6.082031 25.871094 6.085938 25.066406 C 6.078125 24.667969 6.070312 24.269531 6.0625 23.859375 C 6.058594 20.957031 6.664062 18.808594 7.8125 16.144531 Z M 7.8125 16.144531 "/>
<path style=" stroke:none;fill-rule:nonzero;fill:rgb(53.333336%,52.941179%,57.254905%);fill-opacity:1;" d="M 26.042969 12.5 C 26.042969 13.1875 26.042969 13.875 26.042969 14.582031 C 26.730469 14.753906 27.417969 14.925781 28.125 15.105469 C 27.476562 17.105469 26.910156 18.289062 25 19.269531 C 23.59375 19.136719 22.613281 18.859375 21.355469 18.230469 C 21.386719 18.710938 21.417969 19.195312 21.453125 19.695312 C 21.355469 21.355469 21.355469 21.355469 20.769531 22.265625 C 19.476562 23.128906 18.152344 23.527344 16.667969 23.957031 C 16.726562 22.960938 16.792969 21.960938 16.863281 20.964844 C 16.898438 20.40625 16.933594 19.851562 16.972656 19.277344 C 17.171875 17.8125 17.476562 16.882812 18.230469 15.625 C 19.261719 16.140625 20.292969 16.65625 21.355469 17.1875 C 21.011719 15.984375 20.667969 14.78125 20.3125 13.542969 C 22.410156 12 23.527344 11.855469 26.042969 12.5 Z M 26.042969 12.5 "/>
<path style=" stroke:none;fill-rule:nonzero;fill:rgb(35.686275%,35.294119%,41.176471%);fill-opacity:1;" d="M 26.824219 6.054688 C 31.667969 6.167969 35.109375 8.175781 38.542969 11.457031 C 38.199219 11.800781 37.855469 12.144531 37.5 12.5 C 37.132812 12.242188 36.769531 11.984375 36.394531 11.71875 C 34.695312 10.832031 33.652344 10.851562 31.769531 10.9375 C 31.597656 10.765625 31.425781 10.59375 31.25 10.417969 C 30.203125 10.210938 29.148438 10.03125 28.09375 9.863281 C 27.230469 9.726562 27.230469 9.726562 26.347656 9.585938 C 25.902344 9.515625 25.457031 9.445312 25 9.375 C 25.171875 8.859375 25.34375 8.34375 25.519531 7.8125 C 24.832031 7.640625 24.144531 7.46875 23.4375 7.292969 C 24.703125 6.027344 25.082031 6.082031 26.824219 6.054688 Z M 26.824219 6.054688 "/>
<path style=" stroke:none;fill-rule:nonzero;fill:rgb(89.411765%,71.764708%,45.09804%);fill-opacity:1;" d="M 7.8125 16.144531 C 7.984375 16.144531 8.15625 16.144531 8.332031 16.144531 C 8.332031 20.785156 8.332031 25.425781 8.332031 30.207031 C 8.675781 30.207031 9.019531 30.207031 9.375 30.207031 C 9.375 31.753906 9.375 33.300781 9.375 34.894531 C 9.03125 34.894531 8.6875 34.894531 8.332031 34.894531 C 6.5 31.640625 6.039062 28.605469 6.023438 24.933594 C 6.015625 24.542969 6.011719 24.152344 6.007812 23.75 C 6.050781 20.910156 6.699219 18.753906 7.8125 16.144531 Z M 7.8125 16.144531 "/>
<path style=" stroke:none;fill-rule:nonzero;fill:rgb(85.490197%,69.411767%,44.313726%);fill-opacity:1;" d="M 22.492188 6.21875 C 23.476562 6.234375 23.476562 6.234375 24.480469 6.25 C 23.621094 7.28125 22.761719 8.3125 21.875 9.375 C 19.402344 8.917969 19.402344 8.917969 18.230469 8.332031 C 17.953125 8.546875 17.675781 8.761719 17.390625 8.980469 C 16.839844 9.402344 16.839844 9.402344 16.277344 9.832031 C 15.914062 10.109375 15.550781 10.386719 15.175781 10.671875 C 14.0625 11.457031 14.0625 11.457031 12.914062 12.019531 C 11.890625 12.429688 11.890625 12.429688 11.492188 13.507812 C 10.746094 14.957031 9.75 15.402344 8.332031 16.144531 C 9.710938 12.179688 12.621094 9.707031 16.308594 7.84375 C 18.40625 6.871094 20.164062 6.179688 22.492188 6.21875 Z M 22.492188 6.21875 "/>
<path style=" stroke:none;fill-rule:nonzero;fill:rgb(82.352942%,62.7451%,34.117648%);fill-opacity:1;" d="M 14.582031 40.105469 C 15.746094 40.324219 16.90625 40.554688 18.066406 40.789062 C 18.714844 40.914062 19.359375 41.042969 20.027344 41.171875 C 21.777344 41.640625 23.007812 42.179688 24.480469 43.230469 C 24.480469 43.402344 24.480469 43.574219 24.480469 43.75 C 21.023438 44.003906 18.132812 43.429688 15.105469 41.667969 C 14.933594 41.152344 14.761719 40.636719 14.582031 40.105469 Z M 14.582031 40.105469 "/>
<path style=" stroke:none;fill-rule:nonzero;fill:rgb(97.254902%,84.313726%,59.215689%);fill-opacity:1;" d="M 11.457031 14.582031 C 11.980469 15.625 11.980469 15.625 11.6875 16.546875 C 11.539062 16.898438 11.386719 17.25 11.230469 17.609375 C 10.546875 19.320312 10.367188 20.546875 10.417969 22.394531 C 10.160156 23.152344 10.160156 23.152344 9.894531 23.925781 C 9.351562 25.59375 9.292969 26.902344 9.375 28.644531 C 8 27.269531 8.179688 26.589844 8.171875 24.675781 C 8.238281 20.738281 9.285156 17.890625 11.457031 14.582031 Z M 11.457031 14.582031 "/>
<path style=" stroke:none;fill-rule:nonzero;fill:rgb(93.333334%,75.686276%,45.490196%);fill-opacity:1;" d="M 10.417969 35.417969 C 12.308594 35.589844 14.199219 35.761719 16.144531 35.9375 C 16.316406 37.140625 16.488281 38.34375 16.667969 39.582031 C 16.496094 39.238281 16.324219 38.894531 16.144531 38.542969 C 15.664062 38.574219 15.179688 38.605469 14.679688 38.640625 C 13.019531 38.542969 13.019531 38.542969 12.042969 37.824219 C 11.457031 36.980469 11.457031 36.980469 11.457031 35.9375 C 11.113281 35.765625 10.769531 35.59375 10.417969 35.417969 Z M 10.417969 35.417969 "/>
<path style=" stroke:none;fill-rule:nonzero;fill:rgb(44.313726%,43.921569%,48.235294%);fill-opacity:1;" d="M 24.480469 9.375 C 26.714844 9.546875 28.949219 9.71875 31.25 9.894531 C 30.5625 10.582031 29.875 11.269531 29.167969 11.980469 C 27.277344 11.878906 25.746094 11.535156 23.957031 10.9375 C 24.128906 10.421875 24.300781 9.90625 24.480469 9.375 Z M 24.480469 9.375 "/>
<path style=" stroke:none;fill-rule:nonzero;fill:rgb(39.215687%,38.82353%,43.529412%);fill-opacity:1;" d="M 24.480469 6.25 C 24.652344 6.59375 24.824219 6.9375 25 7.292969 C 26.054688 7.496094 26.054688 7.496094 27.277344 7.550781 C 29.113281 7.671875 29.652344 7.789062 31.25 8.855469 C 30.90625 9.199219 30.5625 9.542969 30.207031 9.894531 C 28.96875 9.882812 28.96875 9.882812 27.539062 9.699219 C 27.066406 9.644531 26.589844 9.585938 26.101562 9.527344 C 25.558594 9.449219 25.558594 9.449219 25 9.375 C 25.171875 8.859375 25.34375 8.34375 25.519531 7.8125 C 24.832031 7.640625 24.144531 7.46875 23.4375 7.292969 C 23.78125 6.949219 24.125 6.605469 24.480469 6.25 Z M 24.480469 6.25 "/>
<path style=" stroke:none;fill-rule:nonzero;fill:rgb(87.843138%,71.764708%,47.058824%);fill-opacity:1;" d="M 22.492188 6.21875 C 23.476562 6.234375 23.476562 6.234375 24.480469 6.25 C 23.621094 7.28125 22.761719 8.3125 21.875 9.375 C 21.015625 9.203125 20.15625 9.03125 19.269531 8.855469 C 19.097656 8.167969 18.925781 7.480469 18.75 6.769531 C 20.183594 6.292969 21.019531 6.191406 22.492188 6.21875 Z M 22.492188 6.21875 "/>
<path style=" stroke:none;fill-rule:nonzero;fill:rgb(95.294118%,80.392158%,53.333336%);fill-opacity:1;" d="M 18.230469 7.8125 C 19.269531 8.160156 20.3125 8.507812 21.355469 8.855469 C 21.011719 9.714844 20.667969 10.574219 20.3125 11.457031 C 19.304688 11.296875 19.304688 11.296875 18.230469 10.9375 C 18.058594 10.421875 17.886719 9.90625 17.707031 9.375 C 17.363281 9.203125 17.019531 9.03125 16.667969 8.855469 C 17.183594 8.511719 17.699219 8.167969 18.230469 7.8125 Z M 18.230469 7.8125 "/>
<path style=" stroke:none;fill-rule:nonzero;fill:rgb(31.37255%,31.37255%,37.64706%);fill-opacity:1;" d="M 25 6.25 C 28.703125 6.015625 31.101562 6.601562 34.375 8.332031 C 34.375 8.503906 34.375 8.675781 34.375 8.855469 C 33.515625 8.855469 32.65625 8.855469 31.769531 8.855469 C 31.769531 8.511719 31.769531 8.167969 31.769531 7.8125 C 29.535156 7.46875 27.300781 7.125 25 6.769531 C 25 6.597656 25 6.425781 25 6.25 Z M 25 6.25 "/>
<path style=" stroke:none;fill-rule:nonzero;fill:rgb(97.254902%,87.450981%,62.352943%);fill-opacity:1;" d="M 16.667969 17.1875 C 17.011719 17.359375 17.355469 17.53125 17.707031 17.707031 C 17.535156 18.910156 17.363281 20.113281 17.1875 21.355469 C 16.671875 21.527344 16.15625 21.699219 15.625 21.875 C 15.625 20.5 15.625 19.125 15.625 17.707031 C 15.96875 17.535156 16.3125 17.363281 16.667969 17.1875 Z M 16.667969 17.1875 "/>
<path style=" stroke:none;fill-rule:nonzero;fill:rgb(80.392158%,65.098041%,42.352942%);fill-opacity:1;" d="M 7.8125 16.144531 C 7.984375 16.144531 8.15625 16.144531 8.332031 16.144531 C 8.332031 17.519531 8.332031 18.894531 8.332031 20.3125 C 7.816406 20.570312 7.816406 20.570312 7.292969 20.832031 C 6.949219 21.347656 6.605469 21.863281 6.25 22.394531 C 6.515625 20.148438 6.875 18.210938 7.8125 16.144531 Z M 7.8125 16.144531 "/>
<path style=" stroke:none;fill-rule:nonzero;fill:rgb(84.313726%,66.274512%,39.607844%);fill-opacity:1;" d="M 21.875 41.667969 C 23.273438 42.382812 23.273438 42.382812 24.480469 43.230469 C 24.480469 43.402344 24.480469 43.574219 24.480469 43.75 C 23.105469 43.75 21.730469 43.75 20.3125 43.75 C 20.3125 43.234375 20.3125 42.71875 20.3125 42.1875 C 20.828125 42.015625 21.34375 41.84375 21.875 41.667969 Z M 21.875 41.667969 "/>
<path style=" stroke:none;fill-rule:nonzero;fill:rgb(90.980393%,70.588237%,38.82353%);fill-opacity:1;" d="M 11.457031 35.9375 C 12.433594 36.066406 12.433594 36.066406 13.542969 36.457031 C 14.191406 37.53125 14.191406 37.53125 14.582031 38.542969 C 13.605469 38.410156 13.605469 38.410156 12.5 38.019531 C 11.847656 36.945312 11.847656 36.945312 11.457031 35.9375 Z M 11.457031 35.9375 "/>
<path style=" stroke:none;fill-rule:nonzero;fill:rgb(81.176472%,65.098041%,42.352942%);fill-opacity:1;" d="M 10.9375 11.980469 C 11.109375 12.324219 11.28125 12.667969 11.457031 13.019531 C 10.808594 14.355469 10.808594 14.355469 9.894531 15.625 C 9.378906 15.796875 8.863281 15.96875 8.332031 16.144531 C 8.949219 14.386719 9.519531 13.203125 10.9375 11.980469 Z M 10.9375 11.980469 "/>
<path style=" stroke:none;fill-rule:nonzero;fill:rgb(97.647059%,85.882354%,61.56863%);fill-opacity:1;" d="M 13.542969 33.332031 C 14.574219 33.847656 14.574219 33.847656 15.625 34.375 C 15.625 34.890625 15.625 35.40625 15.625 35.9375 C 14.9375 35.9375 14.25 35.9375 13.542969 35.9375 C 13.542969 35.078125 13.542969 34.21875 13.542969 33.332031 Z M 13.542969 33.332031 "/>
</g>
</svg>
