<?xml version="1.0" encoding="UTF-8"?>
<svg xmlns="http://www.w3.org/2000/svg" xmlns:xlink="http://www.w3.org/1999/xlink" width="50px" height="50px" viewBox="0 0 50 50" version="1.1">
<g id="surface1">
<path style=" stroke:none;fill-rule:nonzero;fill:rgb(99.215686%,92.54902%,72.156864%);fill-opacity:1;" d="M 33.730469 7.574219 C 38.566406 10.722656 42.222656 14.691406 43.75 20.3125 C 44.386719 26.074219 44.203125 31.523438 40.632812 36.273438 C 37.457031 40.019531 33.71875 43.304688 28.640625 43.867188 C 22.183594 44.207031 17.417969 43.761719 12.335938 39.453125 C 8.847656 36.117188 6.335938 32.464844 6.074219 27.515625 C 5.9375 20.582031 6.847656 16.207031 11.785156 11.042969 C 17.421875 5.8125 26.648438 4.113281 33.730469 7.574219 Z M 33.730469 7.574219 "/>
<path style=" stroke:none;fill-rule:nonzero;fill:rgb(43.529412%,42.745098%,47.058824%);fill-opacity:1;" d="M 25.519531 6.25 C 30.417969 5.886719 33.945312 7.347656 37.664062 10.546875 C 41.152344 13.882812 43.664062 17.535156 43.925781 22.484375 C 44.0625 29.417969 43.152344 33.792969 38.214844 38.957031 C 34.410156 42.484375 30.683594 43.929688 25.519531 43.75 C 25.722656 43.523438 25.921875 43.296875 26.132812 43.0625 C 32.101562 36.234375 33.203125 29.164062 32.882812 20.308594 C 32.523438 15.019531 29.808594 10.851562 26.042969 7.292969 C 25.871094 6.949219 25.699219 6.605469 25.519531 6.25 Z M 25.519531 6.25 "/>
<path style=" stroke:none;fill-rule:nonzero;fill:rgb(97.254902%,83.529413%,56.078434%);fill-opacity:1;" d="M 15.558594 23.601562 C 17.714844 24.074219 19.207031 25.085938 20.832031 26.5625 C 21.582031 28.058594 21.578125 29.550781 21.726562 31.203125 C 21.820312 32.320312 21.820312 32.320312 22.394531 33.332031 C 22.910156 33.332031 23.425781 33.332031 23.957031 33.332031 C 24.546875 30.679688 24.546875 30.679688 23.730469 28.15625 C 23.460938 27.804688 23.195312 27.449219 22.917969 27.082031 C 24.292969 26.566406 25.667969 26.050781 27.082031 25.519531 C 27.082031 26.207031 27.082031 26.894531 27.082031 27.605469 C 27.425781 27.605469 27.769531 27.605469 28.125 27.605469 C 28.382812 28.378906 28.382812 28.378906 28.644531 29.167969 C 29.03125 28.824219 29.417969 28.480469 29.816406 28.125 C 31.25 27.082031 31.25 27.082031 33.332031 27.082031 C 32.613281 33.21875 31.277344 38.042969 27.082031 42.707031 C 24.832031 44.207031 22.953125 44.039062 20.3125 43.75 C 15.917969 42.738281 13.03125 40.101562 9.894531 36.980469 C 10.152344 36.207031 10.152344 36.207031 10.417969 35.417969 C 11.449219 35.417969 12.480469 35.417969 13.542969 35.417969 C 13.542969 34.730469 13.542969 34.042969 13.542969 33.332031 C 13.027344 33.160156 12.511719 32.988281 11.980469 32.8125 C 11.105469 27.953125 11.105469 27.953125 11.894531 26.007812 C 12.949219 24.613281 13.867188 24.003906 15.558594 23.601562 Z M 15.558594 23.601562 "/>
<path style=" stroke:none;fill-rule:nonzero;fill:rgb(97.254902%,83.92157%,56.862748%);fill-opacity:1;" d="M 25.519531 6.25 C 27.019531 7.390625 27.019531 7.390625 28.125 8.855469 C 28.523438 9.335938 28.921875 9.820312 29.328125 10.320312 C 29.621094 10.695312 29.910156 11.070312 30.207031 11.457031 C 27.71875 12.082031 26.34375 11.734375 23.957031 10.9375 C 24.300781 10.078125 24.644531 9.21875 25 8.332031 C 24.140625 8.332031 23.28125 8.332031 22.394531 8.332031 C 22.355469 8.660156 22.316406 8.984375 22.277344 9.316406 C 21.875 10.417969 21.875 10.417969 20.855469 10.960938 C 20.4375 11.082031 20.023438 11.203125 19.597656 11.328125 C 19.183594 11.453125 18.773438 11.582031 18.347656 11.710938 C 17.1875 11.980469 17.1875 11.980469 15.625 11.980469 C 15.453125 12.496094 15.28125 13.011719 15.105469 13.542969 C 14.589844 13.886719 14.074219 14.230469 13.542969 14.582031 C 10.175781 19.792969 9.804688 25.753906 9.863281 31.769531 C 9.867188 32.222656 9.867188 32.675781 9.871094 33.144531 C 9.875 34.25 9.886719 35.355469 9.894531 36.457031 C 6.808594 33.050781 5.960938 29.5625 6.023438 25.066406 C 6.027344 24.652344 6.03125 24.242188 6.039062 23.816406 C 6.203125 18.34375 8.007812 14.996094 11.785156 11.042969 C 15.636719 7.46875 20.1875 5.375 25.519531 6.25 Z M 25.519531 6.25 "/>
<path style=" stroke:none;fill-rule:nonzero;fill:rgb(94.509804%,75.294119%,45.490196%);fill-opacity:1;" d="M 25.519531 6.25 C 25.777344 6.765625 25.777344 6.765625 26.042969 7.292969 C 23.722656 7.550781 23.722656 7.550781 21.355469 7.8125 C 21.527344 8.15625 21.699219 8.5 21.875 8.855469 C 21.1875 8.855469 20.5 8.855469 19.792969 8.855469 C 19.621094 9.371094 19.449219 9.886719 19.269531 10.417969 C 18.925781 10.417969 18.582031 10.417969 18.230469 10.417969 C 18.058594 10.074219 17.886719 9.730469 17.707031 9.375 C 14.519531 10.246094 12.417969 12.726562 10.546875 15.332031 C 10.226562 15.992188 10.226562 15.992188 9.894531 16.667969 C 9.605469 17.226562 9.316406 17.785156 9.015625 18.359375 C 7.707031 21.882812 8.21875 25.988281 8.332031 29.6875 C 8.675781 29.6875 9.019531 29.6875 9.375 29.6875 C 9.375 31.578125 9.375 33.46875 9.375 35.417969 C 6.753906 32.792969 6.0625 29.855469 6.003906 26.253906 C 6.011719 25.859375 6.015625 25.46875 6.023438 25.066406 C 6.027344 24.652344 6.03125 24.242188 6.039062 23.816406 C 6.203125 18.34375 8.007812 14.996094 11.785156 11.042969 C 15.949219 7.179688 19.917969 6.050781 25.519531 6.25 Z M 25.519531 6.25 "/>
<path style=" stroke:none;fill-rule:nonzero;fill:rgb(97.647059%,88.627452%,62.7451%);fill-opacity:1;" d="M 26.042969 12.5 C 26.042969 13.1875 26.042969 13.875 26.042969 14.582031 C 26.730469 14.753906 27.417969 14.925781 28.125 15.105469 C 27.375 16.855469 26.519531 18.097656 25 19.269531 C 23.699219 19.402344 23.699219 19.402344 22.394531 18.75 C 21.335938 17.175781 20.3125 15.46875 20.3125 13.542969 C 22.121094 11.589844 23.574219 11.976562 26.042969 12.5 Z M 26.042969 12.5 "/>
<path style=" stroke:none;fill-rule:nonzero;fill:rgb(98.431373%,88.627452%,62.7451%);fill-opacity:1;" d="M 20.3125 16.667969 C 21.355469 18.230469 21.355469 18.230469 21.191406 20.117188 C 20.832031 21.875 20.832031 21.875 20.3125 22.394531 C 19.367188 22.464844 19.367188 22.464844 18.230469 22.460938 C 17.851562 22.460938 17.476562 22.464844 17.089844 22.464844 C 16.144531 22.394531 16.144531 22.394531 15.625 21.875 C 15.363281 19.164062 15.363281 19.164062 15.625 17.707031 C 17.167969 16.292969 18.363281 15.726562 20.3125 16.667969 Z M 20.3125 16.667969 "/>
<path style=" stroke:none;fill-rule:nonzero;fill:rgb(96.470588%,81.960785%,55.686277%);fill-opacity:1;" d="M 17.707031 8.855469 C 17.878906 9.371094 18.050781 9.886719 18.230469 10.417969 C 17.390625 10.722656 17.390625 10.722656 16.535156 11.035156 C 14.617188 11.859375 13.699219 12.847656 12.5 14.582031 C 12.136719 15.011719 11.769531 15.441406 11.394531 15.886719 C 9.722656 18.113281 9.234375 19.984375 9.277344 22.753906 C 9.28125 23.25 9.285156 23.746094 9.289062 24.257812 C 9.292969 25.527344 9.292969 25.527344 9.894531 26.5625 C 9.9375 27.316406 9.953125 28.074219 9.945312 28.828125 C 9.945312 29.273438 9.941406 29.714844 9.941406 30.171875 C 9.9375 30.636719 9.933594 31.097656 9.929688 31.574219 C 9.925781 32.042969 9.921875 32.511719 9.921875 32.992188 C 9.914062 34.148438 9.90625 35.304688 9.894531 36.457031 C 9.722656 36.457031 9.550781 36.457031 9.375 36.457031 C 9.375 34.222656 9.375 31.988281 9.375 29.6875 C 9.03125 29.6875 8.6875 29.6875 8.332031 29.6875 C 7.34375 25.328125 7.144531 20.65625 9.375 16.667969 C 13.699219 9.957031 13.699219 9.957031 16.761719 9.03125 C 17.074219 8.972656 17.386719 8.914062 17.707031 8.855469 Z M 17.707031 8.855469 "/>
<path style=" stroke:none;fill-rule:nonzero;fill:rgb(98.039216%,87.058824%,63.529414%);fill-opacity:1;" d="M 18.75 10.9375 C 17.1875 11.980469 17.1875 11.980469 15.625 11.980469 C 15.453125 12.496094 15.28125 13.011719 15.105469 13.542969 C 14.589844 13.886719 14.074219 14.230469 13.542969 14.582031 C 11.984375 16.992188 11.132812 19.632812 10.417969 22.394531 C 10.074219 23.4375 9.730469 24.480469 9.375 25.519531 C 9.203125 25.519531 9.03125 25.519531 8.855469 25.519531 C 8.570312 19.605469 10.152344 16.390625 14.0625 11.980469 C 15.777344 10.621094 16.671875 10.089844 18.75 10.9375 Z M 18.75 10.9375 "/>
<path style=" stroke:none;fill-rule:nonzero;fill:rgb(95.294118%,77.254903%,48.627451%);fill-opacity:1;" d="M 7.8125 18.75 C 8.222656 20.195312 8.394531 21.472656 8.382812 22.972656 C 8.382812 23.367188 8.378906 23.757812 8.378906 24.164062 C 8.375 24.570312 8.371094 24.972656 8.367188 25.390625 C 8.363281 25.804688 8.359375 26.214844 8.359375 26.640625 C 8.351562 27.65625 8.34375 28.671875 8.332031 29.6875 C 8.675781 29.6875 9.019531 29.6875 9.375 29.6875 C 9.375 31.578125 9.375 33.46875 9.375 35.417969 C 8.332031 34.894531 8.332031 34.894531 8.007812 34 C 7.347656 30.988281 7.148438 28.144531 7.195312 25.066406 C 7.195312 24.628906 7.195312 24.191406 7.195312 23.738281 C 7.207031 21.90625 7.226562 20.503906 7.8125 18.75 Z M 7.8125 18.75 "/>
<path style=" stroke:none;fill-rule:nonzero;fill:rgb(40.392157%,38.431373%,41.568628%);fill-opacity:1;" d="M 33.367188 7.910156 C 34.894531 8.332031 34.894531 8.332031 36.457031 9.375 C 36.285156 10.0625 36.113281 10.75 35.9375 11.457031 C 33.449219 11.214844 31.746094 10.8125 29.6875 9.375 C 31 8.113281 31.507812 7.796875 33.367188 7.910156 Z M 33.367188 7.910156 "/>
<path style=" stroke:none;fill-rule:nonzero;fill:rgb(93.333334%,75.294119%,45.490196%);fill-opacity:1;" d="M 10.417969 35.417969 C 12.308594 35.589844 14.199219 35.761719 16.144531 35.9375 C 16.316406 37.140625 16.488281 38.34375 16.667969 39.582031 C 16.496094 39.238281 16.324219 38.894531 16.144531 38.542969 C 15.582031 38.605469 15.582031 38.605469 15.007812 38.671875 C 13.085938 38.5 12.316406 37.761719 10.9375 36.457031 C 10.765625 36.113281 10.59375 35.769531 10.417969 35.417969 Z M 10.417969 35.417969 "/>
<path style=" stroke:none;fill-rule:nonzero;fill:rgb(92.54902%,73.725492%,45.09804%);fill-opacity:1;" d="M 20.3125 40.625 C 21.859375 40.882812 21.859375 40.882812 23.4375 41.144531 C 23.4375 41.488281 23.4375 41.832031 23.4375 42.1875 C 24.640625 42.1875 25.84375 42.1875 27.082031 42.1875 C 26.160156 43.355469 25.738281 43.722656 24.230469 43.902344 C 23.53125 43.875 23.53125 43.875 22.820312 43.847656 C 22.113281 43.828125 22.113281 43.828125 21.398438 43.804688 C 21.039062 43.785156 20.679688 43.769531 20.3125 43.75 C 20.484375 43.234375 20.65625 42.71875 20.832031 42.1875 C 20.660156 41.671875 20.488281 41.15625 20.3125 40.625 Z M 20.3125 40.625 "/>
<path style=" stroke:none;fill-rule:nonzero;fill:rgb(98.431373%,86.666667%,61.176473%);fill-opacity:1;" d="M 24.480469 9.375 C 25.238281 9.421875 26 9.476562 26.757812 9.539062 C 27.390625 9.582031 27.390625 9.582031 28.039062 9.628906 C 29.167969 9.894531 29.167969 9.894531 30.207031 11.457031 C 27.71875 12.082031 26.34375 11.734375 23.957031 10.9375 C 24.128906 10.421875 24.300781 9.90625 24.480469 9.375 Z M 24.480469 9.375 "/>
<path style=" stroke:none;fill-rule:nonzero;fill:rgb(39.607844%,37.64706%,40.392157%);fill-opacity:1;" d="M 41.144531 16.144531 C 41.488281 16.144531 41.832031 16.144531 42.1875 16.144531 C 42.96875 17.902344 43.230469 18.855469 43.230469 20.832031 C 42.886719 20.832031 42.542969 20.832031 42.1875 20.832031 C 42.1875 21.347656 42.1875 21.863281 42.1875 22.394531 C 41.84375 22.394531 41.5 22.394531 41.144531 22.394531 C 41.144531 20.332031 41.144531 18.269531 41.144531 16.144531 Z M 41.144531 16.144531 "/>
<path style=" stroke:none;fill-rule:nonzero;fill:rgb(42.745098%,39.215687%,39.607844%);fill-opacity:1;" d="M 25.519531 6.25 C 26.175781 6.238281 26.832031 6.226562 27.507812 6.21875 C 27.875 6.210938 28.242188 6.207031 28.625 6.199219 C 29.6875 6.25 29.6875 6.25 31.25 6.769531 C 31.25 7.113281 31.25 7.457031 31.25 7.8125 C 27.339844 8.003906 27.339844 8.003906 26.042969 7.03125 C 25.871094 6.773438 25.699219 6.515625 25.519531 6.25 Z M 25.519531 6.25 "/>
<path style=" stroke:none;fill-rule:nonzero;fill:rgb(41.960785%,38.039216%,38.039216%);fill-opacity:1;" d="M 39.582031 35.417969 C 39.753906 35.933594 39.925781 36.449219 40.105469 36.980469 C 38.902344 38.183594 37.699219 39.386719 36.457031 40.625 C 36.285156 40.109375 36.113281 39.59375 35.9375 39.0625 C 37.140625 37.859375 38.34375 36.65625 39.582031 35.417969 Z M 39.582031 35.417969 "/>
<path style=" stroke:none;fill-rule:nonzero;fill:rgb(94.117647%,80.000001%,54.11765%);fill-opacity:1;" d="M 21.355469 7.292969 C 23.246094 7.292969 25.136719 7.292969 27.082031 7.292969 C 27.253906 7.808594 27.425781 8.324219 27.605469 8.855469 C 26.917969 8.855469 26.230469 8.855469 25.519531 8.855469 C 25.519531 8.511719 25.519531 8.167969 25.519531 7.8125 C 23.199219 8.070312 23.199219 8.070312 20.832031 8.332031 C 21.003906 7.988281 21.175781 7.644531 21.355469 7.292969 Z M 21.355469 7.292969 "/>
<path style=" stroke:none;fill-rule:nonzero;fill:rgb(92.156863%,71.372551%,39.607844%);fill-opacity:1;" d="M 20.3125 40.625 C 21.859375 40.882812 21.859375 40.882812 23.4375 41.144531 C 23.09375 42.003906 22.75 42.863281 22.394531 43.75 C 21.707031 43.578125 21.019531 43.40625 20.3125 43.230469 C 20.3125 42.359375 20.3125 41.492188 20.3125 40.625 Z M 20.3125 40.625 "/>
<path style=" stroke:none;fill-rule:nonzero;fill:rgb(93.725491%,74.509805%,43.137255%);fill-opacity:1;" d="M 20.3125 7.292969 C 18.402344 8.3125 16.734375 9.058594 14.582031 9.375 C 16.226562 7.472656 17.847656 6.46875 20.3125 7.292969 Z M 20.3125 7.292969 "/>
<path style=" stroke:none;fill-rule:nonzero;fill:rgb(91.37255%,71.372551%,39.607844%);fill-opacity:1;" d="M 10.417969 35.417969 C 12.890625 35.808594 12.890625 35.808594 14.0625 36.980469 C 13.890625 37.496094 13.71875 38.011719 13.542969 38.542969 C 11.003906 36.589844 11.003906 36.589844 10.417969 35.417969 Z M 10.417969 35.417969 "/>
<path style=" stroke:none;fill-rule:nonzero;fill:rgb(97.647059%,85.882354%,61.56863%);fill-opacity:1;" d="M 13.542969 33.332031 C 14.574219 33.847656 14.574219 33.847656 15.625 34.375 C 15.625 34.890625 15.625 35.40625 15.625 35.9375 C 14.9375 35.9375 14.25 35.9375 13.542969 35.9375 C 13.542969 35.078125 13.542969 34.21875 13.542969 33.332031 Z M 13.542969 33.332031 "/>
</g>
</svg>
