<?xml version="1.0" encoding="UTF-8"?>
<svg xmlns="http://www.w3.org/2000/svg" xmlns:xlink="http://www.w3.org/1999/xlink" width="50px" height="50px" viewBox="0 0 50 50" version="1.1">
<g id="surface1">
<path style=" stroke:none;fill-rule:nonzero;fill:rgb(47.058824%,46.666667%,51.372552%);fill-opacity:1;" d="M 33.730469 7.574219 C 38.566406 10.722656 42.222656 14.691406 43.75 20.3125 C 44.386719 26.074219 44.203125 31.523438 40.632812 36.273438 C 37.457031 40.019531 33.71875 43.304688 28.640625 43.867188 C 22.183594 44.207031 17.417969 43.761719 12.335938 39.453125 C 8.847656 36.117188 6.335938 32.464844 6.074219 27.515625 C 5.9375 20.582031 6.847656 16.207031 11.785156 11.042969 C 17.421875 5.8125 26.648438 4.113281 33.730469 7.574219 Z M 33.730469 7.574219 "/>
<path style=" stroke:none;fill-rule:nonzero;fill:rgb(97.254902%,84.705883%,59.215689%);fill-opacity:1;" d="M 25.519531 6.25 C 30.417969 5.886719 33.945312 7.347656 37.664062 10.546875 C 41.152344 13.882812 43.664062 17.535156 43.925781 22.484375 C 44.0625 29.417969 43.152344 33.792969 38.214844 38.957031 C 34.410156 42.484375 30.683594 43.929688 25.519531 43.75 C 25.722656 43.523438 25.921875 43.296875 26.132812 43.0625 C 26.539062 42.597656 26.539062 42.597656 26.953125 42.121094 C 27.21875 41.820312 27.484375 41.519531 27.757812 41.207031 C 32.414062 35.421875 33.476562 28.082031 32.929688 20.824219 C 32.28125 15.085938 29.679688 10.21875 25.519531 6.25 Z M 25.519531 6.25 "/>
<path style=" stroke:none;fill-rule:nonzero;fill:rgb(98.823529%,91.764706%,70.588237%);fill-opacity:1;" d="M 30.207031 10.417969 C 33.011719 11.222656 35.382812 11.945312 37.5 14.0625 C 37.5 14.40625 37.5 14.75 37.5 15.105469 C 38.015625 15.105469 38.53125 15.105469 39.0625 15.105469 C 40.011719 18.808594 40.835938 22.210938 40.625 26.042969 C 40.625 26.558594 40.625 27.074219 40.625 27.605469 C 39.902344 28.726562 39.902344 28.726562 38.933594 29.949219 C 38.617188 30.351562 38.304688 30.753906 37.980469 31.167969 C 37.015625 32.25 36.109375 33.070312 34.894531 33.855469 C 34.550781 33.855469 34.207031 33.855469 33.855469 33.855469 C 34.539062 31.804688 35.375 30.609375 36.980469 29.167969 C 36.636719 29.167969 36.292969 29.167969 35.9375 29.167969 C 35.679688 28.394531 35.679688 28.394531 35.417969 27.605469 C 34.367188 27.222656 34.367188 27.222656 33.332031 27.082031 C 33.3125 26.410156 33.3125 26.410156 33.292969 25.726562 C 33.101562 21.742188 32.511719 18.273438 31.21875 14.5 C 30.769531 13.140625 30.457031 11.824219 30.207031 10.417969 Z M 30.207031 10.417969 "/>
<path style=" stroke:none;fill-rule:nonzero;fill:rgb(90.196079%,72.941178%,46.27451%);fill-opacity:1;" d="M 25.519531 6.25 C 30.417969 5.886719 33.945312 7.347656 37.664062 10.546875 C 41.152344 13.882812 43.664062 17.535156 43.925781 22.484375 C 44.0625 29.417969 43.152344 33.792969 38.214844 38.957031 C 34.410156 42.484375 30.683594 43.929688 25.519531 43.75 C 25.992188 43.160156 26.472656 42.574219 26.953125 41.992188 C 27.21875 41.664062 27.484375 41.339844 27.757812 41.003906 C 28.699219 40.046875 29.480469 39.542969 30.730469 39.0625 C 31.0625 39.160156 31.394531 39.257812 31.738281 39.355469 C 32.855469 39.695312 32.855469 39.695312 34.015625 39.09375 C 36.578125 37.128906 38.761719 34.726562 40.105469 31.769531 C 40.449219 31.769531 40.792969 31.769531 41.144531 31.769531 C 42.417969 27.183594 42.570312 20.808594 40.253906 16.578125 C 39.285156 15.199219 38.230469 13.929688 37.070312 12.714844 C 36.457031 11.980469 36.457031 11.980469 36.457031 10.9375 C 36.191406 10.894531 35.921875 10.851562 35.644531 10.808594 C 34.375 10.417969 34.375 10.417969 32.714844 9.40625 C 30.871094 8.296875 29.101562 7.898438 26.988281 7.546875 C 26.675781 7.464844 26.363281 7.378906 26.042969 7.292969 C 25.871094 6.949219 25.699219 6.605469 25.519531 6.25 Z M 25.519531 6.25 "/>
<path style=" stroke:none;fill-rule:nonzero;fill:rgb(53.333336%,52.941179%,58.039218%);fill-opacity:1;" d="M 26.042969 12.5 C 26.042969 13.1875 26.042969 13.875 26.042969 14.582031 C 26.730469 14.753906 27.417969 14.925781 28.125 15.105469 C 27.476562 17.105469 26.910156 18.289062 25 19.269531 C 23.59375 19.136719 22.613281 18.859375 21.355469 18.230469 C 21.386719 18.710938 21.417969 19.195312 21.453125 19.695312 C 21.355469 21.355469 21.355469 21.355469 20.800781 22.363281 C 19.207031 23.238281 17.867188 22.753906 16.144531 22.394531 C 15.105469 18.878906 15.105469 18.878906 15.105469 17.707031 C 17.914062 16.109375 17.914062 16.109375 19.402344 16.277344 C 20.0625 16.558594 20.710938 16.867188 21.355469 17.1875 C 21.011719 15.984375 20.667969 14.78125 20.3125 13.542969 C 22.410156 12 23.527344 11.855469 26.042969 12.5 Z M 26.042969 12.5 "/>
<path style=" stroke:none;fill-rule:nonzero;fill:rgb(38.039216%,37.64706%,43.529412%);fill-opacity:1;" d="M 25.519531 6.25 C 25.519531 6.765625 25.519531 7.28125 25.519531 7.8125 C 24.929688 7.875 24.339844 7.941406 23.730469 8.007812 C 23.117188 8.117188 22.507812 8.222656 21.875 8.332031 C 21.703125 8.675781 21.53125 9.019531 21.355469 9.375 C 19.757812 9.699219 19.757812 9.699219 18.230469 9.894531 C 18.230469 9.550781 18.230469 9.207031 18.230469 8.855469 C 16.171875 9.953125 14.882812 11.125 13.445312 12.957031 C 12.917969 13.613281 12.917969 13.613281 12.378906 14.285156 C 11.484375 15.585938 10.941406 16.746094 10.417969 18.230469 C 10.277344 18.578125 10.136719 18.925781 9.992188 19.285156 C 9.179688 21.359375 8.613281 23.296875 8.332031 25.519531 C 8.160156 25.519531 7.988281 25.519531 7.8125 25.519531 C 7.640625 24.660156 7.46875 23.800781 7.292969 22.917969 C 7.121094 24.808594 6.949219 26.699219 6.769531 28.644531 C 6.597656 28.644531 6.425781 28.644531 6.25 28.644531 C 5.960938 22.140625 6.148438 17.511719 10.546875 12.335938 C 14.976562 7.703125 19.144531 6.023438 25.519531 6.25 Z M 25.519531 6.25 "/>
<path style=" stroke:none;fill-rule:nonzero;fill:rgb(96.862745%,83.137256%,57.647061%);fill-opacity:1;" d="M 27.605469 7.8125 C 31.214844 7.605469 33.554688 8.886719 36.457031 10.9375 C 37.921875 12.371094 39.027344 13.886719 40.105469 15.625 C 40.328125 15.960938 40.554688 16.292969 40.789062 16.636719 C 42.921875 20.417969 42.6875 25.46875 42.1875 29.6875 C 41.496094 31.59375 41.496094 31.59375 40.105469 32.292969 C 39.8125 32.953125 39.8125 32.953125 39.519531 33.625 C 38.21875 36.007812 36.53125 37.929688 34.375 39.582031 C 32.9375 39.964844 32.9375 39.964844 31.769531 40.105469 C 32.105469 39.804688 32.4375 39.503906 32.78125 39.191406 C 33.917969 38.148438 33.917969 38.148438 34.082031 36.980469 C 34.53125 35.382812 35.671875 34.792969 36.980469 33.855469 C 37.238281 34.113281 37.238281 34.113281 37.5 34.375 C 38.015625 33.738281 38.523438 33.097656 39.03125 32.453125 C 39.457031 31.917969 39.457031 31.917969 39.890625 31.375 C 41.417969 28.945312 41.214844 26.320312 41.179688 23.535156 C 41.175781 23.175781 41.171875 22.8125 41.171875 22.441406 C 41.164062 21.558594 41.15625 20.675781 41.144531 19.792969 C 40.800781 19.792969 40.457031 19.792969 40.105469 19.792969 C 40.105469 19.277344 40.105469 18.761719 40.105469 18.230469 C 39.761719 18.230469 39.417969 18.230469 39.0625 18.230469 C 39.0625 17.199219 39.0625 16.167969 39.0625 15.105469 C 38.546875 15.105469 38.03125 15.105469 37.5 15.105469 C 37.5 14.761719 37.5 14.417969 37.5 14.0625 C 36.984375 13.890625 36.46875 13.71875 35.9375 13.542969 C 35.9375 13.199219 35.9375 12.855469 35.9375 12.5 C 35.609375 12.394531 35.285156 12.285156 34.949219 12.175781 C 34.523438 12.035156 34.097656 11.894531 33.660156 11.75 C 33.234375 11.613281 32.8125 11.472656 32.378906 11.332031 C 31.25 10.9375 31.25 10.9375 30.207031 10.417969 C 30.035156 10.761719 29.863281 11.105469 29.6875 11.457031 C 28.65625 9.652344 28.65625 9.652344 27.605469 7.8125 Z M 27.605469 7.8125 "/>
<path style=" stroke:none;fill-rule:nonzero;fill:rgb(50.588238%,50.196081%,54.901963%);fill-opacity:1;" d="M 19.402344 16.210938 C 20.3125 16.667969 20.3125 16.667969 21.355469 18.230469 C 21.523438 19.851562 21.59375 20.917969 20.800781 22.363281 C 19.207031 23.238281 17.867188 22.753906 16.144531 22.394531 C 15.105469 18.878906 15.105469 18.878906 15.105469 17.707031 C 17.886719 16.125 17.886719 16.125 19.402344 16.210938 Z M 19.402344 16.210938 "/>
<path style=" stroke:none;fill-rule:nonzero;fill:rgb(41.960785%,41.176471%,45.882353%);fill-opacity:1;" d="M 25.519531 6.769531 C 28.058594 8.136719 28.058594 8.136719 28.644531 9.894531 C 25.550781 9.378906 25.550781 9.378906 22.394531 8.855469 C 22.222656 9.371094 22.050781 9.886719 21.875 10.417969 C 21.316406 10.480469 20.757812 10.546875 20.183594 10.613281 C 17.15625 11.117188 15.800781 12.195312 13.671875 14.386719 C 13.046875 15.027344 13.046875 15.027344 12.410156 15.679688 C 12.097656 16.003906 11.78125 16.332031 11.457031 16.667969 C 11.285156 16.324219 11.113281 15.980469 10.9375 15.625 C 11.695312 14.691406 12.457031 13.757812 13.214844 12.824219 C 13.851562 12.046875 13.851562 12.046875 14.496094 11.25 C 15.625 9.894531 15.625 9.894531 16.667969 8.855469 C 17.183594 8.855469 17.699219 8.855469 18.230469 8.855469 C 18.230469 9.199219 18.230469 9.542969 18.230469 9.894531 C 19.261719 9.550781 20.292969 9.207031 21.355469 8.855469 C 21.183594 8.511719 21.011719 8.167969 20.832031 7.8125 C 22.378906 7.8125 23.925781 7.8125 25.519531 7.8125 C 25.519531 7.46875 25.519531 7.125 25.519531 6.769531 Z M 25.519531 6.769531 "/>
<path style=" stroke:none;fill-rule:nonzero;fill:rgb(96.078432%,80.392158%,53.333336%);fill-opacity:1;" d="M 40.625 17.1875 C 41.984375 19.910156 42.28125 21.875 42.285156 24.933594 C 42.292969 25.359375 42.296875 25.785156 42.304688 26.222656 C 42.304688 26.839844 42.304688 26.839844 42.308594 27.46875 C 42.308594 27.84375 42.3125 28.21875 42.3125 28.605469 C 42.167969 29.867188 41.8125 30.695312 41.144531 31.769531 C 40.800781 31.941406 40.457031 32.113281 40.105469 32.292969 C 39.910156 32.730469 39.71875 33.171875 39.519531 33.625 C 38.21875 36.007812 36.53125 37.929688 34.375 39.582031 C 32.9375 39.964844 32.9375 39.964844 31.769531 40.105469 C 32.105469 39.804688 32.4375 39.503906 32.78125 39.191406 C 33.917969 38.148438 33.917969 38.148438 34.082031 36.980469 C 34.53125 35.382812 35.671875 34.792969 36.980469 33.855469 C 37.152344 34.027344 37.324219 34.199219 37.5 34.375 C 38.015625 33.738281 38.523438 33.097656 39.03125 32.453125 C 39.3125 32.097656 39.597656 31.742188 39.890625 31.375 C 42.304688 27.546875 41.421875 21.464844 40.625 17.1875 Z M 40.625 17.1875 "/>
<path style=" stroke:none;fill-rule:nonzero;fill:rgb(30.980393%,30.588236%,37.254903%);fill-opacity:1;" d="M 14.582031 8.855469 C 14.582031 9.371094 14.582031 9.886719 14.582031 10.417969 C 14.101562 10.59375 14.101562 10.59375 13.605469 10.773438 C 12.128906 11.6875 12.027344 12.429688 11.457031 14.0625 C 11.140625 14.730469 10.816406 15.390625 10.480469 16.046875 C 10.300781 16.410156 10.125 16.769531 9.9375 17.140625 C 9.578125 17.839844 9.195312 18.527344 8.796875 19.203125 C 7.058594 22.238281 6.886719 25.191406 6.769531 28.644531 C 6.597656 28.644531 6.425781 28.644531 6.25 28.644531 C 5.953125 22.03125 6.160156 17.441406 10.710938 12.238281 C 11.96875 10.898438 13.050781 9.875 14.582031 8.855469 Z M 14.582031 8.855469 "/>
<path style=" stroke:none;fill-rule:nonzero;fill:rgb(28.627452%,28.235295%,32.941177%);fill-opacity:1;" d="M 10.417969 35.417969 C 12.136719 35.589844 13.855469 35.761719 15.625 35.9375 C 15.796875 37.828125 15.96875 39.71875 16.144531 41.667969 C 13.867188 40.753906 13.125 40.398438 11.554688 38.738281 C 11.242188 38.40625 10.925781 38.078125 10.601562 37.738281 C 10.367188 37.488281 10.136719 37.238281 9.894531 36.980469 C 10.066406 36.464844 10.238281 35.949219 10.417969 35.417969 Z M 10.417969 35.417969 "/>
<path style=" stroke:none;fill-rule:nonzero;fill:rgb(34.509805%,34.117648%,39.607844%);fill-opacity:1;" d="M 25.519531 6.25 C 25.519531 6.765625 25.519531 7.28125 25.519531 7.8125 C 24.929688 7.875 24.339844 7.941406 23.730469 8.007812 C 22.8125 8.167969 22.8125 8.167969 21.875 8.332031 C 21.703125 8.675781 21.53125 9.019531 21.355469 9.375 C 19.757812 9.699219 19.757812 9.699219 18.230469 9.894531 C 18.230469 9.550781 18.230469 9.207031 18.230469 8.855469 C 17.371094 8.855469 16.511719 8.855469 15.625 8.855469 C 18.148438 5.769531 21.890625 6.121094 25.519531 6.25 Z M 25.519531 6.25 "/>
<path style=" stroke:none;fill-rule:nonzero;fill:rgb(85.490197%,68.235296%,42.745098%);fill-opacity:1;" d="M 40.625 33.332031 C 40.96875 33.503906 41.3125 33.675781 41.667969 33.855469 C 40.101562 38.359375 36.542969 40.820312 32.394531 42.855469 C 31.25 43.230469 31.25 43.230469 29.6875 42.707031 C 30.730469 41.667969 30.730469 41.667969 32.097656 41.601562 C 32.503906 41.625 32.914062 41.644531 33.332031 41.667969 C 33.503906 41.152344 33.675781 40.636719 33.855469 40.105469 C 35.648438 38.542969 35.648438 38.542969 36.980469 38.542969 C 37.152344 38.027344 37.324219 37.511719 37.5 36.980469 C 38.015625 36.980469 38.53125 36.980469 39.0625 36.980469 C 39.125 36.667969 39.191406 36.355469 39.257812 36.035156 C 39.582031 34.894531 39.582031 34.894531 40.625 33.332031 Z M 40.625 33.332031 "/>
<path style=" stroke:none;fill-rule:nonzero;fill:rgb(90.196079%,72.941178%,45.882353%);fill-opacity:1;" d="M 29.6875 39.0625 C 30.792969 39.257812 30.792969 39.257812 31.769531 39.582031 C 31.425781 40.269531 31.082031 40.957031 30.730469 41.667969 C 30.386719 41.667969 30.042969 41.667969 29.6875 41.667969 C 29.6875 42.355469 29.6875 43.042969 29.6875 43.75 C 28.3125 43.75 26.9375 43.75 25.519531 43.75 C 26.019531 43.164062 26.519531 42.578125 27.019531 41.992188 C 27.296875 41.664062 27.574219 41.339844 27.859375 41.003906 C 28.445312 40.335938 29.058594 39.691406 29.6875 39.0625 Z M 29.6875 39.0625 "/>
<path style=" stroke:none;fill-rule:nonzero;fill:rgb(33.333334%,32.941177%,39.215687%);fill-opacity:1;" d="M 10.9375 13.019531 C 11.28125 13.191406 11.625 13.363281 11.980469 13.542969 C 11.292969 14.230469 10.605469 14.917969 9.894531 15.625 C 10.351562 13.605469 10.351562 13.605469 10.9375 13.019531 Z M 8.332031 16.667969 C 8.675781 16.667969 9.019531 16.667969 9.375 16.667969 C 9.148438 18.195312 8.859375 19.257812 8.074219 20.605469 C 6.933594 23.214844 6.902344 25.828125 6.769531 28.644531 C 6.597656 28.644531 6.425781 28.644531 6.25 28.644531 C 6.25 25.894531 6.25 23.144531 6.25 20.3125 C 6.59375 20.3125 6.9375 20.3125 7.292969 20.3125 C 7.636719 19.109375 7.980469 17.90625 8.332031 16.667969 Z M 8.332031 16.667969 "/>
<path style=" stroke:none;fill-rule:nonzero;fill:rgb(96.470588%,82.745099%,56.862748%);fill-opacity:1;" d="M 27.605469 7.8125 C 30.539062 7.527344 31.972656 8.359375 34.375 9.894531 C 32.867188 10.328125 31.828125 10.417969 30.207031 10.417969 C 30.035156 10.761719 29.863281 11.105469 29.6875 11.457031 C 28.65625 9.652344 28.65625 9.652344 27.605469 7.8125 Z M 27.605469 7.8125 "/>
<path style=" stroke:none;fill-rule:nonzero;fill:rgb(44.705883%,44.313726%,48.235294%);fill-opacity:1;" d="M 24.480469 9.375 C 26.027344 9.546875 27.574219 9.71875 29.167969 9.894531 C 29.167969 10.582031 29.167969 11.269531 29.167969 11.980469 C 27.359375 11.742188 25.691406 11.515625 23.957031 10.9375 C 24.128906 10.421875 24.300781 9.90625 24.480469 9.375 Z M 24.480469 9.375 "/>
<path style=" stroke:none;fill-rule:nonzero;fill:rgb(84.313726%,67.450982%,42.745098%);fill-opacity:1;" d="M 43.230469 25.519531 C 43.402344 25.519531 43.574219 25.519531 43.75 25.519531 C 43.921875 28.753906 43.464844 30.875 42.1875 33.855469 C 42.015625 33.855469 41.84375 33.855469 41.667969 33.855469 C 41.566406 28.011719 41.566406 28.011719 43.230469 25.519531 Z M 43.230469 25.519531 "/>
<path style=" stroke:none;fill-rule:nonzero;fill:rgb(32.549021%,32.156864%,37.64706%);fill-opacity:1;" d="M 24.578125 42.15625 C 25.558594 42.171875 25.558594 42.171875 26.5625 42.1875 C 26.046875 42.960938 26.046875 42.960938 25.519531 43.75 C 24.28125 43.902344 24.28125 43.902344 22.851562 43.847656 C 22.378906 43.832031 21.902344 43.820312 21.414062 43.804688 C 21.050781 43.785156 20.6875 43.769531 20.3125 43.75 C 21.214844 41.949219 22.769531 42.125 24.578125 42.15625 Z M 24.578125 42.15625 "/>
<path style=" stroke:none;fill-rule:nonzero;fill:rgb(80.392158%,63.921571%,41.176471%);fill-opacity:1;" d="M 33.855469 40.105469 C 34.714844 40.105469 35.574219 40.105469 36.457031 40.105469 C 34.804688 41.523438 33.359375 42.617188 31.25 43.230469 C 30.734375 43.058594 30.21875 42.886719 29.6875 42.707031 C 30.730469 41.667969 30.730469 41.667969 32.097656 41.601562 C 32.503906 41.625 32.914062 41.644531 33.332031 41.667969 C 33.503906 41.152344 33.675781 40.636719 33.855469 40.105469 Z M 33.855469 40.105469 "/>
<path style=" stroke:none;fill-rule:nonzero;fill:rgb(25.490198%,25.490198%,29.803923%);fill-opacity:1;" d="M 10.417969 35.9375 C 11.277344 35.9375 12.136719 35.9375 13.019531 35.9375 C 13.019531 37.140625 13.019531 38.34375 13.019531 39.582031 C 11.988281 38.722656 10.957031 37.863281 9.894531 36.980469 C 10.066406 36.636719 10.238281 36.292969 10.417969 35.9375 Z M 10.417969 35.9375 "/>
<path style=" stroke:none;fill-rule:nonzero;fill:rgb(80.784315%,65.098041%,42.352942%);fill-opacity:1;" d="M 39.0625 12.5 C 42.105469 15.382812 42.105469 15.382812 42.707031 17.1875 C 42.535156 17.703125 42.363281 18.21875 42.1875 18.75 C 39.917969 16.933594 39.613281 15.246094 39.0625 12.5 Z M 39.0625 12.5 "/>
<path style=" stroke:none;fill-rule:nonzero;fill:rgb(94.509804%,78.039217%,48.627451%);fill-opacity:1;" d="M 36.457031 33.855469 C 36.800781 34.027344 37.144531 34.199219 37.5 34.375 C 37.140625 35.382812 37.140625 35.382812 36.457031 36.457031 C 35.089844 36.847656 35.089844 36.847656 33.855469 36.980469 C 34.714844 35.949219 35.574219 34.917969 36.457031 33.855469 Z M 36.457031 33.855469 "/>
<path style=" stroke:none;fill-rule:nonzero;fill:rgb(93.333334%,80.000001%,54.509807%);fill-opacity:1;" d="M 28.125 8.855469 C 29.621094 8.757812 29.621094 8.757812 31.25 8.855469 C 31.59375 9.371094 31.9375 9.886719 32.292969 10.417969 C 31.605469 10.417969 30.917969 10.417969 30.207031 10.417969 C 30.035156 10.761719 29.863281 11.105469 29.6875 11.457031 C 29.171875 10.597656 28.65625 9.738281 28.125 8.855469 Z M 28.125 8.855469 "/>
<path style=" stroke:none;fill-rule:nonzero;fill:rgb(92.156863%,74.901962%,47.450981%);fill-opacity:1;" d="M 36.457031 11.457031 C 37.695312 11.589844 37.695312 11.589844 39.0625 11.980469 C 39.777344 12.957031 39.777344 12.957031 40.105469 14.0625 C 39.933594 14.578125 39.761719 15.09375 39.582031 15.625 C 38.550781 14.25 37.519531 12.875 36.457031 11.457031 Z M 36.457031 11.457031 "/>
<path style=" stroke:none;fill-rule:nonzero;fill:rgb(97.647059%,86.274511%,62.352943%);fill-opacity:1;" d="M 32.292969 9.894531 C 33.820312 10.320312 33.820312 10.320312 35.417969 10.9375 C 35.589844 11.453125 35.761719 11.96875 35.9375 12.5 C 34.390625 11.984375 32.84375 11.46875 31.25 10.9375 C 31.59375 10.59375 31.9375 10.25 32.292969 9.894531 Z M 32.292969 9.894531 "/>
</g>
</svg>
