<?xml version="1.0" encoding="UTF-8"?>
<svg xmlns="http://www.w3.org/2000/svg" xmlns:xlink="http://www.w3.org/1999/xlink" width="50px" height="50px" viewBox="0 0 50 50" version="1.1">
<g id="surface1">
<path style=" stroke:none;fill-rule:nonzero;fill:rgb(98.039216%,85.882354%,59.215689%);fill-opacity:1;" d="M 33.730469 7.574219 C 38.566406 10.722656 42.222656 14.691406 43.75 20.3125 C 44.386719 26.074219 44.203125 31.523438 40.632812 36.273438 C 37.457031 40.019531 33.71875 43.304688 28.640625 43.867188 C 22.183594 44.207031 17.417969 43.761719 12.335938 39.453125 C 8.847656 36.117188 6.335938 32.464844 6.074219 27.515625 C 5.9375 20.582031 6.847656 16.207031 11.785156 11.042969 C 17.421875 5.8125 26.648438 4.113281 33.730469 7.574219 Z M 33.730469 7.574219 "/>
<path style=" stroke:none;fill-rule:nonzero;fill:rgb(99.607843%,93.333334%,72.941178%);fill-opacity:1;" d="M 28.539062 6.691406 C 32.238281 8.214844 36.332031 9.964844 38.632812 13.417969 C 39.234375 15.042969 39.425781 16.644531 39.648438 18.359375 C 39.78125 19.347656 39.78125 19.347656 39.914062 20.351562 C 39.976562 20.855469 40.039062 21.359375 40.105469 21.875 C 40.277344 21.875 40.449219 21.875 40.625 21.875 C 40.625 23.25 40.625 24.625 40.625 26.042969 C 40.96875 26.042969 41.3125 26.042969 41.667969 26.042969 C 41.667969 26.386719 41.667969 26.730469 41.667969 27.082031 C 41.324219 27.082031 40.980469 27.082031 40.625 27.082031 C 40.59375 27.375 40.5625 27.664062 40.527344 27.960938 C 39.695312 30.324219 37.472656 31.988281 35.417969 33.332031 C 35.074219 33.332031 34.730469 33.332031 34.375 33.332031 C 34.65625 31.355469 35.523438 30.484375 36.980469 29.167969 C 36.636719 29.167969 36.292969 29.167969 35.9375 29.167969 C 35.765625 28.652344 35.59375 28.136719 35.417969 27.605469 C 34.441406 27.1875 34.441406 27.1875 33.300781 26.984375 C 32.726562 26.863281 32.726562 26.863281 32.144531 26.734375 C 31.847656 26.679688 31.554688 26.621094 31.25 26.5625 C 31.078125 27.078125 30.90625 27.59375 30.730469 28.125 C 29.394531 29.003906 29.394531 29.003906 28.125 29.6875 C 28.125 29 28.125 28.3125 28.125 27.605469 C 27.78125 27.605469 27.4375 27.605469 27.082031 27.605469 C 27.253906 26.574219 27.425781 25.542969 27.605469 24.480469 C 27.261719 24.480469 26.917969 24.480469 26.5625 24.480469 C 26.390625 24.996094 26.21875 25.511719 26.042969 26.042969 C 25.011719 26.042969 23.980469 26.042969 22.917969 26.042969 C 23.765625 27.992188 23.765625 27.992188 25 29.6875 C 24.851562 30.90625 24.675781 32.121094 24.480469 33.332031 C 23.449219 33.589844 23.449219 33.589844 22.394531 33.855469 C 21.261719 32.152344 21.28125 31.734375 21.289062 29.785156 C 21.15625 27.734375 21.15625 27.734375 19.875 26.210938 C 19.492188 25.972656 19.109375 25.734375 18.71875 25.488281 C 16.753906 24.234375 16.753906 24.234375 16.335938 22.890625 C 16.265625 19.945312 17.105469 17.277344 18.230469 14.582031 C 18.414062 14.140625 18.597656 13.695312 18.785156 13.242188 C 20.78125 8.835938 23.292969 5.101562 28.539062 6.691406 Z M 28.539062 6.691406 "/>
<path style=" stroke:none;fill-rule:nonzero;fill:rgb(42.352942%,41.960785%,46.666667%);fill-opacity:1;" d="M 24.480469 6.25 C 24.101562 6.59375 23.726562 6.9375 23.339844 7.292969 C 17.980469 12.667969 17.03125 19.070312 17.023438 26.328125 C 17.109375 32.960938 19.105469 38.117188 23.632812 43 C 23.914062 43.25 24.191406 43.496094 24.480469 43.75 C 19.582031 44.113281 16.054688 42.652344 12.335938 39.453125 C 8.847656 36.117188 6.335938 32.464844 6.074219 27.515625 C 5.9375 20.582031 6.847656 16.207031 11.785156 11.042969 C 15.589844 7.515625 19.316406 6.070312 24.480469 6.25 Z M 24.480469 6.25 "/>
<path style=" stroke:none;fill-rule:nonzero;fill:rgb(95.294118%,78.823531%,50.588238%);fill-opacity:1;" d="M 27.082031 6.25 C 32.214844 6.535156 36.195312 8.625 39.710938 12.367188 C 43.808594 17.628906 44.246094 23.257812 43.75 29.6875 C 42.859375 34.410156 39.582031 38.085938 35.859375 40.972656 C 32.367188 43.257812 28.675781 44.519531 24.480469 43.75 C 22.222656 42.472656 20.855469 40.890625 19.792969 38.542969 C 21.355469 39.0625 21.355469 39.0625 21.972656 39.875 C 23.277344 40.910156 24.464844 40.835938 26.085938 40.78125 C 27.429688 40.570312 28.121094 39.90625 29.167969 39.0625 C 30.085938 38.933594 30.085938 38.933594 31.023438 38.800781 C 32.792969 38.699219 32.792969 38.699219 33.820312 37.726562 C 34.003906 37.480469 34.1875 37.234375 34.375 36.980469 C 34.03125 36.980469 33.6875 36.980469 33.332031 36.980469 C 33.933594 35.695312 34.398438 34.871094 35.417969 33.855469 C 36.785156 34.050781 36.785156 34.050781 38.019531 34.375 C 39.355469 32.808594 39.839844 31.613281 40.167969 29.589844 C 40.582031 27.128906 40.582031 27.128906 41.144531 26.5625 C 40.628906 26.304688 40.628906 26.304688 40.105469 26.042969 C 40.105469 25.011719 40.105469 23.980469 40.105469 22.917969 C 39.933594 22.917969 39.761719 22.917969 39.582031 22.917969 C 39.480469 22.050781 39.480469 22.050781 39.375 21.167969 C 39.28125 20.40625 39.1875 19.640625 39.09375 18.878906 C 39.027344 18.308594 39.027344 18.308594 38.957031 17.730469 C 38.652344 15.082031 38.652344 15.082031 38.019531 12.5 C 37.046875 11.882812 37.046875 11.882812 35.9375 11.457031 C 35.421875 11.113281 34.90625 10.769531 34.375 10.417969 C 34.375 10.074219 34.375 9.730469 34.375 9.375 C 34.066406 9.273438 33.757812 9.171875 33.441406 9.070312 C 31.292969 8.363281 29.167969 7.644531 27.082031 6.769531 C 27.082031 6.597656 27.082031 6.425781 27.082031 6.25 Z M 27.082031 6.25 "/>
<path style=" stroke:none;fill-rule:nonzero;fill:rgb(33.333334%,32.941177%,39.215687%);fill-opacity:1;" d="M 24.480469 6.25 C 22.863281 7.957031 21.371094 9.339844 19.269531 10.417969 C 18.925781 10.417969 18.582031 10.417969 18.230469 10.417969 C 18.058594 10.074219 17.886719 9.730469 17.707031 9.375 C 14.140625 10.996094 11.667969 14.839844 9.894531 18.230469 C 9.558594 19.488281 9.269531 20.757812 9.015625 22.039062 C 8.886719 22.691406 8.753906 23.34375 8.621094 24.015625 C 8.527344 24.511719 8.429688 25.007812 8.332031 25.519531 C 8.160156 25.519531 7.988281 25.519531 7.8125 25.519531 C 7.640625 24.660156 7.46875 23.800781 7.292969 22.917969 C 7.121094 24.808594 6.949219 26.699219 6.769531 28.644531 C 6.597656 28.644531 6.425781 28.644531 6.25 28.644531 C 5.960938 22.140625 6.148438 17.511719 10.546875 12.335938 C 14.601562 8.09375 18.578125 6.046875 24.480469 6.25 Z M 24.480469 6.25 "/>
<path style=" stroke:none;fill-rule:nonzero;fill:rgb(96.862745%,82.352942%,55.29412%);fill-opacity:1;" d="M 27.082031 6.25 C 30.992188 7.433594 35.339844 9.304688 38.019531 12.5 C 38.144531 13.914062 38.144531 13.914062 38.019531 15.105469 C 37.761719 14.589844 37.761719 14.589844 37.5 14.0625 C 37.15625 14.0625 36.8125 14.0625 36.457031 14.0625 C 36.179688 13.742188 35.898438 13.417969 35.613281 13.085938 C 33.972656 11.621094 32.386719 11.132812 30.207031 10.9375 C 29.078125 11.394531 29.078125 11.394531 28.125 11.980469 C 26.636719 11.796875 25.378906 11.410156 23.957031 10.9375 C 23.957031 10.421875 23.957031 9.90625 23.957031 9.375 C 22.582031 10.234375 21.207031 11.09375 19.792969 11.980469 C 20.703125 8.535156 23.433594 5.835938 27.082031 6.25 Z M 27.082031 6.25 "/>
<path style=" stroke:none;fill-rule:nonzero;fill:rgb(90.588236%,72.549021%,43.921569%);fill-opacity:1;" d="M 40.625 33.332031 C 40.96875 33.503906 41.3125 33.675781 41.667969 33.855469 C 40.289062 37.820312 37.378906 40.292969 33.691406 42.15625 C 30.597656 43.585938 27.894531 44.304688 24.480469 43.75 C 22.21875 42.484375 20.851562 40.886719 19.792969 38.542969 C 21.355469 39.0625 21.355469 39.0625 21.972656 39.875 C 23.273438 40.910156 24.460938 40.835938 26.078125 40.785156 C 27.425781 40.570312 28.160156 39.957031 29.167969 39.0625 C 29.683594 39.0625 30.199219 39.0625 30.730469 39.0625 C 30.730469 39.578125 30.730469 40.09375 30.730469 40.625 C 29.6875 41.503906 29.6875 41.503906 28.644531 42.1875 C 32.453125 41.394531 35.402344 39.234375 38.019531 36.457031 C 38.363281 36.457031 38.707031 36.457031 39.0625 36.457031 C 39.222656 36.039062 39.382812 35.621094 39.550781 35.1875 C 40.105469 33.855469 40.105469 33.855469 40.625 33.332031 Z M 40.625 33.332031 "/>
<path style=" stroke:none;fill-rule:nonzero;fill:rgb(97.647059%,88.627452%,63.137257%);fill-opacity:1;" d="M 26.042969 12.5 C 26.042969 13.1875 26.042969 13.875 26.042969 14.582031 C 26.730469 14.753906 27.417969 14.925781 28.125 15.105469 C 27.375 16.855469 26.519531 18.097656 25 19.269531 C 23.699219 19.402344 23.699219 19.402344 22.394531 18.75 C 21.335938 17.175781 20.3125 15.46875 20.3125 13.542969 C 22.121094 11.589844 23.574219 11.976562 26.042969 12.5 Z M 26.042969 12.5 "/>
<path style=" stroke:none;fill-rule:nonzero;fill:rgb(37.64706%,37.254903%,42.745098%);fill-opacity:1;" d="M 24.480469 6.25 C 22.863281 7.957031 21.371094 9.339844 19.269531 10.417969 C 18.925781 10.417969 18.582031 10.417969 18.230469 10.417969 C 18.058594 10.074219 17.886719 9.730469 17.707031 9.375 C 14.097656 11.015625 11.75 14.847656 9.894531 18.230469 C 9.550781 18.058594 9.207031 17.886719 8.855469 17.707031 C 9.414062 16.695312 9.976562 15.6875 10.546875 14.679688 C 10.859375 14.117188 11.175781 13.558594 11.5 12.976562 C 12.445312 11.539062 13.210938 10.875 14.582031 9.894531 C 14.753906 9.378906 14.925781 8.863281 15.105469 8.332031 C 18.132812 6.570312 21.023438 5.996094 24.480469 6.25 Z M 24.480469 6.25 "/>
<path style=" stroke:none;fill-rule:nonzero;fill:rgb(82.745099%,67.058825%,43.137255%);fill-opacity:1;" d="M 27.082031 6.25 C 32.292969 6.539062 36.195312 8.664062 39.738281 12.46875 C 40.992188 13.988281 41.898438 15.386719 42.707031 17.1875 C 42.535156 17.703125 42.363281 18.21875 42.1875 18.75 C 42.144531 18.429688 42.101562 18.105469 42.058594 17.773438 C 41.777344 16.585938 41.777344 16.585938 40.691406 16.144531 C 40.324219 15.972656 39.960938 15.800781 39.582031 15.625 C 38.019531 13.839844 38.019531 13.839844 38.019531 12.5 C 37.554688 12.273438 37.554688 12.273438 37.078125 12.042969 C 35.9375 11.457031 35.9375 11.457031 34.375 10.417969 C 34.375 10.074219 34.375 9.730469 34.375 9.375 C 34.066406 9.273438 33.757812 9.171875 33.441406 9.070312 C 31.292969 8.363281 29.167969 7.644531 27.082031 6.769531 C 27.082031 6.597656 27.082031 6.425781 27.082031 6.25 Z M 27.082031 6.25 "/>
<path style=" stroke:none;fill-rule:nonzero;fill:rgb(95.686275%,87.058824%,62.7451%);fill-opacity:1;" d="M 17.707031 15.105469 C 17.878906 15.449219 18.050781 15.792969 18.230469 16.144531 C 18.5625 16.222656 18.894531 16.296875 19.238281 16.375 C 20.3125 16.667969 20.3125 16.667969 21.355469 18.230469 C 21.058594 21.648438 21.058594 21.648438 20.3125 22.394531 C 19.097656 22.417969 17.882812 22.417969 16.667969 22.394531 C 16.742188 21.472656 16.816406 20.550781 16.894531 19.628906 C 16.9375 19.117188 16.980469 18.601562 17.023438 18.074219 C 17.1875 16.667969 17.1875 16.667969 17.707031 15.105469 Z M 17.707031 15.105469 "/>
<path style=" stroke:none;fill-rule:nonzero;fill:rgb(28.627452%,28.235295%,32.941177%);fill-opacity:1;" d="M 10.417969 35.417969 C 12.136719 35.589844 13.855469 35.761719 15.625 35.9375 C 15.796875 37.828125 15.96875 39.71875 16.144531 41.667969 C 13.867188 40.753906 13.125 40.398438 11.554688 38.738281 C 11.242188 38.40625 10.925781 38.078125 10.601562 37.738281 C 10.367188 37.488281 10.136719 37.238281 9.894531 36.980469 C 10.066406 36.464844 10.238281 35.949219 10.417969 35.417969 Z M 10.417969 35.417969 "/>
<path style=" stroke:none;fill-rule:nonzero;fill:rgb(99.215686%,87.058824%,61.176473%);fill-opacity:1;" d="M 25.519531 7.8125 C 25.519531 8.328125 25.519531 8.84375 25.519531 9.375 C 27.410156 9.546875 29.300781 9.71875 31.25 9.894531 C 30.0625 11.355469 29.507812 11.9375 27.605469 12.175781 C 26.128906 11.988281 25.214844 11.710938 23.957031 10.9375 C 23.957031 10.421875 23.957031 9.90625 23.957031 9.375 C 22.582031 10.234375 21.207031 11.09375 19.792969 11.980469 C 20.292969 10.296875 20.65625 9.507812 22.070312 8.429688 C 23.4375 7.8125 23.4375 7.8125 25.519531 7.8125 Z M 25.519531 7.8125 "/>
<path style=" stroke:none;fill-rule:nonzero;fill:rgb(85.09804%,67.843139%,42.745098%);fill-opacity:1;" d="M 40.625 33.332031 C 40.96875 33.503906 41.3125 33.675781 41.667969 33.855469 C 40.101562 38.359375 36.542969 40.820312 32.394531 42.855469 C 31.25 43.230469 31.25 43.230469 29.6875 42.707031 C 33.050781 40.269531 33.050781 40.269531 34.734375 39.289062 C 36 38.566406 36 38.566406 37.078125 37.402344 C 37.542969 36.933594 37.542969 36.933594 38.019531 36.457031 C 38.363281 36.457031 38.707031 36.457031 39.0625 36.457031 C 39.222656 36.039062 39.382812 35.621094 39.550781 35.1875 C 40.105469 33.855469 40.105469 33.855469 40.625 33.332031 Z M 40.625 33.332031 "/>
<path style=" stroke:none;fill-rule:nonzero;fill:rgb(96.862745%,82.352942%,56.470591%);fill-opacity:1;" d="M 39.0625 15.105469 C 41.636719 17.675781 41.636719 17.675781 41.71875 20.496094 C 41.710938 21.15625 41.707031 21.816406 41.699219 22.492188 C 41.695312 23.15625 41.691406 23.820312 41.683594 24.5 C 41.679688 25.011719 41.671875 25.519531 41.667969 26.042969 C 41.152344 26.042969 40.636719 26.042969 40.105469 26.042969 C 40.105469 25.011719 40.105469 23.980469 40.105469 22.917969 C 39.933594 22.917969 39.761719 22.917969 39.582031 22.917969 C 39.410156 20.339844 39.238281 17.761719 39.0625 15.105469 Z M 39.0625 15.105469 "/>
<path style=" stroke:none;fill-rule:nonzero;fill:rgb(95.686275%,79.607844%,51.764709%);fill-opacity:1;" d="M 40.625 16.667969 C 40.96875 16.667969 41.3125 16.667969 41.667969 16.667969 C 42.902344 18.589844 42.90625 20.503906 42.902344 22.722656 C 42.90625 23.089844 42.90625 23.457031 42.90625 23.839844 C 42.84375 26.964844 42.113281 29.523438 40.625 32.292969 C 39.984375 30.367188 40.289062 29.058594 40.625 27.082031 C 40.96875 27.082031 41.3125 27.082031 41.667969 27.082031 C 41.59375 25.738281 41.515625 24.390625 41.4375 23.046875 C 41.417969 22.667969 41.398438 22.285156 41.375 21.894531 C 41.269531 20.089844 41.101562 18.410156 40.625 16.667969 Z M 40.625 16.667969 "/>
<path style=" stroke:none;fill-rule:nonzero;fill:rgb(84.705883%,67.843139%,42.745098%);fill-opacity:1;" d="M 42.707031 18.75 C 44.058594 20.773438 43.921875 22.488281 43.914062 24.835938 C 43.921875 25.242188 43.929688 25.648438 43.9375 26.066406 C 43.941406 28.996094 43.351562 31.164062 42.1875 33.855469 C 42.015625 33.855469 41.84375 33.855469 41.667969 33.855469 C 42.011719 28.871094 42.355469 23.886719 42.707031 18.75 Z M 42.707031 18.75 "/>
<path style=" stroke:none;fill-rule:nonzero;fill:rgb(34.509805%,33.725491%,38.82353%);fill-opacity:1;" d="M 24.480469 6.25 C 22.660156 8.335938 21.535156 9.179688 18.75 9.375 C 18.75 9.03125 18.75 8.6875 18.75 8.332031 C 17.71875 8.503906 16.6875 8.675781 15.625 8.855469 C 17.933594 6.035156 21.128906 6.132812 24.480469 6.25 Z M 24.480469 6.25 "/>
<path style=" stroke:none;fill-rule:nonzero;fill:rgb(30.980393%,30.588236%,37.254903%);fill-opacity:1;" d="M 14.582031 8.855469 C 14.582031 9.371094 14.582031 9.886719 14.582031 10.417969 C 14.25 10.554688 13.917969 10.695312 13.574219 10.839844 C 12.328125 11.398438 12.328125 11.398438 11.980469 13.019531 C 11.464844 13.363281 10.949219 13.707031 10.417969 14.0625 C 9.789062 15.390625 9.789062 15.390625 9.375 16.667969 C 9.03125 16.667969 8.6875 16.667969 8.332031 16.667969 C 8.269531 17.074219 8.203125 17.484375 8.136719 17.902344 C 7.8125 19.269531 7.8125 19.269531 6.769531 20.3125 C 6.957031 16.660156 9.007812 13.882812 11.550781 11.390625 C 12.542969 10.519531 13.546875 9.671875 14.582031 8.855469 Z M 14.582031 8.855469 "/>
<path style=" stroke:none;fill-rule:nonzero;fill:rgb(81.960785%,66.274512%,43.137255%);fill-opacity:1;" d="M 27.082031 6.25 C 30.640625 6.449219 33.429688 7.480469 36.457031 9.375 C 36.628906 9.71875 36.800781 10.0625 36.980469 10.417969 C 33.535156 9.46875 30.308594 8.304688 27.082031 6.769531 C 27.082031 6.597656 27.082031 6.425781 27.082031 6.25 Z M 27.082031 6.25 "/>
<path style=" stroke:none;fill-rule:nonzero;fill:rgb(97.254902%,84.705883%,60.000002%);fill-opacity:1;" d="M 32.292969 9.894531 C 34.625 10.027344 36.253906 11.019531 38.019531 12.5 C 38.214844 13.933594 38.214844 13.933594 38.019531 15.105469 C 37.847656 14.761719 37.675781 14.417969 37.5 14.0625 C 37.15625 14.0625 36.8125 14.0625 36.457031 14.0625 C 36.15625 13.742188 35.855469 13.417969 35.546875 13.085938 C 34.1875 11.800781 33.035156 11.425781 31.25 10.9375 C 31.59375 10.59375 31.9375 10.25 32.292969 9.894531 Z M 32.292969 9.894531 "/>
<path style=" stroke:none;fill-rule:nonzero;fill:rgb(93.725491%,78.431374%,52.156866%);fill-opacity:1;" d="M 25.75 6.054688 C 27.191406 6.265625 28.363281 6.6875 29.6875 7.292969 C 29.089844 8.082031 29.089844 8.082031 28.125 8.855469 C 26.71875 8.894531 26.71875 8.894531 25.164062 8.691406 C 24.386719 8.597656 24.386719 8.597656 23.59375 8.503906 C 23.199219 8.445312 22.804688 8.390625 22.394531 8.332031 C 24.105469 6.308594 24.105469 6.308594 25.75 6.054688 Z M 25.75 6.054688 "/>
<path style=" stroke:none;fill-rule:nonzero;fill:rgb(95.294118%,77.64706%,49.019608%);fill-opacity:1;" d="M 30.730469 39.582031 C 31.417969 39.753906 32.105469 39.925781 32.8125 40.105469 C 32.8125 40.449219 32.8125 40.792969 32.8125 41.144531 C 30.648438 42.769531 30.648438 42.769531 29.003906 42.546875 C 28.714844 42.425781 28.421875 42.308594 28.125 42.1875 C 28.839844 41.40625 28.839844 41.40625 29.6875 40.625 C 30.03125 40.625 30.375 40.625 30.730469 40.625 C 30.730469 40.28125 30.730469 39.9375 30.730469 39.582031 Z M 30.730469 39.582031 "/>
<path style=" stroke:none;fill-rule:nonzero;fill:rgb(97.647059%,85.490197%,61.176473%);fill-opacity:1;" d="M 39.582031 18.230469 C 39.753906 18.746094 39.925781 19.261719 40.105469 19.792969 C 40.449219 19.792969 40.792969 19.792969 41.144531 19.792969 C 41.144531 21.855469 41.144531 23.917969 41.144531 26.042969 C 40.800781 26.042969 40.457031 26.042969 40.105469 26.042969 C 40.105469 25.011719 40.105469 23.980469 40.105469 22.917969 C 39.933594 22.917969 39.761719 22.917969 39.582031 22.917969 C 39.582031 21.371094 39.582031 19.824219 39.582031 18.230469 Z M 39.582031 18.230469 "/>
<path style=" stroke:none;fill-rule:nonzero;fill:rgb(25.490198%,25.490198%,29.803923%);fill-opacity:1;" d="M 10.417969 35.9375 C 11.277344 35.9375 12.136719 35.9375 13.019531 35.9375 C 13.019531 37.140625 13.019531 38.34375 13.019531 39.582031 C 11.988281 38.722656 10.957031 37.863281 9.894531 36.980469 C 10.066406 36.636719 10.238281 36.292969 10.417969 35.9375 Z M 10.417969 35.9375 "/>
<path style=" stroke:none;fill-rule:nonzero;fill:rgb(90.588236%,74.117649%,47.450981%);fill-opacity:1;" d="M 34.375 9.894531 C 37.1875 10.207031 37.1875 10.207031 38.476562 11.066406 C 39.257812 12.28125 39.175781 13.167969 39.0625 14.582031 C 38.933594 14.261719 38.804688 13.9375 38.671875 13.605469 C 37.894531 12.289062 37.304688 12.078125 35.9375 11.457031 C 35.027344 10.613281 35.027344 10.613281 34.375 9.894531 Z M 34.375 9.894531 "/>
<path style=" stroke:none;fill-rule:nonzero;fill:rgb(96.470588%,87.058824%,65.098041%);fill-opacity:1;" d="M 23.503906 8.269531 C 23.996094 8.289062 24.492188 8.3125 25 8.332031 C 24.828125 8.847656 24.65625 9.363281 24.480469 9.894531 C 23.789062 10.09375 23.09375 10.261719 22.394531 10.417969 C 21.515625 10.917969 20.644531 11.433594 19.792969 11.980469 C 21.125 8.363281 21.125 8.363281 23.503906 8.269531 Z M 23.503906 8.269531 "/>
<path style=" stroke:none;fill-rule:nonzero;fill:rgb(48.235294%,47.843137%,52.156866%);fill-opacity:1;" d="M 17.1875 17.1875 C 17.015625 18.90625 16.84375 20.625 16.667969 22.394531 C 16.324219 22.222656 15.980469 22.050781 15.625 21.875 C 15.316406 20.496094 15.238281 19.117188 15.105469 17.707031 C 16.144531 17.1875 16.144531 17.1875 17.1875 17.1875 Z M 17.1875 17.1875 "/>
<path style=" stroke:none;fill-rule:nonzero;fill:rgb(37.254903%,36.862746%,42.745098%);fill-opacity:1;" d="M 8.855469 18.75 C 9.441406 20.511719 9.28125 21.234375 8.886719 23.015625 C 8.785156 23.484375 8.683594 23.953125 8.578125 24.4375 C 8.5 24.792969 8.417969 25.152344 8.332031 25.519531 C 8.160156 25.519531 7.988281 25.519531 7.8125 25.519531 C 7.105469 21.738281 7.105469 21.738281 8.039062 19.792969 C 8.308594 19.449219 8.578125 19.105469 8.855469 18.75 Z M 8.855469 18.75 "/>
<path style=" stroke:none;fill-rule:nonzero;fill:rgb(83.529413%,66.666669%,41.960785%);fill-opacity:1;" d="M 40.625 33.332031 C 40.96875 33.503906 41.3125 33.675781 41.667969 33.855469 C 41.015625 35.757812 40.796875 36.34375 39.0625 37.5 C 39.347656 35.742188 39.613281 34.851562 40.625 33.332031 Z M 40.625 33.332031 "/>
<path style=" stroke:none;fill-rule:nonzero;fill:rgb(32.941177%,31.764707%,36.470589%);fill-opacity:1;" d="M 21.875 41.667969 C 22.753906 42.171875 23.621094 42.691406 24.480469 43.230469 C 24.480469 43.402344 24.480469 43.574219 24.480469 43.75 C 23.105469 43.75 21.730469 43.75 20.3125 43.75 C 20.484375 43.40625 20.65625 43.0625 20.832031 42.707031 C 21.175781 42.707031 21.519531 42.707031 21.875 42.707031 C 21.875 42.363281 21.875 42.019531 21.875 41.667969 Z M 21.875 41.667969 "/>
</g>
</svg>
